CascadiaNext.glyphspackage
{
glyphname = cent;
layers = (
{
components = (
{
name = c;
}
);
layerId = m007;
paths = (
{
closed = 1;
nodes = (
"710 -334 LINE",
"710 1394 LINE",
"616 1394 LINE",
"616 -334 LINE"
);
}
);
width = 1200;
},
{
components = (
{
name = c;
}
);
layerId = m008;
paths = (
{
closed = 1;
nodes = (
"732 -334 LINE",
"732 1394 LINE",
"594 1394 LINE",
"594 -334 LINE"
);
}
);
width = 1200;
},
{
components = (
{
alignment = -1;
name = c;
}
);
layerId = m009;
paths = (
{
closed = 1;
nodes = (
"792 -334 LINE",
"792 1394 LINE",
"534 1394 LINE",
"534 -334 LINE"
);
}
);
width = 1200;
},
{
associatedMasterId = m009;
components = (
{
alignment = -1;
name = c;
}
);
layerId = "44DD48AB-6A18-4989-9818-892A0E03E6E0";
name = "[600]";
paths = (
{
closed = 1;
nodes = (
"792 931 LINE",
"792 1394 LINE",
"534 1394 LINE",
"534 931 LINE"
);
},
{
closed = 1;
nodes = (
"792 -334 LINE",
"792 148 LINE",
"534 148 LINE",
"534 -334 LINE"
);
}
);
width = 1200;
},
{
associatedMasterId = m008;
components = (
{
name = c;
}
);
layerId = "86442F3A-C431-4E4F-9D58-ECE6CBC8848F";
name = "[600]";
paths = (
{
closed = 1;
nodes = (
"732 982 LINE",
"732 1394 LINE",
"594 1394 LINE",
"594 982 LINE"
);
},
{
closed = 1;
nodes = (
"732 -334 LINE",
"732 91 LINE",
"594 91 LINE",
"594 -334 LINE"
);
}
);
width = 1200;
},
{
associatedMasterId = m007;
components = (
{
name = c;
}
);
layerId = "CB64D5D8-D3DA-408B-8A6B-84C6E77C8D47";
name = "[600]";
paths = (
{
closed = 1;
nodes = (
"710 1033 LINE",
"710 1394 LINE",
"616 1394 LINE",
"616 1033 LINE"
);
},
{
closed = 1;
nodes = (
"710 -334 LINE",
"710 25 LINE",
"616 25 LINE",
"616 -334 LINE"
);
}
);
width = 1200;
},
{
components = (
{
alignment = -1;
name = c;
}
);
layerId = "8A5928CE-31B2-4F56-BC21-FB6F481DC46A";
paths = (
{
closed = 1;
nodes = (
"572 -334 LINE",
"572 1394 LINE",
"434 1394 LINE",
"434 -334 LINE"
);
}
);
width = 900;
},
{
components = (
{
alignment = -1;
name = c;
}
);
layerId = "A3FCBCC7-55DF-4604-8A77-DC78C4EF6076";
name = "[600]";
paths = (
{
closed = 1;
nodes = (
"621 -334 LINE",
"621 1394 LINE",
"389 1394 LINE",
"389 -334 LINE"
);
}
);
width = 900;
},
{
components = (
{
alignment = -1;
name = c;
}
);
layerId = "4AED55CC-054D-4448-879E-1FE49A52CF83";
paths = (
{
closed = 1;
nodes = (
"550 -334 LINE",
"550 1394 LINE",
"456 1394 LINE",
"456 -334 LINE"
);
}
);
width = 900;
},
{
associatedMasterId = "A3FCBCC7-55DF-4604-8A77-DC78C4EF6076";
components = (
{
alignment = -1;
name = c;
}
);
layerId = "001D1111-B4DF-4FBD-A6F0-B77B248D1A47";
name = "[600]";
paths = (
{
closed = 1;
nodes = (
"621 942 LINE",
"621 1394 LINE",
"389 1394 LINE",
"389 942 LINE"
);
},
{
closed = 1;
nodes = (
"621 -334 LINE",
"621 114 LINE",
"389 114 LINE",
"389 -334 LINE"
);
}
);
width = 900;
},
{
associatedMasterId = "8A5928CE-31B2-4F56-BC21-FB6F481DC46A";
components = (
{
alignment = -1;
name = c;
}
);
layerId = "F5924E75-4958-4EC8-B5D8-7AF663E985CE";
name = "[600]";
paths = (
{
closed = 1;
nodes = (
"572 994 LINE",
"572 1394 LINE",
"434 1394 LINE",
"434 994 LINE"
);
},
{
closed = 1;
nodes = (
"572 -334 LINE",
"572 87 LINE",
"434 87 LINE",
"434 -334 LINE"
);
}
);
width = 900;
},
{
associatedMasterId = "4AED55CC-054D-4448-879E-1FE49A52CF83";
components = (
{
alignment = -1;
name = c;
}
);
layerId = "DF1AABDF-750F-4EA9-ADD7-C14AE6910807";
name = "[600]";
paths = (
{
closed = 1;
nodes = (
"550 1035 LINE",
"550 1394 LINE",
"456 1394 LINE",
"456 1035 LINE"
);
},
{
closed = 1;
nodes = (
"550 -334 LINE",
"550 33 LINE",
"456 33 LINE",
"456 -334 LINE"
);
}
);
width = 900;
}
);
unicode = 00A2;
}
{
color = 0;
export = 0;
glyphname = copyright;
layers = (
{
layerId = m007;
paths = (
{
closed = 1;
nodes = (
"950 15 OFFCURVE",
"1150 263 OFFCURVE",
"1150 695 CURVE SMOOTH",
"1150 1146 OFFCURVE",
"950 1405 OFFCURVE",
"600 1405 CURVE SMOOTH",
"250 1405 OFFCURVE",
"50 1146 OFFCURVE",
"50 695 CURVE SMOOTH",
"50 263 OFFCURVE",
"250 15 OFFCURVE",
"600 15 CURVE SMOOTH"
);
},
{
closed = 1;
nodes = (
"309 105 OFFCURVE",
"142 320 OFFCURVE",
"142 695 CURVE SMOOTH",
"142 1087 OFFCURVE",
"309 1313 OFFCURVE",
"600 1313 CURVE SMOOTH",
"891 1313 OFFCURVE",
"1058 1087 OFFCURVE",
"1058 695 CURVE SMOOTH",
"1058 320 OFFCURVE",
"891 105 OFFCURVE",
"600 105 CURVE SMOOTH"
);
},
{
closed = 1;
nodes = (
"725 414 OFFCURVE",
"802 420 OFFCURVE",
"872 444 CURVE",
"848 532 LINE",
"793 516 OFFCURVE",
"735 506 OFFCURVE",
"676 506 CURVE SMOOTH",
"517 506 OFFCURVE",
"429 582 OFFCURVE",
"429 722 CURVE SMOOTH",
"429 845 OFFCURVE",
"504 914 OFFCURVE",
"636 914 CURVE SMOOTH",
"707 914 OFFCURVE",
"770 882 OFFCURVE",
"807 828 CURVE",
"877 890 LINE",
"842 963 OFFCURVE",
"757 1006 OFFCURVE",
"644 1006 CURVE SMOOTH",
"445 1006 OFFCURVE",
"333 898 OFFCURVE",
"333 712 CURVE SMOOTH",
"333 520 OFFCURVE",
"449 414 OFFCURVE",
"652 414 CURVE SMOOTH"
);
}
);
width = 1200;
},
{
layerId = m008;
paths = (
{
closed = 1;
nodes = (
"965 15 OFFCURVE",
"1174 263 OFFCURVE",
"1174 695 CURVE SMOOTH",
"1174 1146 OFFCURVE",
"965 1405 OFFCURVE",
"600 1405 CURVE SMOOTH",
"235 1405 OFFCURVE",
"26 1146 OFFCURVE",
"26 695 CURVE SMOOTH",
"26 263 OFFCURVE",
"235 15 OFFCURVE",
"600 15 CURVE SMOOTH"
);
},
{
closed = 1;
nodes = (
"725 380 OFFCURVE",
"802 386 OFFCURVE",
"872 410 CURVE",
"848 566 LINE",
"793 550 OFFCURVE",
"735 540 OFFCURVE",
"676 540 CURVE SMOOTH",
"547 540 OFFCURVE",
"476 604 OFFCURVE",
"476 722 CURVE SMOOTH",
"476 823 OFFCURVE",
"534 880 OFFCURVE",
"636 880 CURVE SMOOTH",
"689 880 OFFCURVE",
"736 853 OFFCURVE",
"764 807 CURVE",
"887 920 LINE",
"851 996 OFFCURVE",
"762 1040 OFFCURVE",
"644 1040 CURVE SMOOTH",
"415 1040 OFFCURVE",
"286 919 OFFCURVE",
"286 712 CURVE SMOOTH",
"286 498 OFFCURVE",
"419 380 OFFCURVE",
"652 380 CURVE SMOOTH"
);
},
{
closed = 1;
nodes = (
"343 169 OFFCURVE",
"196 361 OFFCURVE",
"196 695 CURVE SMOOTH",
"196 1048 OFFCURVE",
"343 1251 OFFCURVE",
"600 1251 CURVE SMOOTH",
"857 1251 OFFCURVE",
"1004 1048 OFFCURVE",
"1004 695 CURVE SMOOTH",
"1004 361 OFFCURVE",
"857 169 OFFCURVE",
"600 169 CURVE SMOOTH"
);
}
);
width = 1200;
},
{
layerId = m009;
paths = (
{
closed = 1;
nodes = (
"976 15 OFFCURVE",
"1191 263 OFFCURVE",
"1191 695 CURVE SMOOTH",
"1191 1146 OFFCURVE",
"976 1405 OFFCURVE",
"600 1405 CURVE SMOOTH",
"224 1405 OFFCURVE",
"9 1146 OFFCURVE",
"9 695 CURVE SMOOTH",
"9 263 OFFCURVE",
"224 15 OFFCURVE",
"600 15 CURVE SMOOTH"
);
},
{
closed = 1;
nodes = (
"719 380 OFFCURVE",
"786 386 OFFCURVE",
"847 410 CURVE",
"823 608 LINE",
"777 592 OFFCURVE",
"729 582 OFFCURVE",
"680 582 CURVE SMOOTH",
"591 582 OFFCURVE",
"543 628 OFFCURVE",
"543 714 CURVE SMOOTH",
"543 793 OFFCURVE",
"584 838 OFFCURVE",
"657 838 CURVE SMOOTH",
"694 838 OFFCURVE",
"729 821 OFFCURVE",
"747 790 CURVE",
"870 945 LINE",
"838 1005 OFFCURVE",
"756 1040 OFFCURVE",
"648 1040 CURVE SMOOTH",
"433 1040 OFFCURVE",
"311 919 OFFCURVE",
"311 712 CURVE SMOOTH",
"311 498 OFFCURVE",
"437 380 OFFCURVE",
"656 380 CURVE SMOOTH"
);
},
{
closed = 1;
nodes = (
"370 227 OFFCURVE",
"238 398 OFFCURVE",
"238 695 CURVE SMOOTH",
"238 1011 OFFCURVE",
"370 1193 OFFCURVE",
"600 1193 CURVE SMOOTH",
"830 1193 OFFCURVE",
"962 1011 OFFCURVE",
"962 695 CURVE SMOOTH",
"962 398 OFFCURVE",
"830 227 OFFCURVE",
"600 227 CURVE SMOOTH"
);
}
);
width = 1200;
},
{
associatedMasterId = m009;
layerId = "1832DD86-E10F-4683-8071-6C5F177EA4E5";
name = "[]";
paths = (
{
closed = 1;
nodes = (
"400 445 OFFCURVE",
"446 449 OFFCURVE",
"489 465 CURVE",
"471 634 LINE",
"440 621 OFFCURVE",
"409 615 OFFCURVE",
"378 615 CURVE SMOOTH",
"279 615 OFFCURVE",
"225 656 OFFCURVE",
"225 734 CURVE SMOOTH",
"225 795 OFFCURVE",
"260 829 OFFCURVE",
"320 829 CURVE SMOOTH",
"362 829 OFFCURVE",
"392 811 OFFCURVE",
"413 769 CURVE",
"524 873 LINE",
"478 960 OFFCURVE",
"414 999 OFFCURVE",
"324 999 CURVE SMOOTH",
"156 999 OFFCURVE",
"61 897 OFFCURVE",
"61 724 CURVE SMOOTH",
"61 541 OFFCURVE",
"164 445 OFFCURVE",
"352 445 CURVE SMOOTH"
);
},
{
closed = 1;
nodes = (
"484 15 OFFCURVE",
"581 135 OFFCURVE",
"584 366 CURVE",
"419 366 LINE",
"417 247 OFFCURVE",
"377 185 OFFCURVE",
"300 185 CURVE SMOOTH",
"223 185 OFFCURVE",
"182 247 OFFCURVE",
"180 366 CURVE",
"15 366 LINE",
"18 135 OFFCURVE",
"115 15 OFFCURVE",
"300 15 CURVE SMOOTH"
);
},
{
closed = 1;
nodes = (
"180 1054 LINE",
"182 1173 OFFCURVE",
"223 1235 OFFCURVE",
"300 1235 CURVE SMOOTH",
"377 1235 OFFCURVE",
"417 1173 OFFCURVE",
"419 1054 CURVE",
"584 1054 LINE",
"581 1285 OFFCURVE",
"484 1405 OFFCURVE",
"300 1405 CURVE SMOOTH",
"115 1405 OFFCURVE",
"18 1285 OFFCURVE",
"15 1054 CURVE"
);
}
);
width = 1200;
},
{
associatedMasterId = m008;
layerId = "311EC0A3-3169-43D9-AA1D-5E800AF5637D";
name = "[]";
paths = (
{
closed = 1;
nodes = (
"400 445 OFFCURVE",
"446 449 OFFCURVE",
"489 465 CURVE",
"471 634 LINE",
"440 621 OFFCURVE",
"409 615 OFFCURVE",
"378 615 CURVE SMOOTH",
"279 615 OFFCURVE",
"225 656 OFFCURVE",
"225 734 CURVE SMOOTH",
"225 795 OFFCURVE",
"260 829 OFFCURVE",
"320 829 CURVE SMOOTH",
"362 829 OFFCURVE",
"392 811 OFFCURVE",
"413 769 CURVE",
"524 873 LINE",
"478 960 OFFCURVE",
"414 999 OFFCURVE",
"324 999 CURVE SMOOTH",
"156 999 OFFCURVE",
"61 897 OFFCURVE",
"61 724 CURVE SMOOTH",
"61 541 OFFCURVE",
"164 445 OFFCURVE",
"352 445 CURVE SMOOTH"
);
},
{
closed = 1;
nodes = (
"484 15 OFFCURVE",
"581 135 OFFCURVE",
"584 366 CURVE",
"419 366 LINE",
"417 247 OFFCURVE",
"377 185 OFFCURVE",
"300 185 CURVE SMOOTH",
"223 185 OFFCURVE",
"182 247 OFFCURVE",
"180 366 CURVE",
"15 366 LINE",
"18 135 OFFCURVE",
"115 15 OFFCURVE",
"300 15 CURVE SMOOTH"
);
},
{
closed = 1;
nodes = (
"180 1054 LINE",
"182 1173 OFFCURVE",
"223 1235 OFFCURVE",
"300 1235 CURVE SMOOTH",
"377 1235 OFFCURVE",
"417 1173 OFFCURVE",
"419 1054 CURVE",
"584 1054 LINE",
"581 1285 OFFCURVE",
"484 1405 OFFCURVE",
"300 1405 CURVE SMOOTH",
"115 1405 OFFCURVE",
"18 1285 OFFCURVE",
"15 1054 CURVE"
);
}
);
width = 1200;
},
{
associatedMasterId = m007;
layerId = "D22A0741-F6FB-407F-A3A6-5F02D746CA78";
name = "[]";
paths = (
{
closed = 1;
nodes = (
"385 444 OFFCURVE",
"441 450 OFFCURVE",
"491 474 CURVE",
"467 562 LINE",
"432 546 OFFCURVE",
"394 536 OFFCURVE",
"356 536 CURVE SMOOTH",
"236 536 OFFCURVE",
"170 602 OFFCURVE",
"170 722 CURVE SMOOTH",
"170 826 OFFCURVE",
"223 884 OFFCURVE",
"316 884 CURVE SMOOTH",
"362 884 OFFCURVE",
"403 852 OFFCURVE",
"426 798 CURVE",
"496 860 LINE",
"471 933 OFFCURVE",
"408 976 OFFCURVE",
"324 976 CURVE SMOOTH",
"164 976 OFFCURVE",
"74 879 OFFCURVE",
"74 712 CURVE SMOOTH",
"74 540 OFFCURVE",
"168 444 OFFCURVE",
"332 444 CURVE SMOOTH"
);
},
{
closed = 1;
nodes = (
"464 15 OFFCURVE",
"551 135 OFFCURVE",
"554 366 CURVE",
"462 366 LINE",
"459 196 OFFCURVE",
"404 107 OFFCURVE",
"300 107 CURVE SMOOTH",
"196 107 OFFCURVE",
"140 196 OFFCURVE",
"137 366 CURVE",
"45 366 LINE",
"48 135 OFFCURVE",
"135 15 OFFCURVE",
"300 15 CURVE SMOOTH"
);
},
{
closed = 1;
nodes = (
"137 1054 LINE",
"140 1224 OFFCURVE",
"196 1313 OFFCURVE",
"300 1313 CURVE SMOOTH",
"404 1313 OFFCURVE",
"459 1224 OFFCURVE",
"462 1054 CURVE",
"554 1054 LINE",
"551 1285 OFFCURVE",
"464 1405 OFFCURVE",
"300 1405 CURVE SMOOTH",
"135 1405 OFFCURVE",
"48 1285 OFFCURVE",
"45 1054 CURVE"
);
}
);
width = 1200;
},
{
layerId = "8A5928CE-31B2-4F56-BC21-FB6F481DC46A";
paths = (
{
closed = 1;
nodes = (
"739 15 OFFCURVE",
"904 263 OFFCURVE",
"904 695 CURVE SMOOTH",
"904 1147 OFFCURVE",
"739 1405 OFFCURVE",
"450 1405 CURVE SMOOTH",
"162 1405 OFFCURVE",
"-4 1147 OFFCURVE",
"-4 695 CURVE SMOOTH",
"-4 263 OFFCURVE",
"162 15 OFFCURVE",
"450 15 CURVE SMOOTH"
);
},
{
closed = 1;
nodes = (
"547 380 OFFCURVE",
"603 387 OFFCURVE",
"654 410 CURVE",
"636 566 LINE",
"596 550 OFFCURVE",
"554 540 OFFCURVE",
"511 540 CURVE SMOOTH",
"424 540 OFFCURVE",
"377 605 OFFCURVE",
"377 722 CURVE SMOOTH",
"377 823 OFFCURVE",
"416 880 OFFCURVE",
"485 880 CURVE SMOOTH",
"521 880 OFFCURVE",
"553 852 OFFCURVE",
"571 807 CURVE",
"669 920 LINE",
"642 995 OFFCURVE",
"576 1040 OFFCURVE",
"486 1040 CURVE SMOOTH",
"311 1040 OFFCURVE",
"212 919 OFFCURVE",
"212 712 CURVE SMOOTH",
"212 498 OFFCURVE",
"314 380 OFFCURVE",
"492 380 CURVE SMOOTH"
);
},
{
closed = 1;
nodes = (
"260 169 OFFCURVE",
"151 361 OFFCURVE",
"151 695 CURVE SMOOTH",
"151 1048 OFFCURVE",
"260 1251 OFFCURVE",
"450 1251 CURVE SMOOTH",
"640 1251 OFFCURVE",
"749 1048 OFFCURVE",
"749 695 CURVE SMOOTH",
"749 361 OFFCURVE",
"640 169 OFFCURVE",
"450 169 CURVE SMOOTH"
);
}
);
width = 900;
},
{
layerId = "A3FCBCC7-55DF-4604-8A77-DC78C4EF6076";
paths = (
{
closed = 1;
nodes = (
"750 15 OFFCURVE",
"921 263 OFFCURVE",
"921 695 CURVE SMOOTH",
"921 1146 OFFCURVE",
"750 1405 OFFCURVE",
"450 1405 CURVE SMOOTH",
"151 1405 OFFCURVE",
"-21 1146 OFFCURVE",
"-21 695 CURVE SMOOTH",
"-21 263 OFFCURVE",
"151 15 OFFCURVE",
"450 15 CURVE SMOOTH"
);
},
{
closed = 1;
nodes = (
"542 380 OFFCURVE",
"594 386 OFFCURVE",
"641 410 CURVE",
"622 608 LINE",
"587 592 OFFCURVE",
"550 582 OFFCURVE",
"514 582 CURVE SMOOTH",
"453 582 OFFCURVE",
"421 629 OFFCURVE",
"421 714 CURVE SMOOTH",
"421 793 OFFCURVE",
"449 838 OFFCURVE",
"498 838 CURVE SMOOTH",
"523 838 OFFCURVE",
"546 821 OFFCURVE",
"558 790 CURVE",
"662 945 LINE",
"637 1004 OFFCURVE",
"574 1040 OFFCURVE",
"489 1040 CURVE SMOOTH",
"317 1040 OFFCURVE",
"220 919 OFFCURVE",
"220 712 CURVE SMOOTH",
"220 498 OFFCURVE",
"320 380 OFFCURVE",
"495 380 CURVE SMOOTH"
);
},
{
closed = 1;
nodes = (
"278 227 OFFCURVE",
"179 398 OFFCURVE",
"179 695 CURVE SMOOTH",
"179 1011 OFFCURVE",
"278 1193 OFFCURVE",
"450 1193 CURVE SMOOTH",
"623 1193 OFFCURVE",
"722 1011 OFFCURVE",
"722 695 CURVE SMOOTH",
"722 398 OFFCURVE",
"623 227 OFFCURVE",
"450 227 CURVE SMOOTH"
);
}
);
width = 900;
},
{
layerId = "4AED55CC-054D-4448-879E-1FE49A52CF83";
paths = (
{
closed = 1;
nodes = (
"724 15 OFFCURVE",
"880 263 OFFCURVE",
"880 695 CURVE SMOOTH",
"880 1146 OFFCURVE",
"724 1405 OFFCURVE",
"450 1405 CURVE SMOOTH",
"177 1405 OFFCURVE",
"20 1146 OFFCURVE",
"20 695 CURVE SMOOTH",
"20 263 OFFCURVE",
"177 15 OFFCURVE",
"450 15 CURVE SMOOTH"
);
},
{
closed = 1;
nodes = (
"227 105 OFFCURVE",
"99 321 OFFCURVE",
"99 695 CURVE SMOOTH",
"99 1087 OFFCURVE",
"227 1313 OFFCURVE",
"450 1313 CURVE SMOOTH",
"674 1313 OFFCURVE",
"802 1087 OFFCURVE",
"802 695 CURVE SMOOTH",
"802 321 OFFCURVE",
"674 105 OFFCURVE",
"450 105 CURVE SMOOTH"
);
},
{
closed = 1;
nodes = (
"546 414 OFFCURVE",
"607 420 OFFCURVE",
"662 444 CURVE",
"643 532 LINE",
"601 517 OFFCURVE",
"556 506 OFFCURVE",
"509 506 CURVE SMOOTH",
"388 506 OFFCURVE",
"321 582 OFFCURVE",
"321 722 CURVE SMOOTH",
"321 845 OFFCURVE",
"378 914 OFFCURVE",
"478 914 CURVE SMOOTH",
"531 914 OFFCURVE",
"579 883 OFFCURVE",
"608 828 CURVE",
"667 890 LINE",
"640 962 OFFCURVE",
"574 1006 OFFCURVE",
"484 1006 CURVE SMOOTH",
"327 1006 OFFCURVE",
"238 898 OFFCURVE",
"238 712 CURVE SMOOTH",
"238 520 OFFCURVE",
"330 414 OFFCURVE",
"491 414 CURVE SMOOTH"
);
}
);
width = 900;
}
);
unicode = 00A9;
}
{
glyphname = degree;
layers = (
{
layerId = m007;
paths = (
{
closed = 1;
nodes = (
"840 690 OFFCURVE",
"982 829 OFFCURVE",
"982 1065 CURVE SMOOTH",
"982 1301 OFFCURVE",
"840 1440 OFFCURVE",
"600 1440 CURVE SMOOTH",
"360 1440 OFFCURVE",
"218 1301 OFFCURVE",
"218 1065 CURVE SMOOTH",
"218 829 OFFCURVE",
"360 690 OFFCURVE",
"600 690 CURVE SMOOTH"
);
},
{
closed = 1;
nodes = (
"420 782 OFFCURVE",
"314 887 OFFCURVE",
"314 1065 CURVE SMOOTH",
"314 1243 OFFCURVE",
"420 1348 OFFCURVE",
"600 1348 CURVE SMOOTH",
"780 1348 OFFCURVE",
"886 1243 OFFCURVE",
"886 1065 CURVE SMOOTH",
"886 887 OFFCURVE",
"780 782 OFFCURVE",
"600 782 CURVE SMOOTH"
);
}
);
width = 1200;
},
{
layerId = m008;
paths = (
{
closed = 1;
nodes = (
"840 690 OFFCURVE",
"982 829 OFFCURVE",
"982 1065 CURVE SMOOTH",
"982 1301 OFFCURVE",
"840 1440 OFFCURVE",
"600 1440 CURVE SMOOTH",
"360 1440 OFFCURVE",
"218 1301 OFFCURVE",
"218 1065 CURVE SMOOTH",
"218 829 OFFCURVE",
"360 690 OFFCURVE",
"600 690 CURVE SMOOTH"
);
},
{
closed = 1;
nodes = (
"482 860 OFFCURVE",
"413 936 OFFCURVE",
"413 1065 CURVE SMOOTH",
"413 1194 OFFCURVE",
"482 1270 OFFCURVE",
"600 1270 CURVE SMOOTH",
"718 1270 OFFCURVE",
"787 1194 OFFCURVE",
"787 1065 CURVE SMOOTH",
"787 936 OFFCURVE",
"718 860 OFFCURVE",
"600 860 CURVE SMOOTH"
);
}
);
width = 1200;
},
{
layerId = m009;
paths = (
{
closed = 1;
nodes = (
"836 690 OFFCURVE",
"994 840 OFFCURVE",
"994 1065 CURVE SMOOTH",
"994 1290 OFFCURVE",
"836 1440 OFFCURVE",
"600 1440 CURVE SMOOTH",
"364 1440 OFFCURVE",
"206 1290 OFFCURVE",
"206 1065 CURVE SMOOTH",
"206 840 OFFCURVE",
"364 690 OFFCURVE",
"600 690 CURVE SMOOTH"
);
},
{
closed = 1;
nodes = (
"504 892 OFFCURVE",
"440 961 OFFCURVE",
"440 1065 CURVE SMOOTH",
"440 1169 OFFCURVE",
"504 1238 OFFCURVE",
"600 1238 CURVE SMOOTH",
"696 1238 OFFCURVE",
"760 1169 OFFCURVE",
"760 1065 CURVE SMOOTH",
"760 961 OFFCURVE",
"696 892 OFFCURVE",
"600 892 CURVE SMOOTH"
);
}
);
width = 1200;
},
{
layerId = "8A5928CE-31B2-4F56-BC21-FB6F481DC46A";
paths = (
{
closed = 1;
nodes = (
"650 690 OFFCURVE",
"763 824 OFFCURVE",
"763 1065 CURVE SMOOTH",
"763 1306 OFFCURVE",
"650 1440 OFFCURVE",
"450 1440 CURVE SMOOTH",
"250 1440 OFFCURVE",
"138 1306 OFFCURVE",
"138 1065 CURVE SMOOTH",
"138 824 OFFCURVE",
"250 690 OFFCURVE",
"450 690 CURVE SMOOTH"
);
},
{
closed = 1;
nodes = (
"362 860 OFFCURVE",
"312 933 OFFCURVE",
"312 1065 CURVE SMOOTH",
"312 1197 OFFCURVE",
"362 1270 OFFCURVE",
"450 1270 CURVE SMOOTH",
"538 1270 OFFCURVE",
"588 1197 OFFCURVE",
"588 1065 CURVE SMOOTH",
"588 933 OFFCURVE",
"538 860 OFFCURVE",
"450 860 CURVE SMOOTH"
);
}
);
width = 900;
},
{
layerId = "A3FCBCC7-55DF-4604-8A77-DC78C4EF6076";
paths = (
{
closed = 1;
nodes = (
"658 690 OFFCURVE",
"784 830 OFFCURVE",
"784 1065 CURVE SMOOTH",
"784 1301 OFFCURVE",
"658 1440 OFFCURVE",
"450 1440 CURVE SMOOTH",
"242 1440 OFFCURVE",
"117 1301 OFFCURVE",
"117 1065 CURVE SMOOTH",
"117 830 OFFCURVE",
"242 690 OFFCURVE",
"450 690 CURVE SMOOTH"
);
},
{
closed = 1;
nodes = (
"382 902 OFFCURVE",
"339 962 OFFCURVE",
"339 1065 CURVE SMOOTH",
"339 1168 OFFCURVE",
"382 1229 OFFCURVE",
"450 1229 CURVE SMOOTH",
"519 1229 OFFCURVE",
"562 1168 OFFCURVE",
"562 1065 CURVE SMOOTH",
"562 962 OFFCURVE",
"519 902 OFFCURVE",
"450 902 CURVE SMOOTH"
);
}
);
width = 900;
},
{
layerId = "4AED55CC-054D-4448-879E-1FE49A52CF83";
paths = (
{
closed = 1;
nodes = (
"643 690 OFFCURVE",
"751 824 OFFCURVE",
"751 1065 CURVE SMOOTH",
"751 1306 OFFCURVE",
"643 1440 OFFCURVE",
"450 1440 CURVE SMOOTH",
"258 1440 OFFCURVE",
"149 1306 OFFCURVE",
"149 1065 CURVE SMOOTH",
"149 824 OFFCURVE",
"258 690 OFFCURVE",
"450 690 CURVE SMOOTH"
);
},
{
closed = 1;
nodes = (
"320 782 OFFCURVE",
"245 883 OFFCURVE",
"245 1065 CURVE SMOOTH",
"245 1247 OFFCURVE",
"320 1348 OFFCURVE",
"450 1348 CURVE SMOOTH",
"581 1348 OFFCURVE",
"655 1247 OFFCURVE",
"655 1065 CURVE SMOOTH",
"655 883 OFFCURVE",
"581 782 OFFCURVE",
"450 782 CURVE SMOOTH"
);
}
);
width = 900;
}
);
unicode = 00B0;
}
{
glyphname = divide;
layers = (
{
components = (
{
name = period;
transform = "{1, 0, 0, 1, 0, 195}";
},
{
name = period;
transform = "{1, 0, 0, 1, 0, 1039}";
}
);
layerId = m007;
paths = (
{
closed = 1;
nodes = (
"1076 664 LINE",
"1076 754 LINE",
"124 754 LINE",
"124 664 LINE"
);
}
);
width = 1200;
},
{
components = (
{
name = period;
transform = "{1, 0, 0, 1, 0, 125}";
},
{
name = period;
transform = "{1, 0, 0, 1, 0, 1004}";
}
);
layerId = m008;
paths = (
{
closed = 1;
nodes = (
"1100 616 LINE",
"1100 802 LINE",
"100 802 LINE",
"100 616 LINE"
);
}
);
width = 1200;
},
{
components = (
{
name = period;
transform = "{1, 0, 0, 1, 0, 75}";
},
{
name = period;
transform = "{1, 0, 0, 1, 0, 979}";
}
);
layerId = m009;
paths = (
{
closed = 1;
nodes = (
"1100 584 LINE",
"1100 834 LINE",
"100 834 LINE",
"100 584 LINE"
);
}
);
width = 1200;
},
{
components = (
{
alignment = -1;
name = period;
transform = "{1, 0, 0, 1, 0, 146}";
},
{
alignment = -1;
name = period;
transform = "{1, 0, 0, 1, 0, 1008}";
}
);
layerId = "8A5928CE-31B2-4F56-BC21-FB6F481DC46A";
paths = (
{
closed = 1;
nodes = (
"830 623 LINE",
"830 796 LINE",
"70 796 LINE",
"70 623 LINE"
);
}
);
width = 900;
},
{
components = (
{
alignment = -1;
name = period;
transform = "{1, 0, 0, 1, 0, 95}";
},
{
alignment = -1;
name = period;
transform = "{1, 0, 0, 1, 0, 979}";
}
);
layerId = "A3FCBCC7-55DF-4604-8A77-DC78C4EF6076";
paths = (
{
closed = 1;
nodes = (
"830 592 LINE",
"830 827 LINE",
"70 827 LINE",
"70 592 LINE"
);
}
);
width = 900;
},
{
components = (
{
alignment = -1;
name = period;
transform = "{1, 0, 0, 1, 0, 206}";
},
{
alignment = -1;
name = period;
transform = "{1, 0, 0, 1, 0, 1039}";
}
);
layerId = "4AED55CC-054D-4448-879E-1FE49A52CF83";
paths = (
{
closed = 1;
nodes = (
"816 664 LINE",
"816 754 LINE",
"84 754 LINE",
"84 664 LINE"
);
}
);
width = 900;
}
);
unicode = 00F7;
}
{
glyphname = sterling;
layers = (
{
layerId = m007;
paths = (
{
closed = 1;
nodes = (
"239 0 LINE",
"239 90 LINE",
"338 275 OFFCURVE",
"386 441 OFFCURVE",
"386 627 CURVE SMOOTH",
"386 1035 LINE SMOOTH",
"386 1239 OFFCURVE",
"523 1350 OFFCURVE",
"722 1350 CURVE SMOOTH",
"845 1350 OFFCURVE",
"955 1282 OFFCURVE",
"1025 1164 CURVE",
"1103 1221 LINE",
"1030 1360 OFFCURVE",
"894 1440 OFFCURVE",
"730 1440 CURVE SMOOTH",
"455 1440 OFFCURVE",
"292 1294 OFFCURVE",
"292 1036 CURVE SMOOTH",
"292 627 LINE SMOOTH",
"292 441 OFFCURVE",
"244 278 OFFCURVE",
"144 90 CURVE",
"144 0 LINE"
);
},
{
closed = 1;
nodes = (
"1084 0 LINE",
"1084 90 LINE",
"204 90 LINE",
"204 0 LINE"
);
},
{
closed = 1;
nodes = (
"885 605 LINE",
"885 695 LINE",
"121 695 LINE",
"121 605 LINE"
);
}
);
width = 1200;
},
{
layerId = m008;
paths = (
{
closed = 1;
nodes = (
"344 0 LINE",
"344 186 LINE",
"453 338 OFFCURVE",
"506 474 OFFCURVE",
"506 627 CURVE SMOOTH",
"506 1035 LINE SMOOTH",
"506 1178 OFFCURVE",
"586 1256 OFFCURVE",
"702 1256 CURVE SMOOTH",
"802 1256 OFFCURVE",
"891 1197 OFFCURVE",
"947 1094 CURVE",
"1105 1211 LINE",
"1041 1356 OFFCURVE",
"897 1440 OFFCURVE",
"710 1440 CURVE SMOOTH",
"448 1440 OFFCURVE",
"292 1294 OFFCURVE",
"292 1036 CURVE SMOOTH",
"292 627 LINE SMOOTH",
"292 474 OFFCURVE",
"240 340 OFFCURVE",
"132 186 CURVE",
"132 0 LINE"
);
},
{
closed = 1;
nodes = (
"1096 0 LINE",
"1096 186 LINE",
"192 186 LINE",
"192 0 LINE"
);
},
{
closed = 1;
nodes = (
"897 581 LINE",
"897 719 LINE",
"109 719 LINE",
"109 581 LINE"
);
}
);
width = 1200;
},
{
layerId = m009;
paths = (
{
closed = 1;
nodes = (
"427 0 LINE",
"394 243 LINE",
"503 376 OFFCURVE",
"556 494 OFFCURVE",
"556 627 CURVE SMOOTH",
"556 973 LINE SMOOTH",
"556 1111 OFFCURVE",
"636 1187 OFFCURVE",
"752 1187 CURVE SMOOTH",
"825 1187 OFFCURVE",
"889 1140 OFFCURVE",
"930 1057 CURVE",
"1132 1213 LINE",
"1068 1357 OFFCURVE",
"928 1440 OFFCURVE",
"743 1440 CURVE SMOOTH",
"450 1440 OFFCURVE",
"275 1294 OFFCURVE",
"275 1036 CURVE SMOOTH",
"275 627 LINE SMOOTH",
"275 494 OFFCURVE",
"223 377 OFFCURVE",
"115 243 CURVE",
"115 0 LINE"
);
},
{
closed = 1;
nodes = (
"1113 0 LINE",
"1113 243 LINE",
"192 243 LINE",
"192 0 LINE"
);
},
{
closed = 1;
nodes = (
"897 533 LINE",
"897 767 LINE",
"109 767 LINE",
"109 533 LINE"
);
}
);
width = 1200;
},
{
layerId = "8A5928CE-31B2-4F56-BC21-FB6F481DC46A";
paths = (
{
closed = 1;
nodes = (
"284 0 LINE",
"273 173 LINE",
"362 330 OFFCURVE",
"405 470 OFFCURVE",
"405 627 CURVE SMOOTH",
"405 1086 LINE SMOOTH",
"405 1203 OFFCURVE",
"456 1263 OFFCURVE",
"539 1263 CURVE SMOOTH",
"602 1263 OFFCURVE",
"659 1221 OFFCURVE",
"694 1147 CURVE",
"838 1239 LINE",
"790 1365 OFFCURVE",
"683 1440 OFFCURVE",
"539 1440 CURVE SMOOTH",
"332 1440 OFFCURVE",
"219 1320 OFFCURVE",
"219 1087 CURVE SMOOTH",
"219 627 LINE SMOOTH",
"219 469 OFFCURVE",
"178 331 OFFCURVE",
"93 173 CURVE",
"93 0 LINE"
);
},
{
closed = 1;
nodes = (
"829 0 LINE",
"829 173 LINE",
"144 173 LINE",
"144 0 LINE"
);
},
{
closed = 1;
nodes = (
"674 581 LINE",
"674 719 LINE",
"82 719 LINE",
"82 581 LINE"
);
}
);
width = 900;
},
{
layerId = "A3FCBCC7-55DF-4604-8A77-DC78C4EF6076";
paths = (
{
closed = 1;
nodes = (
"319 0 LINE",
"292 232 LINE",
"394 369 OFFCURVE",
"444 490 OFFCURVE",
"444 627 CURVE SMOOTH",
"444 1055 LINE SMOOTH",
"444 1149 OFFCURVE",
"491 1198 OFFCURVE",
"564 1198 CURVE SMOOTH",
"615 1198 OFFCURVE",
"652 1160 OFFCURVE",
"676 1093 CURVE",
"861 1199 LINE",
"822 1350 OFFCURVE",
"713 1440 OFFCURVE",
"556 1440 CURVE SMOOTH",
"326 1440 OFFCURVE",
"201 1320 OFFCURVE",
"201 1087 CURVE SMOOTH",
"201 627 LINE SMOOTH",
"201 490 OFFCURVE",
"161 370 OFFCURVE",
"79 232 CURVE",
"79 0 LINE"
);
},
{
closed = 1;
nodes = (
"843 0 LINE",
"843 232 LINE",
"138 232 LINE",
"138 0 LINE"
);
},
{
closed = 1;
nodes = (
"684 537 LINE",
"684 764 LINE",
"77 764 LINE",
"77 537 LINE"
);
}
);
width = 900;
},
{
layerId = "4AED55CC-054D-4448-879E-1FE49A52CF83";
paths = (
{
closed = 1;
nodes = (
"198 0 LINE",
"198 90 LINE",
"275 277 OFFCURVE",
"312 441 OFFCURVE",
"312 627 CURVE SMOOTH",
"312 1091 LINE SMOOTH",
"312 1260 OFFCURVE",
"401 1350 OFFCURVE",
"540 1350 CURVE SMOOTH",
"624 1350 OFFCURVE",
"698 1297 OFFCURVE",
"747 1201 CURVE",
"829 1249 LINE",
"775 1372 OFFCURVE",
"673 1440 OFFCURVE",
"546 1440 CURVE SMOOTH",
"334 1440 OFFCURVE",
"213 1317 OFFCURVE",
"213 1092 CURVE SMOOTH",
"213 627 LINE SMOOTH",
"213 441 OFFCURVE",
"181 278 OFFCURVE",
"115 90 CURVE",
"115 0 LINE"
);
},
{
closed = 1;
nodes = (
"811 0 LINE",
"811 90 LINE",
"160 90 LINE",
"160 0 LINE"
);
},
{
closed = 1;
nodes = (
"671 605 LINE",
"671 695 LINE",
"83 695 LINE",
"83 605 LINE"
);
}
);
width = 900;
}
);
unicode = 00A3;
}
{
glyphname = asterisk;
layers = (
{
layerId = m007;
paths = (
{
closed = 1;
nodes = (
"925 337 LINE",
"629 720 LINE",
"571 672 LINE",
"853 282 LINE"
);
},
{
closed = 1;
nodes = (
"629 672 LINE",
"571 720 LINE",
"275 337 LINE",
"347 282 LINE"
);
},
{
closed = 1;
nodes = (
"613 732 LINE",
"165 904 LINE",
"133 816 LINE",
"587 660 LINE"
);
},
{
closed = 1;
nodes = (
"638 696 LINE",
"647 1176 LINE",
"553 1176 LINE",
"562 696 LINE"
);
},
{
closed = 1;
nodes = (
"1067 816 LINE",
"1035 904 LINE",
"587 732 LINE",
"613 660 LINE"
);
}
);
width = 1200;
},
{
layerId = m008;
paths = (
{
closed = 1;
nodes = (
"992 398 LINE",
"656 744 LINE",
"544 648 LINE",
"826 258 LINE"
);
},
{
closed = 1;
nodes = (
"656 648 LINE",
"544 744 LINE",
"208 398 LINE",
"374 258 LINE"
);
},
{
closed = 1;
nodes = (
"626 766 LINE",
"186 962 LINE",
"112 758 LINE",
"574 626 LINE"
);
},
{
closed = 1;
nodes = (
"674 696 LINE",
"708 1176 LINE",
"492 1176 LINE",
"526 696 LINE"
);
},
{
closed = 1;
nodes = (
"1088 758 LINE",
"1014 962 LINE",
"574 766 LINE",
"626 626 LINE"
);
}
);
width = 1200;
},
{
layerId = m009;
paths = (
{
closed = 1;
nodes = (
"1000 396 LINE",
"686 760 LINE",
"507 627 LINE",
"773 227 LINE"
);
},
{
closed = 1;
nodes = (
"686 632 LINE",
"507 765 LINE",
"200 396 LINE",
"427 227 LINE"
);
},
{
closed = 1;
nodes = (
"636 806 LINE",
"189 981 LINE",
"100 713 LINE",
"567 594 LINE"
);
},
{
closed = 1;
nodes = (
"716 696 LINE",
"741 1176 LINE",
"459 1176 LINE",
"493 696 LINE"
);
},
{
closed = 1;
nodes = (
"1100 713 LINE",
"1012 981 LINE",
"567 798 LINE",
"636 586 LINE"
);
}
);
width = 1200;
},
{
layerId = "8A5928CE-31B2-4F56-BC21-FB6F481DC46A";
paths = (
{
closed = 1;
nodes = (
"770 358 LINE",
"505 742 LINE",
"405 665 LINE",
"611 255 LINE"
);
},
{
closed = 1;
nodes = (
"500 665 LINE",
"400 742 LINE",
"129 358 LINE",
"288 255 LINE"
);
},
{
closed = 1;
nodes = (
"465 758 LINE",
"130 923 LINE",
"62 744 LINE",
"439 616 LINE"
);
},
{
closed = 1;
nodes = (
"519 696 LINE",
"546 1176 LINE",
"359 1176 LINE",
"385 696 LINE"
);
},
{
closed = 1;
nodes = (
"838 744 LINE",
"770 923 LINE",
"439 758 LINE",
"465 616 LINE"
);
}
);
width = 900;
},
{
layerId = "A3FCBCC7-55DF-4604-8A77-DC78C4EF6076";
paths = (
{
closed = 1;
nodes = (
"794 357 LINE",
"530 720 LINE",
"381 625 LINE",
"590 230 LINE"
);
},
{
closed = 1;
nodes = (
"520 627 LINE",
"371 723 LINE",
"105 357 LINE",
"310 230 LINE"
);
},
{
closed = 1;
nodes = (
"473 779 LINE",
"121 943 LINE",
"50 696 LINE",
"437 595 LINE"
);
},
{
closed = 1;
nodes = (
"545 696 LINE",
"572 1176 LINE",
"332 1176 LINE",
"364 696 LINE"
);
},
{
closed = 1;
nodes = (
"850 696 LINE",
"780 943 LINE",
"432 774 LINE",
"468 591 LINE"
);
}
);
width = 900;
},
{
layerId = "4AED55CC-054D-4448-879E-1FE49A52CF83";
paths = (
{
closed = 1;
nodes = (
"710 327 LINE",
"479 720 LINE",
"421 672 LINE",
"633 282 LINE"
);
},
{
closed = 1;
nodes = (
"479 672 LINE",
"421 720 LINE",
"186 327 LINE",
"263 282 LINE"
);
},
{
closed = 1;
nodes = (
"463 722 LINE",
"126 904 LINE",
"84 821 LINE",
"437 650 LINE"
);
},
{
closed = 1;
nodes = (
"488 696 LINE",
"497 1176 LINE",
"403 1176 LINE",
"412 696 LINE"
);
},
{
closed = 1;
nodes = (
"811 821 LINE",
"769 904 LINE",
"437 722 LINE",
"463 650 LINE"
);
}
);
width = 900;
}
);
unicode = 002A;
}
{
glyphname = period;
layers = (
{
layerId = m007;
paths = (
{
closed = 1;
nodes = (
"661 -20 OFFCURVE",
"711 29 OFFCURVE",
"711 90 CURVE SMOOTH",
"711 150 OFFCURVE",
"661 200 OFFCURVE",
"600 200 CURVE SMOOTH",
"539 200 OFFCURVE",
"489 150 OFFCURVE",
"489 90 CURVE SMOOTH",
"489 29 OFFCURVE",
"539 -20 OFFCURVE",
"600 -20 CURVE SMOOTH"
);
}
);
width = 1200;
},
{
layerId = m008;
paths = (
{
closed = 1;
nodes = (
"691 -20 OFFCURVE",
"764 53 OFFCURVE",
"764 144 CURVE SMOOTH",
"764 234 OFFCURVE",
"691 307 OFFCURVE",
"600 307 CURVE SMOOTH",
"509 307 OFFCURVE",
"436 234 OFFCURVE",
"436 144 CURVE SMOOTH",
"436 53 OFFCURVE",
"509 -20 OFFCURVE",
"600 -20 CURVE SMOOTH"
);
}
);
width = 1200;
},
{
layerId = m009;
paths = (
{
closed = 1;
nodes = (
"712 -20 OFFCURVE",
"801 71 OFFCURVE",
"801 181 CURVE SMOOTH",
"801 293 OFFCURVE",
"712 383 OFFCURVE",
"600 383 CURVE SMOOTH",
"488 383 OFFCURVE",
"399 293 OFFCURVE",
"399 181 CURVE SMOOTH",
"399 71 OFFCURVE",
"488 -20 OFFCURVE",
"600 -20 CURVE SMOOTH"
);
}
);
width = 1200;
},
{
layerId = "8A5928CE-31B2-4F56-BC21-FB6F481DC46A";
paths = (
{
closed = 1;
nodes = (
"534 -20 OFFCURVE",
"602 48 OFFCURVE",
"602 132 CURVE SMOOTH",
"602 215 OFFCURVE",
"534 283 OFFCURVE",
"450 283 CURVE SMOOTH",
"366 283 OFFCURVE",
"299 215 OFFCURVE",
"299 132 CURVE SMOOTH",
"299 48 OFFCURVE",
"366 -20 OFFCURVE",
"450 -20 CURVE SMOOTH"
);
}
);
width = 900;
},
{
layerId = "A3FCBCC7-55DF-4604-8A77-DC78C4EF6076";
paths = (
{
closed = 1;
nodes = (
"557 -20 OFFCURVE",
"642 67 OFFCURVE",
"642 172 CURVE SMOOTH",
"642 278 OFFCURVE",
"557 364 OFFCURVE",
"450 364 CURVE SMOOTH",
"344 364 OFFCURVE",
"259 278 OFFCURVE",
"259 172 CURVE SMOOTH",
"259 67 OFFCURVE",
"344 -20 OFFCURVE",
"450 -20 CURVE SMOOTH"
);
}
);
width = 900;
},
{
layerId = "4AED55CC-054D-4448-879E-1FE49A52CF83";
paths = (
{
closed = 1;
nodes = (
"508 -20 OFFCURVE",
"556 27 OFFCURVE",
"556 85 CURVE SMOOTH",
"556 142 OFFCURVE",
"508 190 OFFCURVE",
"450 190 CURVE SMOOTH",
"392 190 OFFCURVE",
"345 142 OFFCURVE",
"345 85 CURVE SMOOTH",
"345 27 OFFCURVE",
"392 -20 OFFCURVE",
"450 -20 CURVE SMOOTH"
);
}
);
width = 900;
}
);
unicode = 002E;
}
{
glyphname = plus;
layers = (
{
layerId = m007;
paths = (
{
closed = 1;
nodes = (
"647 190 LINE",
"647 1228 LINE",
"553 1228 LINE",
"553 190 LINE"
);
},
{
closed = 1;
nodes = (
"1076 665 LINE",
"1076 755 LINE",
"124 755 LINE",
"124 665 LINE"
);
}
);
width = 1200;
},
{
layerId = m008;
paths = (
{
closed = 1;
nodes = (
"706 190 LINE",
"706 1228 LINE",
"494 1228 LINE",
"494 190 LINE"
);
},
{
closed = 1;
nodes = (
"1100 617 LINE",
"1100 803 LINE",
"100 803 LINE",
"100 617 LINE"
);
}
);
width = 1200;
},
{
layerId = m009;
paths = (
{
closed = 1;
nodes = (
"734 190 LINE",
"734 1228 LINE",
"466 1228 LINE",
"466 190 LINE"
);
},
{
closed = 1;
nodes = (
"1100 584 LINE",
"1100 834 LINE",
"100 834 LINE",
"100 584 LINE"
);
}
);
width = 1200;
},
{
layerId = "8A5928CE-31B2-4F56-BC21-FB6F481DC46A";
paths = (
{
closed = 1;
nodes = (
"543 190 LINE",
"543 1228 LINE",
"358 1228 LINE",
"358 190 LINE"
);
},
{
closed = 1;
nodes = (
"830 624 LINE",
"830 797 LINE",
"70 797 LINE",
"70 624 LINE"
);
}
);
width = 900;
},
{
layerId = "A3FCBCC7-55DF-4604-8A77-DC78C4EF6076";
paths = (
{
closed = 1;
nodes = (
"568 190 LINE",
"568 1228 LINE",
"332 1228 LINE",
"332 190 LINE"
);
},
{
closed = 1;
nodes = (
"830 592 LINE",
"830 827 LINE",
"70 827 LINE",
"70 592 LINE"
);
}
);
width = 900;
},
{
layerId = "4AED55CC-054D-4448-879E-1FE49A52CF83";
paths = (
{
closed = 1;
nodes = (
"497 190 LINE",
"497 1228 LINE",
"403 1228 LINE",
"403 190 LINE"
);
},
{
closed = 1;
nodes = (
"816 665 LINE",
"816 755 LINE",
"84 755 LINE",
"84 665 LINE"
);
}
);
width = 900;
}
);
unicode = 002B;
}
{
glyphname = slash;
layers = (
{
layerId = m007;
paths = (
{
closed = 1;
nodes = (
"266 -190 LINE",
"1136 1610 LINE",
"1038 1610 LINE",
"168 -190 LINE"
);
}
);
width = 1200;
},
{
layerId = m008;
paths = (
{
closed = 1;
nodes = (
"326 -190 LINE",
"1130 1610 LINE",
"918 1610 LINE",
"114 -190 LINE"
);
}
);
width = 1200;
},
{
layerId = m009;
paths = (
{
closed = 1;
nodes = (
"355 -190 LINE",
"1130 1610 LINE",
"855 1610 LINE",
"80 -190 LINE"
);
}
);
width = 1200;
},
{
layerId = "8A5928CE-31B2-4F56-BC21-FB6F481DC46A";
paths = (
{
closed = 1;
nodes = (
"251 -190 LINE",
"847 1610 LINE",
"666 1610 LINE",
"71 -190 LINE"
);
}
);
width = 900;
},
{
layerId = "A3FCBCC7-55DF-4604-8A77-DC78C4EF6076";
paths = (
{
closed = 1;
nodes = (
"279 -190 LINE",
"852 1610 LINE",
"614 1610 LINE",
"42 -190 LINE"
);
}
);
width = 900;
},
{
layerId = "4AED55CC-054D-4448-879E-1FE49A52CF83";
paths = (
{
closed = 1;
nodes = (
"207 -190 LINE",
"860 1610 LINE",
"766 1610 LINE",
"112 -190 LINE"
);
}
);
width = 900;
}
);
unicode = 002F;
}
{
glyphname = equal;
layers = (
{
layerId = m007;
paths = (
{
closed = 1;
nodes = (
"1076 914 LINE",
"1076 1004 LINE",
"124 1004 LINE",
"124 914 LINE"
);
},
{
closed = 1;
nodes = (
"1076 414 LINE",
"1076 504 LINE",
"124 504 LINE",
"124 414 LINE"
);
}
);
width = 1200;
},
{
layerId = m008;
paths = (
{
closed = 1;
nodes = (
"1100 866 LINE",
"1100 1052 LINE",
"100 1052 LINE",
"100 866 LINE"
);
},
{
closed = 1;
nodes = (
"1100 366 LINE",
"1100 552 LINE",
"100 552 LINE",
"100 366 LINE"
);
}
);
width = 1200;
},
{
layerId = m009;
paths = (
{
closed = 1;
nodes = (
"1117 835 LINE",
"1117 1085 LINE",
"83 1085 LINE",
"83 835 LINE"
);
},
{
closed = 1;
nodes = (
"1117 333 LINE",
"1117 583 LINE",
"83 583 LINE",
"83 333 LINE"
);
}
);
width = 1200;
},
{
layerId = "8A5928CE-31B2-4F56-BC21-FB6F481DC46A";
paths = (
{
closed = 1;
nodes = (
"830 873 LINE",
"830 1046 LINE",
"70 1046 LINE",
"70 873 LINE"
);
},
{
closed = 1;
nodes = (
"830 373 LINE",
"830 546 LINE",
"70 546 LINE",
"70 373 LINE"
);
}
);
width = 900;
},
{
layerId = "A3FCBCC7-55DF-4604-8A77-DC78C4EF6076";
paths = (
{
closed = 1;
nodes = (
"847 833 LINE",
"847 1068 LINE",
"53 1068 LINE",
"53 833 LINE"
);
},
{
closed = 1;
nodes = (
"847 351 LINE",
"847 586 LINE",
"53 586 LINE",
"53 351 LINE"
);
}
);
width = 900;
},
{
layerId = "4AED55CC-054D-4448-879E-1FE49A52CF83";
paths = (
{
closed = 1;
nodes = (
"816 894 LINE",
"816 984 LINE",
"84 984 LINE",
"84 894 LINE"
);
},
{
closed = 1;
nodes = (
"816 434 LINE",
"816 524 LINE",
"84 524 LINE",
"84 434 LINE"
);
}
);
width = 900;
}
);
unicode = 003D;
}
{
glyphname = greater;
layers = (
{
layerId = m007;
paths = (
{
closed = 1;
nodes = (
"1080 653 LINE",
"1080 765 LINE",
"170 1204 LINE",
"170 1104 LINE",
"1002 713 LINE",
"1002 705 LINE",
"170 314 LINE",
"170 214 LINE"
);
}
);
width = 1200;
},
{
layerId = m008;
paths = (
{
closed = 1;
nodes = (
"1104 608 LINE",
"1104 810 LINE",
"146 1204 LINE",
"146 984 LINE",
"846 718 LINE",
"846 700 LINE",
"146 434 LINE",
"146 214 LINE"
);
}
);
width = 1200;
},
{
layerId = m009;
paths = (
{
closed = 1;
nodes = (
"1137 575 LINE",
"1137 843 LINE",
"113 1221 LINE",
"113 951 LINE",
"863 718 LINE",
"863 700 LINE",
"113 467 LINE",
"113 197 LINE"
);
}
);
width = 1200;
},
{
layerId = "8A5928CE-31B2-4F56-BC21-FB6F481DC46A";
paths = (
{
closed = 1;
nodes = (
"827 613 LINE",
"827 805 LINE",
"109 1204 LINE",
"109 989 LINE",
"627 718 LINE",
"627 700 LINE",
"109 429 LINE",
"109 214 LINE"
);
}
);
width = 900;
},
{
layerId = "A3FCBCC7-55DF-4604-8A77-DC78C4EF6076";
paths = (
{
closed = 1;
nodes = (
"861 578 LINE",
"861 841 LINE",
"77 1219 LINE",
"77 951 LINE",
"625 718 LINE",
"625 700 LINE",
"77 467 LINE",
"77 200 LINE"
);
}
);
width = 900;
},
{
layerId = "4AED55CC-054D-4448-879E-1FE49A52CF83";
paths = (
{
closed = 1;
nodes = (
"814 653 LINE",
"814 765 LINE",
"124 1204 LINE",
"124 1094 LINE",
"738 713 LINE",
"738 705 LINE",
"124 324 LINE",
"124 214 LINE"
);
}
);
width = 900;
}
);
unicode = 003E;
}
{
glyphname = less;
layers = (
{
layerId = m007;
paths = (
{
closed = 1;
nodes = (
"1030 314 LINE",
"198 705 LINE",
"198 713 LINE",
"1030 1104 LINE",
"1030 1204 LINE",
"120 765 LINE",
"120 653 LINE",
"1030 214 LINE"
);
}
);
width = 1200;
},
{
layerId = m008;
paths = (
{
closed = 1;
nodes = (
"1054 434 LINE",
"314 700 LINE",
"314 718 LINE",
"1054 984 LINE",
"1054 1204 LINE",
"96 810 LINE",
"96 608 LINE",
"1054 214 LINE"
);
}
);
width = 1200;
},
{
layerId = m009;
paths = (
{
closed = 1;
nodes = (
"1087 467 LINE",
"331 700 LINE",
"331 718 LINE",
"1087 951 LINE",
"1087 1221 LINE",
"63 843 LINE",
"63 575 LINE",
"1087 197 LINE"
);
}
);
width = 1200;
},
{
layerId = "8A5928CE-31B2-4F56-BC21-FB6F481DC46A";
paths = (
{
closed = 1;
nodes = (
"791 429 LINE",
"254 700 LINE",
"254 718 LINE",
"791 989 LINE",
"791 1204 LINE",
"73 805 LINE",
"73 613 LINE",
"791 214 LINE"
);
}
);
width = 900;
},
{
layerId = "A3FCBCC7-55DF-4604-8A77-DC78C4EF6076";
paths = (
{
closed = 1;
nodes = (
"824 467 LINE",
"270 700 LINE",
"270 718 LINE",
"824 951 LINE",
"824 1219 LINE",
"40 841 LINE",
"40 578 LINE",
"824 200 LINE"
);
}
);
width = 900;
},
{
layerId = "4AED55CC-054D-4448-879E-1FE49A52CF83";
paths = (
{
closed = 1;
nodes = (
"777 324 LINE",
"163 705 LINE",
"163 713 LINE",
"777 1094 LINE",
"777 1204 LINE",
"87 765 LINE",
"87 653 LINE",
"777 214 LINE"
);
}
);
width = 900;
}
);
unicode = 003C;
}
{
glyphname = question;
layers = (
{
components = (
{
name = period;
transform = "{1, 0, 0, 1, -38, 0}";
}
);
layerId = m007;
paths = (
{
closed = 1;
nodes = (
"605 356 LINE",
"605 458 LINE SMOOTH",
"605 560 OFFCURVE",
"647 632 OFFCURVE",
"742 699 CURVE SMOOTH",
"910 818 OFFCURVE",
"982 934 OFFCURVE",
"982 1092 CURVE SMOOTH",
"982 1313 OFFCURVE",
"841 1440 OFFCURVE",
"596 1440 CURVE",
"594 1350 LINE",
"781 1350 OFFCURVE",
"888 1252 OFFCURVE",
"888 1082 CURVE SMOOTH",
"888 960 OFFCURVE",
"831 867 OFFCURVE",
"693 771 CURVE SMOOTH",
"567 683 OFFCURVE",
"511 594 OFFCURVE",
"511 472 CURVE SMOOTH",
"511 356 LINE"
);
},
{
closed = 1;
nodes = (
"336 1305 OFFCURVE",
"454 1350 OFFCURVE",
"594 1350 CURVE",
"596 1440 LINE",
"424 1440 OFFCURVE",
"288 1387 OFFCURVE",
"140 1261 CURVE",
"199 1198 LINE"
);
}
);
width = 1200;
},
{
components = (
{
name = period;
transform = "{1, 0, 0, 1, -38, 0}";
}
);
layerId = m008;
paths = (
{
closed = 1;
nodes = (
"656 456 LINE",
"656 538 LINE SMOOTH",
"656 616 OFFCURVE",
"698 682 OFFCURVE",
"786 739 CURVE SMOOTH",
"932 833 OFFCURVE",
"1006 954 OFFCURVE",
"1006 1102 CURVE SMOOTH",
"1006 1316 OFFCURVE",
"856 1440 OFFCURVE",
"596 1440 CURVE",
"594 1250 LINE",
"716 1250 OFFCURVE",
"786 1192 OFFCURVE",
"786 1092 CURVE SMOOTH",
"786 999 OFFCURVE",
"731 921 OFFCURVE",
"623 853 CURVE SMOOTH",
"515 785 OFFCURVE",
"460 685 OFFCURVE",
"460 552 CURVE SMOOTH",
"460 456 LINE"
);
},
{
closed = 1;
nodes = (
"339 1182 OFFCURVE",
"469 1250 OFFCURVE",
"594 1250 CURVE",
"596 1440 LINE",
"395 1440 OFFCURVE",
"209 1353 OFFCURVE",
"116 1221 CURVE",
"254 1078 LINE"
);
}
);
width = 1200;
},
{
components = (
{
alignment = -1;
name = period;
transform = "{1, 0, 0, 1, -38, 0}";
}
);
layerId = m009;
paths = (
{
closed = 1;
nodes = (
"689 489 LINE",
"689 526 LINE SMOOTH",
"689 609 OFFCURVE",
"719 663 OFFCURVE",
"786 706 CURVE SMOOTH",
"944 807 OFFCURVE",
"1023 942 OFFCURVE",
"1023 1102 CURVE SMOOTH",
"1023 1316 OFFCURVE",
"867 1440 OFFCURVE",
"596 1440 CURVE",
"577 1188 LINE",
"679 1188 OFFCURVE",
"736 1144 OFFCURVE",
"736 1067 CURVE SMOOTH",
"736 998 OFFCURVE",
"696 934 OFFCURVE",
"623 886 CURVE SMOOTH",
"491 799 OFFCURVE",
"427 710 OFFCURVE",
"427 573 CURVE SMOOTH",
"427 489 LINE"
);
},
{
closed = 1;
nodes = (
"322 1120 OFFCURVE",
"452 1188 OFFCURVE",
"577 1188 CURVE",
"596 1440 LINE",
"384 1440 OFFCURVE",
"189 1346 OFFCURVE",
"91 1204 CURVE",
"237 1016 LINE"
);
}
);
width = 1200;
},
{
components = (
{
alignment = -1;
name = period;
transform = "{1, 0, 0, 1, -22, 0}";
}
);
layerId = "8A5928CE-31B2-4F56-BC21-FB6F481DC46A";
paths = (
{
closed = 1;
nodes = (
"513 457 LINE",
"513 564 LINE SMOOTH",
"513 671 OFFCURVE",
"544 741 OFFCURVE",
"600 799 CURVE SMOOTH",
"695 902 OFFCURVE",
"756 1006 OFFCURVE",
"756 1143 CURVE SMOOTH",
"756 1332 OFFCURVE",
"643 1440 OFFCURVE",
"448 1440 CURVE",
"429 1260 LINE",
"517 1260 OFFCURVE",
"568 1214 OFFCURVE",
"568 1133 CURVE SMOOTH",
"568 1045 OFFCURVE",
"527 978 OFFCURVE",
"459 910 CURVE SMOOTH",
"383 824 OFFCURVE",
"338 728 OFFCURVE",
"338 588 CURVE SMOOTH",
"338 457 LINE"
);
},
{
closed = 1;
nodes = (
"257 1213 OFFCURVE",
"345 1260 OFFCURVE",
"429 1260 CURVE",
"448 1440 LINE",
"298 1440 OFFCURVE",
"162 1375 OFFCURVE",
"85 1257 CURVE",
"200 1134 LINE"
);
}
);
width = 900;
},
{
components = (
{
alignment = -1;
name = period;
transform = "{1, 0, 0, 1, -19, 0}";
}
);
layerId = "A3FCBCC7-55DF-4604-8A77-DC78C4EF6076";
paths = (
{
closed = 1;
nodes = (
"539 488 LINE",
"539 527 LINE SMOOTH",
"539 645 OFFCURVE",
"569 712 OFFCURVE",
"615 768 CURVE SMOOTH",
"718 890 OFFCURVE",
"779 1005 OFFCURVE",
"779 1143 CURVE SMOOTH",
"779 1332 OFFCURVE",
"658 1440 OFFCURVE",
"448 1440 CURVE",
"418 1199 LINE",
"490 1199 OFFCURVE",
"531 1159 OFFCURVE",
"531 1090 CURVE SMOOTH",
"531 1022 OFFCURVE",
"497 969 OFFCURVE",
"449 916 CURVE SMOOTH",
"359 816 OFFCURVE",
"311 719 OFFCURVE",
"311 568 CURVE SMOOTH",
"311 488 LINE"
);
},
{
closed = 1;
nodes = (
"249 1150 OFFCURVE",
"338 1199 OFFCURVE",
"418 1199 CURVE",
"448 1440 LINE",
"287 1440 OFFCURVE",
"140 1358 OFFCURVE",
"57 1233 CURVE",
"187 1067 LINE"
);
}
);
width = 900;
},
{
components = (
{
alignment = -1;
name = period;
transform = "{1, 0, 0, 1, -27, 0}";
}
);
layerId = "4AED55CC-054D-4448-879E-1FE49A52CF83";
paths = (
{
closed = 1;
nodes = (
"468 356 LINE",
"468 524 LINE SMOOTH",
"468 661 OFFCURVE",
"505 743 OFFCURVE",
"568 815 CURVE SMOOTH",
"673 926 OFFCURVE",
"734 1025 OFFCURVE",
"734 1163 CURVE SMOOTH",
"734 1339 OFFCURVE",
"629 1440 OFFCURVE",
"448 1440 CURVE",
"446 1350 LINE",
"569 1350 OFFCURVE",
"639 1278 OFFCURVE",
"639 1153 CURVE SMOOTH",
"639 1043 OFFCURVE",
"590 962 OFFCURVE",
"504 874 CURVE SMOOTH",
"419 777 OFFCURVE",
"374 685 OFFCURVE",
"374 548 CURVE SMOOTH",
"374 356 LINE"
);
},
{
closed = 1;
nodes = (
"271 1310 OFFCURVE",
"352 1350 OFFCURVE",
"446 1350 CURVE",
"448 1440 LINE",
"319 1440 OFFCURVE",
"213 1389 OFFCURVE",
"112 1266 CURVE",
"183 1213 LINE"
);
}
);
width = 900;
}
);
unicode = 003F;
}
{
glyphname = J;
layers = (
{
anchors = (
{
name = bottom;
position = "{600, 0}";
},
{
name = top;
position = "{790, 1420}";
}
);
layerId = m007;
paths = (
{
closed = 1;
nodes = (
"884 -20 OFFCURVE",
"1038 144 OFFCURVE",
"1038 476 CURVE SMOOTH",
"1038 1420 LINE",
"944 1420 LINE",
"944 476 LINE SMOOTH",
"944 205 OFFCURVE",
"823 70 OFFCURVE",
"579 70 CURVE SMOOTH",
"330 70 OFFCURVE",
"206 205 OFFCURVE",
"206 476 CURVE",
"110 476 LINE",
"110 144 OFFCURVE",
"264 -20 OFFCURVE",
"574 -20 CURVE SMOOTH"
);
},
{
closed = 1;
nodes = (
"996 1330 LINE",
"996 1420 LINE",
"490 1420 LINE",
"490 1330 LINE"
);
}
);
width = 1200;
},
{
anchors = (
{
name = bottom;
position = "{600, 0}";
},
{
name = top;
position = "{790, 1420}";
}
);
layerId = m008;
paths = (
{
closed = 1;
nodes = (
"880 -20 OFFCURVE",
"1062 161 OFFCURVE",
"1062 476 CURVE SMOOTH",
"1062 1420 LINE",
"854 1420 LINE",
"854 476 LINE SMOOTH",
"854 274 OFFCURVE",
"755 160 OFFCURVE",
"579 160 CURVE SMOOTH",
"397 160 OFFCURVE",
"294 276 OFFCURVE",
"294 476 CURVE",
"86 476 LINE",
"86 162 OFFCURVE",
"262 -20 OFFCURVE",
"574 -20 CURVE SMOOTH"
);
},
{
closed = 1;
nodes = (
"956 1230 LINE",
"956 1420 LINE",
"490 1420 LINE",
"490 1230 LINE"
);
}
);
width = 1200;
},
{
anchors = (
{
name = bottom;
position = "{600, 0}";
},
{
name = top;
position = "{790, 1420}";
}
);
layerId = m009;
paths = (
{
closed = 1;
nodes = (
"891 -20 OFFCURVE",
"1079 164 OFFCURVE",
"1079 484 CURVE SMOOTH",
"1079 1420 LINE",
"815 1420 LINE",
"815 484 LINE SMOOTH",
"815 322 OFFCURVE",
"730 231 OFFCURVE",
"579 231 CURVE SMOOTH",
"430 231 OFFCURVE",
"344 324 OFFCURVE",
"344 484 CURVE",
"69 484 LINE",
"69 165 OFFCURVE",
"251 -20 OFFCURVE",
"574 -20 CURVE SMOOTH"
);
},
{
closed = 1;
nodes = (
"956 1177 LINE",
"956 1420 LINE",
"490 1420 LINE",
"490 1177 LINE"
);
}
);
width = 1200;
},
{
anchors = (
{
name = bottom;
position = "{450, 0}";
},
{
name = top;
position = "{591, 1420}";
}
);
layerId = "8A5928CE-31B2-4F56-BC21-FB6F481DC46A";
paths = (
{
closed = 1;
nodes = (
"676 -20 OFFCURVE",
"799 120 OFFCURVE",
"799 421 CURVE SMOOTH",
"799 1420 LINE",
"616 1420 LINE",
"616 421 LINE SMOOTH",
"616 240 OFFCURVE",
"555 155 OFFCURVE",
"435 155 CURVE SMOOTH",
"310 155 OFFCURVE",
"246 241 OFFCURVE",
"246 421 CURVE",
"63 421 LINE",
"63 121 OFFCURVE",
"183 -20 OFFCURVE",
"431 -20 CURVE SMOOTH"
);
},
{
closed = 1;
nodes = (
"710 1245 LINE",
"710 1420 LINE",
"344 1420 LINE",
"344 1245 LINE"
);
}
);
width = 900;
},
{
anchors = (
{
name = bottom;
position = "{450, 0}";
},
{
name = top;
position = "{593, 1420}";
}
);
layerId = "A3FCBCC7-55DF-4604-8A77-DC78C4EF6076";
paths = (
{
closed = 1;
nodes = (
"694 -20 OFFCURVE",
"823 124 OFFCURVE",
"823 434 CURVE SMOOTH",
"823 1420 LINE",
"589 1420 LINE",
"589 434 LINE SMOOTH",
"589 288 OFFCURVE",
"538 221 OFFCURVE",
"437 221 CURVE SMOOTH",
"337 221 OFFCURVE",
"286 289 OFFCURVE",
"286 434 CURVE",
"46 434 LINE",
"46 125 OFFCURVE",
"171 -20 OFFCURVE",
"433 -20 CURVE SMOOTH"
);
},
{
closed = 1;
nodes = (
"718 1189 LINE",
"718 1420 LINE",
"318 1420 LINE",
"318 1189 LINE"
);
}
);
width = 900;
},
{
anchors = (
{
name = bottom;
position = "{450, 0}";
},
{
name = top;
position = "{590, 1420}";
}
);
layerId = "4AED55CC-054D-4448-879E-1FE49A52CF83";
paths = (
{
closed = 1;
nodes = (
"663 -20 OFFCURVE",
"780 118 OFFCURVE",
"780 390 CURVE SMOOTH",
"780 1420 LINE",
"686 1420 LINE",
"686 390 LINE SMOOTH",
"686 178 OFFCURVE",
"602 70 OFFCURVE",
"435 70 CURVE SMOOTH",
"264 70 OFFCURVE",
"177 178 OFFCURVE",
"177 390 CURVE",
"82 390 LINE",
"82 118 OFFCURVE",
"199 -20 OFFCURVE",
"431 -20 CURVE SMOOTH"
);
},
{
closed = 1;
nodes = (
"743 1330 LINE",
"743 1420 LINE",
"364 1420 LINE",
"364 1330 LINE"
);
}
);
width = 900;
}
);
unicode = 004A;
}
{
glyphname = K;
layers = (
{
anchors = (
{
name = bottom;
position = "{620, 0}";
},
{
name = top;
position = "{620, 1420}";
}
);
layerId = m007;
paths = (
{
closed = 1;
nodes = (
"770 492 OFFCURVE",
"1070 830 OFFCURVE",
"1070 1420 CURVE",
"974 1420 LINE",
"974 887 OFFCURVE",
"715 582 OFFCURVE",
"258 582 CURVE",
"240 492 LINE"
);
},
{
closed = 1;
nodes = (
"1138 0 LINE",
"782 710 LINE",
"700 650 LINE",
"1026 0 LINE"
);
},
{
closed = 1;
nodes = (
"268 0 LINE",
"268 1420 LINE",
"174 1420 LINE",
"174 0 LINE"
);
}
);
width = 1200;
},
{
anchors = (
{
name = bottom;
position = "{620, 0}";
},
{
name = top;
position = "{620, 1420}";
}
);
layerId = m008;
paths = (
{
closed = 1;
nodes = (
"794 452 OFFCURVE",
"1094 915 OFFCURVE",
"1094 1420 CURVE",
"888 1420 LINE",
"888 1029 OFFCURVE",
"704 650 OFFCURVE",
"294 650 CURVE",
"276 452 LINE"
);
},
{
closed = 1;
nodes = (
"1162 0 LINE",
"740 794 LINE",
"560 692 LINE",
"920 0 LINE"
);
},
{
closed = 1;
nodes = (
"358 0 LINE",
"358 1420 LINE",
"150 1420 LINE",
"150 0 LINE"
);
}
);
width = 1200;
},
{
anchors = (
{
name = bottom;
position = "{620, 0}";
},
{
name = top;
position = "{620, 1420}";
}
);
layerId = m009;
paths = (
{
closed = 1;
nodes = (
"805 452 OFFCURVE",
"1111 915 OFFCURVE",
"1111 1420 CURVE",
"843 1420 LINE",
"843 1063 OFFCURVE",
"673 717 OFFCURVE",
"294 717 CURVE",
"276 452 LINE"
);
},
{
closed = 1;
nodes = (
"1179 0 LINE",
"814 731 LINE",
"568 629 LINE",
"853 0 LINE"
);
},
{
closed = 1;
nodes = (
"397 0 LINE",
"397 1420 LINE",
"133 1420 LINE",
"133 0 LINE"
);
}
);
width = 1200;
},
{
anchors = (
{
name = bottom;
position = "{465, 0}";
},
{
name = top;
position = "{465, 1420}";
}
);
layerId = "8A5928CE-31B2-4F56-BC21-FB6F481DC46A";
paths = (
{
closed = 1;
nodes = (
"628 476 OFFCURVE",
"827 826 OFFCURVE",
"827 1420 CURVE",
"645 1420 LINE",
"645 942 OFFCURVE",
"525 655 OFFCURVE",
"239 655 CURVE",
"226 476 LINE"
);
},
{
closed = 1;
nodes = (
"878 0 LINE",
"580 745 LINE",
"426 643 LINE",
"675 0 LINE"
);
},
{
closed = 1;
nodes = (
"289 0 LINE",
"289 1420 LINE",
"106 1420 LINE",
"106 0 LINE"
);
}
);
width = 900;
},
{
anchors = (
{
name = bottom;
position = "{465, 0}";
},
{
name = top;
position = "{465, 1420}";
}
);
layerId = "A3FCBCC7-55DF-4604-8A77-DC78C4EF6076";
paths = (
{
closed = 1;
nodes = (
"638 462 OFFCURVE",
"844 829 OFFCURVE",
"844 1420 CURVE",
"608 1420 LINE",
"608 971 OFFCURVE",
"499 690 OFFCURVE",
"249 689 CURVE",
"241 462 LINE"
);
},
{
closed = 1;
nodes = (
"891 0 LINE",
"628 731 LINE",
"416 629 LINE",
"620 0 LINE"
);
},
{
closed = 1;
nodes = (
"324 0 LINE",
"324 1420 LINE",
"90 1420 LINE",
"90 0 LINE"
);
}
);
width = 900;
},
{
anchors = (
{
name = bottom;
position = "{465, 0}";
},
{
name = top;
position = "{465, 1420}";
}
);
layerId = "4AED55CC-054D-4448-879E-1FE49A52CF83";
paths = (
{
closed = 1;
nodes = (
"581 492 OFFCURVE",
"809 830 OFFCURVE",
"809 1420 CURVE",
"714 1420 LINE",
"714 887 OFFCURVE",
"529 582 OFFCURVE",
"194 582 CURVE",
"180 492 LINE"
);
},
{
closed = 1;
nodes = (
"859 0 LINE",
"577 710 LINE",
"500 650 LINE",
"756 0 LINE"
);
},
{
closed = 1;
nodes = (
"219 0 LINE",
"219 1420 LINE",
"125 1420 LINE",
"125 0 LINE"
);
}
);
width = 900;
}
);
unicode = 004B;
}
{
glyphname = L;
layers = (
{
anchors = (
{
name = bottom;
position = "{620, 0}";
},
{
name = center;
position = "{600, 710}";
},
{
name = top;
position = "{229, 1420}";
},
{
name = topright;
position = "{1180, 1420}";
}
);
layerId = m007;
paths = (
{
closed = 1;
nodes = (
"278 0 LINE",
"278 1420 LINE",
"184 1420 LINE",
"184 0 LINE"
);
},
{
closed = 1;
nodes = (
"1076 0 LINE",
"1076 90 LINE",
"184 90 LINE",
"184 0 LINE"
);
}
);
width = 1200;
},
{
anchors = (
{
name = bottom;
position = "{620, 0}";
},
{
name = center;
position = "{600, 710}";
},
{
name = top;
position = "{264, 1420}";
},
{
name = topright;
position = "{1180, 1420}";
}
);
layerId = m008;
paths = (
{
closed = 1;
nodes = (
"368 0 LINE",
"368 1420 LINE",
"160 1420 LINE",
"160 0 LINE"
);
},
{
closed = 1;
nodes = (
"1100 0 LINE",
"1100 190 LINE",
"160 190 LINE",
"160 0 LINE"
);
}
);
width = 1200;
},
{
anchors = (
{
name = bottom;
position = "{620, 0}";
},
{
name = center;
position = "{600, 710}";
},
{
name = top;
position = "{275, 1420}";
},
{
name = topright;
position = "{1180, 1420}";
}
);
layerId = m009;
paths = (
{
closed = 1;
nodes = (
"407 0 LINE",
"407 1420 LINE",
"143 1420 LINE",
"143 0 LINE"
);
},
{
closed = 1;
nodes = (
"1117 0 LINE",
"1117 243 LINE",
"143 243 LINE",
"143 0 LINE"
);
}
);
width = 1200;
},
{
anchors = (
{
name = bottom;
position = "{465, 0}";
},
{
name = center;
position = "{450, 710}";
},
{
name = top;
position = "{207, 1420}";
},
{
name = topright;
position = "{873, 1420}";
}
);
layerId = "8A5928CE-31B2-4F56-BC21-FB6F481DC46A";
paths = (
{
closed = 1;
nodes = (
"298 0 LINE",
"298 1420 LINE",
"115 1420 LINE",
"115 0 LINE"
);
},
{
closed = 1;
nodes = (
"822 0 LINE",
"822 175 LINE",
"115 175 LINE",
"115 0 LINE"
);
}
);
width = 900;
},
{
anchors = (
{
name = bottom;
position = "{465, 0}";
},
{
name = center;
position = "{450, 710}";
},
{
name = top;
position = "{222, 1420}";
},
{
name = topright;
position = "{879, 1420}";
}
);
layerId = "A3FCBCC7-55DF-4604-8A77-DC78C4EF6076";
paths = (
{
closed = 1;
nodes = (
"340 0 LINE",
"340 1420 LINE",
"105 1420 LINE",
"105 0 LINE"
);
},
{
closed = 1;
nodes = (
"839 0 LINE",
"839 232 LINE",
"105 232 LINE",
"105 0 LINE"
);
}
);
width = 900;
},
{
anchors = (
{
name = bottom;
position = "{465, 0}";
},
{
name = center;
position = "{450, 710}";
},
{
name = top;
position = "{182, 1420}";
},
{
name = topright;
position = "{871, 1420}";
}
);
layerId = "4AED55CC-054D-4448-879E-1FE49A52CF83";
paths = (
{
closed = 1;
nodes = (
"235 0 LINE",
"235 1420 LINE",
"141 1420 LINE",
"141 0 LINE"
);
},
{
closed = 1;
nodes = (
"803 0 LINE",
"803 90 LINE",
"141 90 LINE",
"141 0 LINE"
);
}
);
width = 900;
}
);
unicode = 004C;
}
{
glyphname = M;
layers = (
{
anchors = (
{
name = bottom;
position = "{600, 0}";
},
{
name = top;
position = "{600, 1420}";
}
);
layerId = m007;
paths = (
{
closed = 1;
nodes = (
"660 660 LINE",
"944 1332 LINE",
"986 1332 LINE",
"986 1420 LINE",
"886 1420 LINE",
"602 748 LINE",
"600 748 LINE",
"587 660 LINE"
);
},
{
closed = 1;
nodes = (
"246 0 LINE",
"246 1420 LINE",
"152 1420 LINE",
"152 0 LINE"
);
},
{
closed = 1;
nodes = (
"614 660 LINE",
"601 748 LINE",
"598 748 LINE",
"314 1420 LINE",
"232 1420 LINE",
"232 1332 LINE",
"256 1332 LINE",
"540 660 LINE"
);
},
{
closed = 1;
nodes = (
"1048 0 LINE",
"1048 1420 LINE",
"954 1420 LINE",
"954 0 LINE"
);
}
);
width = 1200;
},
{
anchors = (
{
name = bottom;
position = "{600, 0}";
},
{
name = top;
position = "{600, 1420}";
}
);
layerId = m008;
paths = (
{
closed = 1;
nodes = (
"692 580 LINE",
"846 1168 LINE",
"904 1168 LINE",
"904 1420 LINE",
"762 1420 LINE",
"608 810 LINE",
"596 810 LINE",
"566 580 LINE"
);
},
{
closed = 1;
nodes = (
"328 0 LINE",
"328 1420 LINE",
"128 1420 LINE",
"128 0 LINE"
);
},
{
closed = 1;
nodes = (
"620 580 LINE",
"600 810 LINE",
"592 810 LINE",
"438 1420 LINE",
"296 1420 LINE",
"296 1168 LINE",
"354 1168 LINE",
"508 580 LINE"
);
},
{
closed = 1;
nodes = (
"1072 0 LINE",
"1072 1420 LINE",
"872 1420 LINE",
"872 0 LINE"
);
}
);
width = 1200;
},
{
anchors = (
{
name = bottom;
position = "{600, 0}";
},
{
name = top;
position = "{600, 1420}";
}
);
layerId = m009;
paths = (
{
closed = 1;
nodes = (
"692 497 LINE",
"812 1168 LINE",
"875 1168 LINE",
"859 1420 LINE",
"712 1420 LINE",
"608 785 LINE",
"596 785 LINE",
"566 497 LINE"
);
},
{
closed = 1;
nodes = (
"357 0 LINE",
"357 1420 LINE",
"111 1420 LINE",
"111 0 LINE"
);
},
{
closed = 1;
nodes = (
"628 497 LINE",
"600 785 LINE",
"592 785 LINE",
"488 1420 LINE",
"341 1420 LINE",
"325 1168 LINE",
"388 1168 LINE",
"508 497 LINE"
);
},
{
closed = 1;
nodes = (
"1089 0 LINE",
"1089 1420 LINE",
"843 1420 LINE",
"843 0 LINE"
);
}
);
width = 1200;
},
{
anchors = (
{
name = bottom;
position = "{450, 0}";
},
{
name = top;
position = "{450, 1420}";
}
);
layerId = "8A5928CE-31B2-4F56-BC21-FB6F481DC46A";
paths = (
{
closed = 1;
nodes = (
"525 580 LINE",
"623 1214 LINE",
"668 1214 LINE",
"663 1420 LINE",
"555 1420 LINE",
"457 775 LINE",
"447 775 LINE",
"423 580 LINE"
);
},
{
closed = 1;
nodes = (
"255 0 LINE",
"255 1420 LINE",
"89 1420 LINE",
"89 0 LINE"
);
},
{
closed = 1;
nodes = (
"468 580 LINE",
"450 775 LINE",
"444 775 LINE",
"346 1420 LINE",
"236 1420 LINE",
"230 1214 LINE",
"278 1214 LINE",
"375 580 LINE"
);
},
{
closed = 1;
nodes = (
"811 0 LINE",
"811 1420 LINE",
"645 1420 LINE",
"645 0 LINE"
);
}
);
width = 900;
},
{
anchors = (
{
name = bottom;
position = "{450, 0}";
},
{
name = top;
position = "{450, 1420}";
}
);
layerId = "A3FCBCC7-55DF-4604-8A77-DC78C4EF6076";
paths = (
{
closed = 1;
nodes = (
"524 497 LINE",
"596 1184 LINE",
"646 1184 LINE",
"646 1420 LINE",
"525 1420 LINE",
"459 730 LINE",
"443 730 LINE",
"407 497 LINE"
);
},
{
closed = 1;
nodes = (
"278 0 LINE",
"278 1420 LINE",
"66 1420 LINE",
"66 0 LINE"
);
},
{
closed = 1;
nodes = (
"463 497 LINE",
"455 730 LINE",
"441 730 LINE",
"376 1420 LINE",
"266 1420 LINE",
"247 1184 LINE",
"300 1184 LINE",
"377 497 LINE"
);
},
{
closed = 1;
nodes = (
"834 0 LINE",
"834 1420 LINE",
"622 1420 LINE",
"622 0 LINE"
);
}
);
width = 900;
},
{
anchors = (
{
name = bottom;
position = "{450, 0}";
},
{
name = top;
position = "{450, 1420}";
}
);
layerId = "4AED55CC-054D-4448-879E-1FE49A52CF83";
paths = (
{
closed = 1;
nodes = (
"505 660 LINE",
"680 1332 LINE",
"717 1332 LINE",
"717 1420 LINE",
"625 1420 LINE",
"452 748 LINE",
"450 748 LINE",
"439 660 LINE"
);
},
{
closed = 1;
nodes = (
"206 0 LINE",
"206 1420 LINE",
"112 1420 LINE",
"112 0 LINE"
);
},
{
closed = 1;
nodes = (
"461 660 LINE",
"451 748 LINE",
"448 748 LINE",
"275 1420 LINE",
"194 1420 LINE",
"194 1332 LINE",
"220 1332 LINE",
"391 660 LINE"
);
},
{
closed = 1;
nodes = (
"788 0 LINE",
"788 1420 LINE",
"694 1420 LINE",
"694 0 LINE"
);
}
);
width = 900;
}
);
unicode = 004D;
}
{
glyphname = N;
layers = (
{
anchors = (
{
name = bottom;
position = "{600, 0}";
},
{
name = top;
position = "{600, 1420}";
}
);
layerId = m007;
paths = (
{
closed = 1;
nodes = (
"969 0 LINE",
"969 88 LINE",
"927 88 LINE",
"333 1420 LINE",
"215 1420 LINE",
"215 1332 LINE",
"274 1332 LINE",
"868 0 LINE"
);
},
{
closed = 1;
nodes = (
"266 0 LINE",
"266 1420 LINE",
"172 1420 LINE",
"172 0 LINE"
);
},
{
closed = 1;
nodes = (
"1028 0 LINE",
"1028 1420 LINE",
"934 1420 LINE",
"934 0 LINE"
);
}
);
width = 1200;
},
{
anchors = (
{
name = bottom;
position = "{600, 0}";
},
{
name = top;
position = "{600, 1420}";
}
);
annotations = (
{
position = "{603.456, 1706.061}";
text = "vertical stems feel light. Maybe need a little boost? (see D)";
type = Text;
}
);
layerId = m008;
paths = (
{
closed = 1;
nodes = (
"874 0 LINE",
"874 340 LINE",
"824 340 LINE",
"416 1420 LINE",
"284 1420 LINE",
"284 1080 LINE",
"376 1080 LINE",
"784 0 LINE"
);
},
{
closed = 1;
nodes = (
"356 0 LINE",
"356 1420 LINE",
"148 1420 LINE",
"148 0 LINE"
);
},
{
closed = 1;
nodes = (
"1052 0 LINE",
"1052 1420 LINE",
"844 1420 LINE",
"844 0 LINE"
);
}
);
width = 1200;
},
{
anchors = (
{
name = bottom;
position = "{600, 0}";
},
{
name = top;
position = "{600, 1420}";
}
);
layerId = m009;
paths = (
{
closed = 1;
nodes = (
"845 0 LINE",
"845 310 LINE",
"778 310 LINE",
"528 1420 LINE",
"313 1420 LINE",
"313 1110 LINE",
"422 1110 LINE",
"672 0 LINE"
);
},
{
closed = 1;
nodes = (
"385 0 LINE",
"385 1420 LINE",
"131 1420 LINE",
"131 0 LINE"
);
},
{
closed = 1;
nodes = (
"1069 0 LINE",
"1069 1420 LINE",
"815 1420 LINE",
"815 0 LINE"
);
}
);
width = 1200;
},
{
anchors = (
{
name = bottom;
position = "{450, 0}";
},
{
name = top;
position = "{450, 1420}";
}
);
layerId = "8A5928CE-31B2-4F56-BC21-FB6F481DC46A";
paths = (
{
closed = 1;
nodes = (
"640 0 LINE",
"640 250 LINE",
"598 250 LINE",
"353 1420 LINE",
"227 1420 LINE",
"227 1170 LINE",
"302 1170 LINE",
"548 0 LINE"
);
},
{
closed = 1;
nodes = (
"281 0 LINE",
"281 1420 LINE",
"109 1420 LINE",
"109 0 LINE"
);
},
{
closed = 1;
nodes = (
"791 0 LINE",
"791 1420 LINE",
"620 1420 LINE",
"620 0 LINE"
);
}
);
width = 900;
},
{
anchors = (
{
name = bottom;
position = "{450, 0}";
},
{
name = top;
position = "{450, 1420}";
}
);
layerId = "A3FCBCC7-55DF-4604-8A77-DC78C4EF6076";
paths = (
{
closed = 1;
nodes = (
"608 0 LINE",
"608 265 LINE",
"555 265 LINE",
"421 1420 LINE",
"257 1420 LINE",
"257 1155 LINE",
"345 1155 LINE",
"485 0 LINE"
);
},
{
closed = 1;
nodes = (
"313 0 LINE",
"313 1420 LINE",
"101 1420 LINE",
"101 0 LINE"
);
},
{
closed = 1;
nodes = (
"799 0 LINE",
"799 1420 LINE",
"587 1420 LINE",
"587 0 LINE"
);
}
);
width = 900;
},
{
anchors = (
{
name = bottom;
position = "{450, 0}";
},
{
name = top;
position = "{450, 1420}";
}
);
layerId = "4AED55CC-054D-4448-879E-1FE49A52CF83";
paths = (
{
closed = 1;
nodes = (
"699 0 LINE",
"699 88 LINE",
"663 88 LINE",
"301 1420 LINE",
"187 1420 LINE",
"187 1332 LINE",
"238 1332 LINE",
"601 0 LINE"
);
},
{
closed = 1;
nodes = (
"226 0 LINE",
"226 1420 LINE",
"132 1420 LINE",
"132 0 LINE"
);
},
{
closed = 1;
nodes = (
"768 0 LINE",
"768 1420 LINE",
"674 1420 LINE",
"674 0 LINE"
);
}
);
width = 900;
}
);
unicode = 004E;
}
{
glyphname = O;
layers = (
{
anchors = (
{
name = bottom;
position = "{600, 0}";
},
{
name = center;
position = "{600, 710}";
},
{
name = ogonek;
position = "{599, 10}";
},
{
name = top;
position = "{600, 1420}";
},
{
name = topleft;
position = "{20, 1420}";
},
{
name = topright;
position = "{1180, 1420}";
}
);
layerId = m007;
paths = (
{
closed = 1;
nodes = (
"932 -20 OFFCURVE",
"1100 218 OFFCURVE",
"1100 700 CURVE SMOOTH",
"1100 1194 OFFCURVE",
"932 1440 OFFCURVE",
"600 1440 CURVE SMOOTH",
"268 1440 OFFCURVE",
"100 1194 OFFCURVE",
"100 700 CURVE SMOOTH",
"100 218 OFFCURVE",
"268 -20 OFFCURVE",
"600 -20 CURVE SMOOTH"
);
},
{
closed = 1;
nodes = (
"331 70 OFFCURVE",
"196 280 OFFCURVE",
"196 700 CURVE SMOOTH",
"196 1135 OFFCURVE",
"331 1350 OFFCURVE",
"600 1350 CURVE SMOOTH",
"869 1350 OFFCURVE",
"1004 1135 OFFCURVE",
"1004 700 CURVE SMOOTH",
"1004 280 OFFCURVE",
"869 70 OFFCURVE",
"600 70 CURVE SMOOTH"
);
}
);
width = 1200;
},
{
anchors = (
{
name = bottom;
position = "{600, 0}";
},
{
name = center;
position = "{600, 710}";
},
{
name = ogonek;
position = "{1080, 10}";
},
{
name = top;
position = "{600, 1420}";
},
{
name = topleft;
position = "{20, 1420}";
},
{
name = topright;
position = "{1180, 1420}";
}
);
guideLines = (
{
angle = 90;
position = "{1124, 1269}";
}
);
layerId = m008;
paths = (
{
closed = 1;
nodes = (
"948 -20 OFFCURVE",
"1124 218 OFFCURVE",
"1124 700 CURVE SMOOTH",
"1124 1194 OFFCURVE",
"948 1440 OFFCURVE",
"600 1440 CURVE SMOOTH",
"252 1440 OFFCURVE",
"76 1194 OFFCURVE",
"76 700 CURVE SMOOTH",
"76 218 OFFCURVE",
"252 -20 OFFCURVE",
"600 -20 CURVE SMOOTH"
);
},
{
closed = 1;
nodes = (
"394 164 OFFCURVE",
"290 342 OFFCURVE",
"290 700 CURVE SMOOTH",
"290 1072 OFFCURVE",
"394 1256 OFFCURVE",
"600 1256 CURVE SMOOTH",
"806 1256 OFFCURVE",
"910 1072 OFFCURVE",
"910 700 CURVE SMOOTH",
"910 342 OFFCURVE",
"806 164 OFFCURVE",
"600 164 CURVE SMOOTH"
);
}
);
width = 1200;
},
{
anchors = (
{
name = bottom;
position = "{600, 0}";
},
{
name = center;
position = "{600, 710}";
},
{
name = ogonek;
position = "{1080, 10}";
},
{
name = top;
position = "{600, 1420}";
},
{
name = topleft;
position = "{20, 1420}";
},
{
name = topright;
position = "{1180, 1420}";
}
);
layerId = m009;
paths = (
{
closed = 1;
nodes = (
"959 -20 OFFCURVE",
"1141 218 OFFCURVE",
"1141 700 CURVE SMOOTH",
"1141 1194 OFFCURVE",
"959 1440 OFFCURVE",
"600 1440 CURVE SMOOTH",
"241 1440 OFFCURVE",
"59 1194 OFFCURVE",
"59 700 CURVE SMOOTH",
"59 218 OFFCURVE",
"241 -20 OFFCURVE",
"600 -20 CURVE SMOOTH"
);
},
{
closed = 1;
nodes = (
"424 232 OFFCURVE",
"336 387 OFFCURVE",
"336 700 CURVE SMOOTH",
"336 1026 OFFCURVE",
"424 1188 OFFCURVE",
"600 1188 CURVE SMOOTH",
"776 1188 OFFCURVE",
"864 1026 OFFCURVE",
"864 700 CURVE SMOOTH",
"864 387 OFFCURVE",
"776 232 OFFCURVE",
"600 232 CURVE SMOOTH"
);
}
);
width = 1200;
},
{
anchors = (
{
name = bottom;
position = "{450, 0}";
},
{
name = center;
position = "{450, 710}";
},
{
name = ogonek;
position = "{846, 10}";
},
{
name = top;
position = "{450, 1420}";
},
{
name = topleft;
position = "{11, 1420}";
},
{
name = topright;
position = "{890, 1420}";
}
);
layerId = "8A5928CE-31B2-4F56-BC21-FB6F481DC46A";
paths = (
{
closed = 1;
nodes = (
"721 -20 OFFCURVE",
"842 192 OFFCURVE",
"842 700 CURVE SMOOTH",
"842 1222 OFFCURVE",
"721 1440 OFFCURVE",
"450 1440 CURVE SMOOTH",
"180 1440 OFFCURVE",
"58 1222 OFFCURVE",
"58 700 CURVE SMOOTH",
"58 192 OFFCURVE",
"180 -20 OFFCURVE",
"450 -20 CURVE SMOOTH"
);
},
{
closed = 1;
nodes = (
"312 157 OFFCURVE",
"247 317 OFFCURVE",
"247 700 CURVE SMOOTH",
"247 1098 OFFCURVE",
"312 1263 OFFCURVE",
"450 1263 CURVE SMOOTH",
"589 1263 OFFCURVE",
"653 1098 OFFCURVE",
"653 700 CURVE SMOOTH",
"653 317 OFFCURVE",
"589 157 OFFCURVE",
"450 157 CURVE SMOOTH"
);
}
);
width = 900;
},
{
anchors = (
{
name = bottom;
position = "{450, 0}";
},
{
name = center;
position = "{450, 710}";
},
{
name = ogonek;
position = "{891, 10}";
},
{
name = top;
position = "{450, 1420}";
},
{
name = topleft;
position = "{6, 1420}";
},
{
name = topright;
position = "{895, 1420}";
}
);
layerId = "A3FCBCC7-55DF-4604-8A77-DC78C4EF6076";
paths = (
{
closed = 1;
nodes = (
"730 -20 OFFCURVE",
"861 202 OFFCURVE",
"861 700 CURVE SMOOTH",
"861 1212 OFFCURVE",
"730 1440 OFFCURVE",
"450 1440 CURVE SMOOTH",
"171 1440 OFFCURVE",
"40 1212 OFFCURVE",
"40 700 CURVE SMOOTH",
"40 202 OFFCURVE",
"171 -20 OFFCURVE",
"450 -20 CURVE SMOOTH"
);
},
{
closed = 1;
nodes = (
"337 221 OFFCURVE",
"283 369 OFFCURVE",
"283 700 CURVE SMOOTH",
"283 1045 OFFCURVE",
"337 1199 OFFCURVE",
"450 1199 CURVE SMOOTH",
"563 1199 OFFCURVE",
"617 1045 OFFCURVE",
"617 700 CURVE SMOOTH",
"617 369 OFFCURVE",
"563 221 OFFCURVE",
"450 221 CURVE SMOOTH"
);
}
);
width = 900;
},
{
anchors = (
{
name = bottom;
position = "{450, 0}";
},
{
name = center;
position = "{450, 710}";
},
{
name = ogonek;
position = "{495, 10}";
},
{
name = top;
position = "{450, 1420}";
},
{
name = topleft;
position = "{12, 1420}";
},
{
name = topright;
position = "{888, 1420}";
}
);
layerId = "4AED55CC-054D-4448-879E-1FE49A52CF83";
paths = (
{
closed = 1;
nodes = (
"706 -20 OFFCURVE",
"825 202 OFFCURVE",
"825 700 CURVE SMOOTH",
"825 1212 OFFCURVE",
"706 1440 OFFCURVE",
"450 1440 CURVE SMOOTH",
"195 1440 OFFCURVE",
"75 1212 OFFCURVE",
"75 700 CURVE SMOOTH",
"75 202 OFFCURVE",
"195 -20 OFFCURVE",
"450 -20 CURVE SMOOTH"
);
},
{
closed = 1;
nodes = (
"261 70 OFFCURVE",
"171 265 OFFCURVE",
"171 700 CURVE SMOOTH",
"171 1150 OFFCURVE",
"261 1350 OFFCURVE",
"450 1350 CURVE SMOOTH",
"640 1350 OFFCURVE",
"729 1150 OFFCURVE",
"729 700 CURVE SMOOTH",
"729 265 OFFCURVE",
"640 70 OFFCURVE",
"450 70 CURVE SMOOTH"
);
}
);
width = 900;
}
);
unicode = 004F;
}
{
glyphname = Z;
layers = (
{
anchors = (
{
name = bottom;
position = "{600, 0}";
},
{
name = center;
position = "{600, 710}";
},
{
name = top;
position = "{600, 1420}";
}
);
layerId = m007;
paths = (
{
closed = 1;
nodes = (
"1026 1330 LINE",
"954 1382 LINE",
"174 90 LINE",
"246 38 LINE"
);
},
{
closed = 1;
nodes = (
"1046 0 LINE",
"1046 90 LINE",
"174 90 LINE",
"174 0 LINE"
);
},
{
closed = 1;
nodes = (
"1026 1330 LINE",
"1026 1420 LINE",
"174 1420 LINE",
"174 1330 LINE"
);
}
);
width = 1200;
},
{
anchors = (
{
name = bottom;
position = "{600, 0}";
},
{
name = center;
position = "{600, 710}";
},
{
name = top;
position = "{600, 1420}";
}
);
layerId = m008;
paths = (
{
closed = 1;
nodes = (
"1050 1230 LINE",
"898 1362 LINE",
"150 190 LINE",
"302 68 LINE"
);
},
{
closed = 1;
nodes = (
"1070 0 LINE",
"1070 190 LINE",
"150 190 LINE",
"150 0 LINE"
);
},
{
closed = 1;
nodes = (
"1050 1230 LINE",
"1050 1420 LINE",
"150 1420 LINE",
"150 1230 LINE"
);
}
);
width = 1200;
},
{
anchors = (
{
name = bottom;
position = "{600, 0}";
},
{
name = center;
position = "{600, 710}";
},
{
name = top;
position = "{600, 1420}";
}
);
layerId = m009;
paths = (
{
closed = 1;
nodes = (
"1062 1177 LINE",
"885 1362 LINE",
"128 243 LINE",
"305 68 LINE"
);
},
{
closed = 1;
nodes = (
"1082 0 LINE",
"1082 243 LINE",
"128 243 LINE",
"128 0 LINE"
);
},
{
closed = 1;
nodes = (
"1062 1177 LINE",
"1062 1420 LINE",
"128 1420 LINE",
"128 1177 LINE"
);
}
);
width = 1200;
},
{
anchors = (
{
name = bottom;
position = "{450, 0}";
},
{
name = center;
position = "{450, 710}";
},
{
name = top;
position = "{450, 1420}";
}
);
layerId = "8A5928CE-31B2-4F56-BC21-FB6F481DC46A";
paths = (
{
closed = 1;
nodes = (
"781 1245 LINE",
"640 1362 LINE",
"115 175 LINE",
"257 68 LINE"
);
},
{
closed = 1;
nodes = (
"795 0 LINE",
"795 175 LINE",
"115 175 LINE",
"115 0 LINE"
);
},
{
closed = 1;
nodes = (
"781 1245 LINE",
"781 1420 LINE",
"115 1420 LINE",
"115 1245 LINE"
);
}
);
width = 900;
},
{
anchors = (
{
name = bottom;
position = "{450, 0}";
},
{
name = center;
position = "{450, 710}";
},
{
name = top;
position = "{450, 1420}";
}
);
layerId = "A3FCBCC7-55DF-4604-8A77-DC78C4EF6076";
paths = (
{
closed = 1;
nodes = (
"796 1189 LINE",
"633 1362 LINE",
"96 232 LINE",
"259 68 LINE"
);
},
{
closed = 1;
nodes = (
"810 0 LINE",
"810 232 LINE",
"96 232 LINE",
"96 0 LINE"
);
},
{
closed = 1;
nodes = (
"796 1189 LINE",
"796 1420 LINE",
"96 1420 LINE",
"96 1189 LINE"
);
}
);
width = 900;
},
{
anchors = (
{
name = bottom;
position = "{450, 0}";
},
{
name = center;
position = "{450, 710}";
},
{
name = top;
position = "{450, 1420}";
}
);
layerId = "4AED55CC-054D-4448-879E-1FE49A52CF83";
paths = (
{
closed = 1;
nodes = (
"769 1330 LINE",
"696 1382 LINE",
"131 90 LINE",
"204 38 LINE"
);
},
{
closed = 1;
nodes = (
"783 0 LINE",
"783 90 LINE",
"131 90 LINE",
"131 0 LINE"
);
},
{
closed = 1;
nodes = (
"769 1330 LINE",
"769 1420 LINE",
"131 1420 LINE",
"131 1330 LINE"
);
}
);
width = 900;
}
);
unicode = 005A;
}
{
glyphname = asciicircum;
layers = (
{
layerId = m007;
paths = (
{
closed = 1;
nodes = (
"330 820 LINE",
"596 1340 LINE",
"604 1340 LINE",
"870 820 LINE",
"971 820 LINE",
"661 1420 LINE",
"539 1420 LINE",
"229 820 LINE"
);
}
);
width = 1200;
},
{
layerId = m008;
paths = (
{
closed = 1;
nodes = (
"425 820 LINE",
"591 1260 LINE",
"609 1260 LINE",
"775 820 LINE",
"995 820 LINE",
"735 1420 LINE",
"465 1420 LINE",
"205 820 LINE"
);
}
);
width = 1200;
},
{
layerId = m009;
paths = (
{
closed = 1;
nodes = (
"442 820 LINE",
"591 1210 LINE",
"609 1210 LINE",
"758 820 LINE",
"1020 820 LINE",
"752 1420 LINE",
"448 1420 LINE",
"180 820 LINE"
);
}
);
width = 1200;
},
{
layerId = "8A5928CE-31B2-4F56-BC21-FB6F481DC46A";
paths = (
{
closed = 1;
nodes = (
"321 820 LINE",
"443 1260 LINE",
"457 1260 LINE",
"579 820 LINE",
"760 820 LINE",
"559 1420 LINE",
"342 1420 LINE",
"140 820 LINE"
);
}
);
width = 900;
},
{
layerId = "A3FCBCC7-55DF-4604-8A77-DC78C4EF6076";
paths = (
{
closed = 1;
nodes = (
"348 820 LINE",
"443 1205 LINE",
"458 1205 LINE",
"553 820 LINE",
"780 820 LINE",
"589 1420 LINE",
"312 1420 LINE",
"120 820 LINE"
);
}
);
width = 900;
},
{
layerId = "4AED55CC-054D-4448-879E-1FE49A52CF83";
paths = (
{
closed = 1;
nodes = (
"262 820 LINE",
"447 1340 LINE",
"454 1340 LINE",
"638 820 LINE",
"736 820 LINE",
"511 1420 LINE",
"390 1420 LINE",
"165 820 LINE"
);
}
);
width = 900;
}
);
unicode = 005E;
}
{
glyphname = bracketright;
layers = (
{
layerId = m007;
paths = (
{
closed = 1;
nodes = (
"804 -214 LINE",
"804 1634 LINE",
"710 1634 LINE",
"710 -214 LINE"
);
},
{
closed = 1;
nodes = (
"730 -214 LINE",
"730 -124 LINE",
"226 -124 LINE",
"226 -214 LINE"
);
},
{
closed = 1;
nodes = (
"730 1544 LINE",
"730 1634 LINE",
"226 1634 LINE",
"226 1544 LINE"
);
}
);
width = 1200;
},
{
layerId = m008;
paths = (
{
closed = 1;
nodes = (
"828 -214 LINE",
"828 1634 LINE",
"620 1634 LINE",
"620 -214 LINE"
);
},
{
closed = 1;
nodes = (
"640 -214 LINE",
"640 -24 LINE",
"202 -24 LINE",
"202 -214 LINE"
);
},
{
closed = 1;
nodes = (
"640 1444 LINE",
"640 1634 LINE",
"202 1634 LINE",
"202 1444 LINE"
);
}
);
width = 1200;
},
{
layerId = m009;
paths = (
{
closed = 1;
nodes = (
"845 -214 LINE",
"845 1634 LINE",
"579 1634 LINE",
"579 -214 LINE"
);
},
{
closed = 1;
nodes = (
"599 -214 LINE",
"599 38 LINE",
"185 38 LINE",
"185 -214 LINE"
);
},
{
closed = 1;
nodes = (
"599 1382 LINE",
"599 1634 LINE",
"185 1634 LINE",
"185 1382 LINE"
);
}
);
width = 1200;
},
{
layerId = "8A5928CE-31B2-4F56-BC21-FB6F481DC46A";
paths = (
{
closed = 1;
nodes = (
"619 -214 LINE",
"619 1634 LINE",
"436 1634 LINE",
"436 -214 LINE"
);
},
{
closed = 1;
nodes = (
"456 -214 LINE",
"456 -39 LINE",
"146 -39 LINE",
"146 -214 LINE"
);
},
{
closed = 1;
nodes = (
"456 1459 LINE",
"456 1634 LINE",
"146 1634 LINE",
"146 1459 LINE"
);
}
);
width = 900;
},
{
layerId = "A3FCBCC7-55DF-4604-8A77-DC78C4EF6076";
paths = (
{
closed = 1;
nodes = (
"648 -214 LINE",
"648 1634 LINE",
"412 1634 LINE",
"412 -214 LINE"
);
},
{
closed = 1;
nodes = (
"437 -214 LINE",
"437 22 LINE",
"138 22 LINE",
"138 -214 LINE"
);
},
{
closed = 1;
nodes = (
"437 1398 LINE",
"437 1634 LINE",
"138 1634 LINE",
"138 1398 LINE"
);
}
);
width = 900;
},
{
layerId = "4AED55CC-054D-4448-879E-1FE49A52CF83";
paths = (
{
closed = 1;
nodes = (
"606 -214 LINE",
"606 1634 LINE",
"512 1634 LINE",
"512 -214 LINE"
);
},
{
closed = 1;
nodes = (
"532 -214 LINE",
"532 -124 LINE",
"158 -124 LINE",
"158 -214 LINE"
);
},
{
closed = 1;
nodes = (
"532 1544 LINE",
"532 1634 LINE",
"158 1634 LINE",
"158 1544 LINE"
);
}
);
width = 900;
}
);
unicode = 005D;
}
{
glyphname = j;
layers = (
{
anchors = (
{
name = bottom;
position = "{558, -480}";
},
{
name = top;
position = "{798, 1480}";
}
);
layerId = m007;
paths = (
{
closed = 1;
nodes = (
"350 -468 LINE SMOOTH",
"712 -439 OFFCURVE",
"864 -284 OFFCURVE",
"864 94 CURVE SMOOTH",
"864 384 LINE",
"770 384 LINE",
"770 62 LINE SMOOTH",
"770 -227 OFFCURVE",
"652 -352 OFFCURVE",
"370 -378 CURVE SMOOTH",
"194 -394 LINE",
"198 -480 LINE"
);
},
{
closed = 1;
nodes = (
"864 350 LINE",
"864 1060 LINE",
"770 1060 LINE",
"770 350 LINE"
);
},
{
closed = 1;
nodes = (
"786 970 LINE",
"786 1060 LINE",
"282 1060 LINE",
"282 970 LINE"
);
},
{
closed = 1;
nodes = (
"853 1323 OFFCURVE",
"898 1367 OFFCURVE",
"898 1422 CURVE SMOOTH",
"898 1477 OFFCURVE",
"853 1522 OFFCURVE",
"798 1522 CURVE SMOOTH",
"743 1522 OFFCURVE",
"698 1477 OFFCURVE",
"698 1422 CURVE SMOOTH",
"698 1367 OFFCURVE",
"743 1323 OFFCURVE",
"798 1323 CURVE SMOOTH"
);
}
);
width = 1200;
},
{
anchors = (
{
name = bottom;
position = "{558, -480}";
},
{
name = top;
position = "{798, 1480}";
}
);
layerId = m008;
paths = (
{
closed = 1;
nodes = (
"350 -468 LINE SMOOTH",
"726 -441 OFFCURVE",
"888 -284 OFFCURVE",
"888 94 CURVE SMOOTH",
"888 384 LINE",
"676 384 LINE",
"676 62 LINE SMOOTH",
"676 -156 OFFCURVE",
"584 -255 OFFCURVE",
"370 -274 CURVE SMOOTH",
"170 -292 LINE",
"180 -480 LINE"
);
},
{
closed = 1;
nodes = (
"888 350 LINE",
"888 1060 LINE",
"676 1060 LINE",
"676 350 LINE"
);
},
{
closed = 1;
nodes = (
"692 874 LINE",
"692 1060 LINE",
"264 1060 LINE",
"264 874 LINE"
);
},
{
closed = 1;
nodes = (
"842 1228 OFFCURVE",
"908 1294 OFFCURVE",
"908 1376 CURVE SMOOTH",
"908 1458 OFFCURVE",
"842 1524 OFFCURVE",
"760 1524 CURVE SMOOTH",
"678 1524 OFFCURVE",
"612 1458 OFFCURVE",
"612 1376 CURVE SMOOTH",
"612 1294 OFFCURVE",
"678 1228 OFFCURVE",
"760 1228 CURVE SMOOTH"
);
}
);
width = 1200;
},
{
anchors = (
{
name = bottom;
position = "{558, -480}";
},
{
name = top;
position = "{798, 1480}";
}
);
layerId = m009;
paths = (
{
closed = 1;
nodes = (
"350 -468 LINE SMOOTH",
"738 -441 OFFCURVE",
"905 -284 OFFCURVE",
"905 94 CURVE SMOOTH",
"905 384 LINE",
"634 384 LINE",
"634 62 LINE SMOOTH",
"634 -113 OFFCURVE",
"555 -195 OFFCURVE",
"370 -207 CURVE SMOOTH",
"170 -220 LINE",
"180 -480 LINE"
);
},
{
closed = 1;
nodes = (
"905 350 LINE",
"905 1060 LINE",
"634 1060 LINE",
"634 350 LINE"
);
},
{
closed = 1;
nodes = (
"650 810 LINE",
"650 1060 LINE",
"264 1060 LINE",
"264 810 LINE"
);
},
{
closed = 1;
nodes = (
"855 1203 OFFCURVE",
"925 1273 OFFCURVE",
"925 1376 CURVE SMOOTH",
"925 1479 OFFCURVE",
"855 1549 OFFCURVE",
"752 1549 CURVE SMOOTH",
"649 1549 OFFCURVE",
"579 1479 OFFCURVE",
"579 1376 CURVE SMOOTH",
"579 1273 OFFCURVE",
"649 1203 OFFCURVE",
"752 1203 CURVE SMOOTH"
);
}
);
width = 1200;
},
{
anchors = (
{
name = bottom;
position = "{423, -480}";
},
{
name = top;
position = "{581, 1480}";
}
);
layerId = "8A5928CE-31B2-4F56-BC21-FB6F481DC46A";
paths = (
{
closed = 1;
nodes = (
"255 -469 LINE SMOOTH",
"554 -439 OFFCURVE",
"685 -286 OFFCURVE",
"685 94 CURVE SMOOTH",
"685 384 LINE",
"502 384 LINE",
"502 62 LINE SMOOTH",
"502 -159 OFFCURVE",
"434 -260 OFFCURVE",
"268 -283 CURVE SMOOTH",
"132 -301 LINE",
"139 -480 LINE"
);
},
{
closed = 1;
nodes = (
"685 350 LINE",
"685 1060 LINE",
"502 1060 LINE",
"502 350 LINE"
);
},
{
closed = 1;
nodes = (
"512 887 LINE",
"511 1060 LINE",
"195 1060 LINE",
"195 887 LINE"
);
},
{
closed = 1;
nodes = (
"650 1243 OFFCURVE",
"712 1305 OFFCURVE",
"712 1383 CURVE SMOOTH",
"712 1460 OFFCURVE",
"650 1522 OFFCURVE",
"572 1522 CURVE SMOOTH",
"495 1522 OFFCURVE",
"433 1460 OFFCURVE",
"433 1383 CURVE SMOOTH",
"433 1305 OFFCURVE",
"495 1243 OFFCURVE",
"572 1243 CURVE SMOOTH"
);
}
);
width = 900;
},
{
anchors = (
{
name = bottom;
position = "{422, -480}";
},
{
name = top;
position = "{583, 1480}";
}
);
layerId = "A3FCBCC7-55DF-4604-8A77-DC78C4EF6076";
paths = (
{
closed = 1;
nodes = (
"248 -468 LINE SMOOTH",
"570 -431 OFFCURVE",
"698 -288 OFFCURVE",
"698 64 CURVE SMOOTH",
"698 384 LINE",
"462 384 LINE",
"462 32 LINE SMOOTH",
"462 -139 OFFCURVE",
"405 -211 OFFCURVE",
"261 -226 CURVE SMOOTH",
"122 -240 LINE",
"130 -480 LINE"
);
},
{
closed = 1;
nodes = (
"698 350 LINE",
"698 1060 LINE",
"462 1060 LINE",
"462 350 LINE"
);
},
{
closed = 1;
nodes = (
"472 825 LINE",
"472 1060 LINE",
"186 1060 LINE",
"186 825 LINE"
);
},
{
closed = 1;
nodes = (
"656 1229 OFFCURVE",
"721 1294 OFFCURVE",
"721 1389 CURVE SMOOTH",
"721 1484 OFFCURVE",
"656 1549 OFFCURVE",
"561 1549 CURVE SMOOTH",
"465 1549 OFFCURVE",
"401 1484 OFFCURVE",
"401 1389 CURVE SMOOTH",
"401 1294 OFFCURVE",
"465 1229 OFFCURVE",
"561 1229 CURVE SMOOTH"
);
}
);
width = 900;
},
{
anchors = (
{
name = bottom;
position = "{423, -480}";
},
{
name = top;
position = "{598, 1480}";
}
);
layerId = "4AED55CC-054D-4448-879E-1FE49A52CF83";
paths = (
{
closed = 1;
nodes = (
"262 -468 LINE SMOOTH",
"541 -430 OFFCURVE",
"661 -311 OFFCURVE",
"661 -2 CURVE SMOOTH",
"661 384 LINE",
"566 384 LINE",
"566 -34 LINE SMOOTH",
"566 -258 OFFCURVE",
"474 -345 OFFCURVE",
"270 -377 CURVE SMOOTH",
"152 -394 LINE",
"161 -480 LINE"
);
},
{
closed = 1;
nodes = (
"661 350 LINE",
"661 1060 LINE",
"566 1060 LINE",
"566 350 LINE"
);
},
{
closed = 1;
nodes = (
"577 970 LINE",
"577 1060 LINE",
"215 1060 LINE",
"215 970 LINE"
);
},
{
closed = 1;
nodes = (
"651 1331 OFFCURVE",
"694 1373 OFFCURVE",
"694 1426 CURVE SMOOTH",
"694 1479 OFFCURVE",
"651 1522 OFFCURVE",
"598 1522 CURVE SMOOTH",
"545 1522 OFFCURVE",
"502 1479 OFFCURVE",
"502 1426 CURVE SMOOTH",
"502 1373 OFFCURVE",
"545 1331 OFFCURVE",
"598 1331 CURVE SMOOTH"
);
}
);
width = 900;
}
);
unicode = 006A;
}
{
glyphname = k;
layers = (
{
anchors = (
{
name = bottom;
position = "{620, 0}";
},
{
name = top;
position = "{229, 1500}";
}
);
layerId = m007;
paths = (
{
closed = 1;
nodes = (
"370 432 LINE SMOOTH",
"778 432 OFFCURVE",
"980 620 OFFCURVE",
"1048 1060 CURVE",
"948 1060 LINE",
"883 666 OFFCURVE",
"725 522 OFFCURVE",
"350 522 CURVE SMOOTH",
"212 522 LINE",
"212 432 LINE"
);
},
{
closed = 1;
nodes = (
"278 0 LINE",
"278 1500 LINE",
"184 1500 LINE",
"184 0 LINE"
);
},
{
closed = 1;
nodes = (
"1116 0 LINE",
"776 598 LINE",
"698 546 LINE",
"1001 0 LINE"
);
}
);
width = 1200;
},
{
anchors = (
{
name = bottom;
position = "{620, 0}";
},
{
name = top;
position = "{264, 1500}";
}
);
layerId = m008;
paths = (
{
closed = 1;
nodes = (
"480 402 LINE SMOOTH",
"822 402 OFFCURVE",
"1016 618 OFFCURVE",
"1072 1060 CURVE",
"852 1060 LINE",
"806 717 OFFCURVE",
"694 592 OFFCURVE",
"430 592 CURVE SMOOTH",
"310 592 LINE",
"310 402 LINE"
);
},
{
closed = 1;
nodes = (
"372 0 LINE",
"372 1500 LINE",
"160 1500 LINE",
"160 0 LINE"
);
},
{
closed = 1;
nodes = (
"1140 0 LINE",
"776 598 LINE",
"576 516 LINE",
"878 0 LINE"
);
}
);
width = 1200;
},
{
anchors = (
{
name = bottom;
position = "{620, 0}";
},
{
name = top;
position = "{278, 1500}";
}
);
layerId = m009;
paths = (
{
closed = 1;
nodes = (
"480 377 LINE SMOOTH",
"832 377 OFFCURVE",
"1031 601 OFFCURVE",
"1089 1060 CURVE",
"810 1060 LINE",
"769 748 OFFCURVE",
"668 634 OFFCURVE",
"430 634 CURVE SMOOTH",
"310 634 LINE",
"310 377 LINE"
);
},
{
closed = 1;
nodes = (
"414 0 LINE",
"414 1500 LINE",
"143 1500 LINE",
"143 0 LINE"
);
},
{
closed = 1;
nodes = (
"1157 0 LINE",
"818 598 LINE",
"576 516 LINE",
"836 0 LINE"
);
}
);
width = 1200;
},
{
anchors = (
{
name = bottom;
position = "{465, 0}";
},
{
name = top;
position = "{212, 1500}";
}
);
layerId = "8A5928CE-31B2-4F56-BC21-FB6F481DC46A";
paths = (
{
closed = 1;
nodes = (
"361 402 LINE SMOOTH",
"619 402 OFFCURVE",
"769 616 OFFCURVE",
"811 1060 CURVE",
"624 1060 LINE",
"593 707 OFFCURVE",
"515 582 OFFCURVE",
"336 582 CURVE SMOOTH",
"249 582 LINE",
"249 402 LINE"
);
},
{
closed = 1;
nodes = (
"305 0 LINE",
"305 1500 LINE",
"122 1500 LINE",
"122 0 LINE"
);
},
{
closed = 1;
nodes = (
"862 0 LINE",
"609 598 LINE",
"444 516 LINE",
"654 0 LINE"
);
}
);
width = 900;
},
{
anchors = (
{
name = bottom;
position = "{465, 0}";
},
{
name = top;
position = "{216, 1500}";
}
);
layerId = "A3FCBCC7-55DF-4604-8A77-DC78C4EF6076";
paths = (
{
closed = 1;
nodes = (
"378 377 LINE SMOOTH",
"633 377 OFFCURVE",
"782 602 OFFCURVE",
"824 1060 CURVE",
"584 1060 LINE",
"557 738 OFFCURVE",
"491 621 OFFCURVE",
"335 621 CURVE SMOOTH",
"248 621 LINE",
"248 377 LINE"
);
},
{
closed = 1;
nodes = (
"332 0 LINE",
"332 1500 LINE",
"97 1500 LINE",
"97 0 LINE"
);
},
{
closed = 1;
nodes = (
"875 0 LINE",
"620 598 LINE",
"413 516 LINE",
"600 0 LINE"
);
}
);
width = 900;
},
{
anchors = (
{
name = bottom;
position = "{465, 0}";
},
{
name = top;
position = "{189, 1500}";
}
);
layerId = "4AED55CC-054D-4448-879E-1FE49A52CF83";
paths = (
{
closed = 1;
nodes = (
"294 432 LINE SMOOTH",
"587 432 OFFCURVE",
"735 625 OFFCURVE",
"783 1060 CURVE",
"686 1060 LINE",
"642 666 OFFCURVE",
"533 522 OFFCURVE",
"276 522 CURVE SMOOTH",
"176 522 LINE",
"176 432 LINE"
);
},
{
closed = 1;
nodes = (
"237 0 LINE",
"237 1500 LINE",
"143 1500 LINE",
"143 0 LINE"
);
},
{
closed = 1;
nodes = (
"833 0 LINE",
"580 598 LINE",
"503 546 LINE",
"729 0 LINE"
);
}
);
width = 900;
}
);
unicode = 006B;
}
{
glyphname = l;
layers = (
{
anchors = (
{
name = bottom;
position = "{680, 0}";
},
{
name = center;
position = "{520, 784}";
},
{
name = top;
position = "{516, 1500}";
},
{
name = topright;
position = "{970, 1500}";
}
);
layerId = m007;
paths = (
{
closed = 1;
nodes = (
"908 -20 OFFCURVE",
"974 -11 OFFCURVE",
"1050 12 CURVE",
"1039 101 LINE",
"956 81 OFFCURVE",
"895 72 OFFCURVE",
"838 72 CURVE SMOOTH",
"654 72 OFFCURVE",
"563 164 OFFCURVE",
"563 350 CURVE SMOOTH",
"563 1500 LINE",
"469 1500 LINE",
"469 350 LINE SMOOTH",
"469 103 OFFCURVE",
"588 -20 OFFCURVE",
"828 -20 CURVE SMOOTH"
);
},
{
closed = 1;
nodes = (
"487 1410 LINE",
"487 1500 LINE",
"122 1500 LINE",
"122 1410 LINE"
);
}
);
width = 1200;
},
{
anchors = (
{
name = bottom;
position = "{680, 0}";
},
{
name = center;
position = "{520, 784}";
},
{
name = top;
position = "{516, 1500}";
},
{
name = topright;
position = "{970, 1500}";
}
);
layerId = m008;
paths = (
{
closed = 1;
nodes = (
"872 -20 OFFCURVE",
"966 -8 OFFCURVE",
"1074 22 CURVE",
"1050 208 LINE",
"962 182 OFFCURVE",
"898 170 OFFCURVE",
"838 170 CURVE SMOOTH",
"656 170 OFFCURVE",
"622 242 OFFCURVE",
"622 410 CURVE SMOOTH",
"622 1500 LINE",
"410 1500 LINE",
"410 400 LINE SMOOTH",
"410 106 OFFCURVE",
"512 -20 OFFCURVE",
"758 -20 CURVE SMOOTH"
);
},
{
closed = 1;
nodes = (
"428 1314 LINE",
"428 1500 LINE",
"98 1500 LINE",
"98 1314 LINE"
);
}
);
width = 1200;
},
{
anchors = (
{
name = bottom;
position = "{680, 0}";
},
{
name = center;
position = "{520, 784}";
},
{
name = top;
position = "{516, 1500}";
},
{
name = topright;
position = "{970, 1500}";
}
);
layerId = m009;
paths = (
{
closed = 1;
nodes = (
"878 -20 OFFCURVE",
"977 -8 OFFCURVE",
"1091 22 CURVE",
"1060 300 LINE",
"968 274 OFFCURVE",
"901 262 OFFCURVE",
"838 262 CURVE SMOOTH",
"680 262 OFFCURVE",
"651 319 OFFCURVE",
"651 452 CURVE SMOOTH",
"651 1500 LINE",
"381 1500 LINE",
"381 442 LINE SMOOTH",
"381 119 OFFCURVE",
"491 -20 OFFCURVE",
"758 -20 CURVE SMOOTH"
);
},
{
closed = 1;
nodes = (
"399 1251 LINE",
"399 1500 LINE",
"81 1500 LINE",
"81 1251 LINE"
);
}
);
width = 1200;
},
{
anchors = (
{
name = bottom;
position = "{509, 0}";
},
{
name = center;
position = "{391, 784}";
},
{
name = top;
position = "{388, 1500}";
},
{
name = topright;
position = "{723, 1500}";
}
);
layerId = "8A5928CE-31B2-4F56-BC21-FB6F481DC46A";
paths = (
{
closed = 1;
nodes = (
"656 -20 OFFCURVE",
"727 -11 OFFCURVE",
"808 12 CURVE",
"787 188 LINE",
"724 169 OFFCURVE",
"678 160 OFFCURVE",
"636 160 CURVE SMOOTH",
"512 160 OFFCURVE",
"480 223 OFFCURVE",
"480 365 CURVE SMOOTH",
"480 1500 LINE",
"297 1500 LINE",
"297 355 LINE SMOOTH",
"297 95 OFFCURVE",
"379 -20 OFFCURVE",
"571 -20 CURVE SMOOTH"
);
},
{
closed = 1;
nodes = (
"310 1327 LINE",
"310 1500 LINE",
"72 1500 LINE",
"72 1327 LINE"
);
}
);
width = 900;
},
{
anchors = (
{
name = bottom;
position = "{510, 0}";
},
{
name = center;
position = "{390, 784}";
},
{
name = top;
position = "{387, 1500}";
},
{
name = topright;
position = "{728, 1500}";
}
);
layerId = "A3FCBCC7-55DF-4604-8A77-DC78C4EF6076";
paths = (
{
closed = 1;
nodes = (
"659 -20 OFFCURVE",
"740 -10 OFFCURVE",
"825 12 CURVE",
"798 264 LINE",
"731 245 OFFCURVE",
"680 236 OFFCURVE",
"639 236 CURVE SMOOTH",
"535 236 OFFCURVE",
"507 280 OFFCURVE",
"507 375 CURVE SMOOTH",
"507 1500 LINE",
"272 1500 LINE",
"272 351 LINE SMOOTH",
"272 98 OFFCURVE",
"364 -20 OFFCURVE",
"568 -20 CURVE SMOOTH"
);
},
{
closed = 1;
nodes = (
"286 1266 LINE",
"286 1500 LINE",
"55 1500 LINE",
"55 1266 LINE"
);
}
);
width = 900;
},
{
anchors = (
{
name = bottom;
position = "{509, 0}";
},
{
name = center;
position = "{391, 784}";
},
{
name = top;
position = "{388, 1500}";
},
{
name = topright;
position = "{722, 1500}";
}
);
layerId = "4AED55CC-054D-4448-879E-1FE49A52CF83";
paths = (
{
closed = 1;
nodes = (
"672 -20 OFFCURVE",
"724 -13 OFFCURVE",
"784 7 CURVE",
"774 96 LINE",
"714 80 OFFCURVE",
"668 72 OFFCURVE",
"625 72 CURVE SMOOTH",
"499 72 OFFCURVE",
"436 149 OFFCURVE",
"436 300 CURVE SMOOTH",
"436 1500 LINE",
"341 1500 LINE",
"341 300 LINE SMOOTH",
"341 88 OFFCURVE",
"431 -20 OFFCURVE",
"611 -20 CURVE SMOOTH"
);
},
{
closed = 1;
nodes = (
"354 1410 LINE",
"354 1500 LINE",
"96 1500 LINE",
"96 1410 LINE"
);
}
);
width = 900;
}
);
unicode = 006C;
}
{
glyphname = m;
layers = (
{
anchors = (
{
name = bottom;
position = "{600, 0}";
},
{
name = top;
position = "{600, 1060}";
}
);
layerId = m007;
paths = (
{
closed = 1;
nodes = (
"1064 0 LINE",
"1064 830 LINE SMOOTH",
"1064 997 OFFCURVE",
"992 1080 OFFCURVE",
"848 1080 CURVE SMOOTH",
"733 1080 OFFCURVE",
"666 1030 OFFCURVE",
"645 928 CURVE",
"575 928 LINE",
"647 776 LINE",
"647 917 OFFCURVE",
"705 988 OFFCURVE",
"824 988 CURVE SMOOTH",
"924 988 OFFCURVE",
"970 930 OFFCURVE",
"970 810 CURVE SMOOTH",
"970 0 LINE"
);
},
{
closed = 1;
nodes = (
"230 0 LINE",
"230 836 LINE",
"216 1060 LINE",
"136 1060 LINE",
"136 0 LINE"
);
},
{
closed = 1;
nodes = (
"647 0 LINE",
"647 841 LINE",
"647 850 LINE SMOOTH",
"647 1004 OFFCURVE",
"579 1080 OFFCURVE",
"442 1080 CURVE SMOOTH",
"325 1080 OFFCURVE",
"255 1030 OFFCURVE",
"231 928 CURVE",
"168 928 LINE",
"230 776 LINE",
"230 917 OFFCURVE",
"289 988 OFFCURVE",
"406 988 CURVE SMOOTH",
"504 988 OFFCURVE",
"553 935 OFFCURVE",
"553 830 CURVE SMOOTH",
"553 0 LINE"
);
}
);
width = 1200;
},
{
anchors = (
{
name = bottom;
position = "{600, 0}";
},
{
name = top;
position = "{600, 1060}";
}
);
layerId = m008;
paths = (
{
closed = 1;
nodes = (
"1088 0 LINE",
"1088 830 LINE SMOOTH",
"1088 1006 OFFCURVE",
"1024 1080 OFFCURVE",
"878 1080 CURVE SMOOTH",
"766 1080 OFFCURVE",
"706 1010 OFFCURVE",
"700 928 CURVE",
"618 928 LINE",
"690 776 LINE",
"690 872 OFFCURVE",
"724 920 OFFCURVE",
"794 920 CURVE SMOOTH",
"850 920 OFFCURVE",
"876 884 OFFCURVE",
"876 810 CURVE SMOOTH",
"876 0 LINE"
);
},
{
closed = 1;
nodes = (
"324 0 LINE",
"324 836 LINE",
"300 1060 LINE",
"112 1060 LINE",
"112 0 LINE"
);
},
{
closed = 1;
nodes = (
"690 0 LINE",
"690 839 LINE",
"690 850 LINE SMOOTH",
"690 1004 OFFCURVE",
"622 1080 OFFCURVE",
"512 1080 CURVE SMOOTH",
"396 1080 OFFCURVE",
"338 1030 OFFCURVE",
"330 928 CURVE",
"262 928 LINE",
"324 776 LINE",
"324 872 OFFCURVE",
"358 920 OFFCURVE",
"426 920 CURVE SMOOTH",
"482 920 OFFCURVE",
"510 890 OFFCURVE",
"510 830 CURVE SMOOTH",
"510 0 LINE"
);
}
);
width = 1200;
},
{
anchors = (
{
name = bottom;
position = "{600, 0}";
},
{
name = top;
position = "{600, 1060}";
}
);
layerId = m009;
paths = (
{
closed = 1;
nodes = (
"1105 0 LINE",
"1105 830 LINE SMOOTH",
"1105 1006 OFFCURVE",
"1042 1080 OFFCURVE",
"899 1080 CURVE SMOOTH",
"797 1080 OFFCURVE",
"733 1023 OFFCURVE",
"721 928 CURVE",
"631 928 LINE",
"703 709 LINE",
"703 789 OFFCURVE",
"727 828 OFFCURVE",
"775 828 CURVE SMOOTH",
"818 828 OFFCURVE",
"839 792 OFFCURVE",
"839 718 CURVE SMOOTH",
"839 0 LINE"
);
},
{
closed = 1;
nodes = (
"362 0 LINE",
"362 836 LINE",
"338 1060 LINE",
"95 1060 LINE",
"95 0 LINE"
);
},
{
closed = 1;
nodes = (
"703 0 LINE",
"703 826 LINE",
"703 850 LINE SMOOTH",
"703 1004 OFFCURVE",
"640 1080 OFFCURVE",
"537 1080 CURVE SMOOTH",
"447 1080 OFFCURVE",
"390 1026 OFFCURVE",
"376 928 CURVE",
"300 928 LINE",
"362 709 LINE",
"362 789 OFFCURVE",
"387 828 OFFCURVE",
"438 828 CURVE SMOOTH",
"480 828 OFFCURVE",
"502 798 OFFCURVE",
"502 738 CURVE SMOOTH",
"502 0 LINE"
);
}
);
width = 1200;
},
{
anchors = (
{
name = bottom;
position = "{450, 0}";
},
{
name = top;
position = "{450, 1060}";
}
);
layerId = "8A5928CE-31B2-4F56-BC21-FB6F481DC46A";
paths = (
{
closed = 1;
nodes = (
"818 0 LINE",
"818 861 LINE SMOOTH",
"818 1011 OFFCURVE",
"771 1080 OFFCURVE",
"668 1080 CURVE SMOOTH",
"583 1080 OFFCURVE",
"537 1023 OFFCURVE",
"532 938 CURVE",
"472 938 LINE",
"522 807 LINE",
"522 883 OFFCURVE",
"543 920 OFFCURVE",
"588 920 CURVE SMOOTH",
"624 920 OFFCURVE",
"640 895 OFFCURVE",
"640 841 CURVE SMOOTH",
"640 0 LINE"
);
},
{
closed = 1;
nodes = (
"260 0 LINE",
"260 846 LINE",
"241 1060 LINE",
"82 1060 LINE",
"82 0 LINE"
);
},
{
closed = 1;
nodes = (
"522 0 LINE",
"522 846 LINE",
"522 860 LINE SMOOTH",
"522 1006 OFFCURVE",
"475 1080 OFFCURVE",
"395 1080 CURVE SMOOTH",
"314 1080 OFFCURVE",
"272 1033 OFFCURVE",
"266 938 CURVE",
"220 938 LINE",
"260 807 LINE",
"260 883 OFFCURVE",
"281 920 OFFCURVE",
"325 920 CURVE SMOOTH",
"361 920 OFFCURVE",
"378 897 OFFCURVE",
"378 850 CURVE SMOOTH",
"378 0 LINE"
);
}
);
width = 900;
},
{
anchors = (
{
name = bottom;
position = "{450, 0}";
},
{
name = top;
position = "{450, 1060}";
}
);
layerId = "A3FCBCC7-55DF-4604-8A77-DC78C4EF6076";
paths = (
{
closed = 1;
nodes = (
"845 0 LINE",
"845 850 LINE SMOOTH",
"845 1007 OFFCURVE",
"795 1080 OFFCURVE",
"687 1080 CURVE SMOOTH",
"605 1080 OFFCURVE",
"556 1026 OFFCURVE",
"548 928 CURVE",
"482 928 LINE",
"524 745 LINE",
"524 801 OFFCURVE",
"540 828 OFFCURVE",
"573 828 CURVE SMOOTH",
"604 828 OFFCURVE",
"619 804 OFFCURVE",
"619 754 CURVE SMOOTH",
"619 0 LINE"
);
},
{
closed = 1;
nodes = (
"283 0 LINE",
"283 831 LINE",
"263 1060 LINE",
"55 1060 LINE",
"55 0 LINE"
);
},
{
closed = 1;
nodes = (
"524 0 LINE",
"524 848 LINE",
"531 886 LINE",
"531 1015 OFFCURVE",
"488 1080 OFFCURVE",
"413 1080 CURVE SMOOTH",
"345 1080 OFFCURVE",
"304 1027 OFFCURVE",
"294 928 CURVE",
"236 928 LINE",
"283 745 LINE",
"283 801 OFFCURVE",
"300 828 OFFCURVE",
"336 828 CURVE SMOOTH",
"366 828 OFFCURVE",
"381 807 OFFCURVE",
"381 764 CURVE SMOOTH",
"381 0 LINE"
);
}
);
width = 900;
},
{
anchors = (
{
name = bottom;
position = "{450, 0}";
},
{
name = top;
position = "{450, 1060}";
}
);
layerId = "4AED55CC-054D-4448-879E-1FE49A52CF83";
paths = (
{
closed = 1;
nodes = (
"799 0 LINE",
"799 871 LINE SMOOTH",
"799 1010 OFFCURVE",
"747 1080 OFFCURVE",
"645 1080 CURVE SMOOTH",
"561 1080 OFFCURVE",
"511 1038 OFFCURVE",
"496 954 CURVE",
"436 954 LINE",
"492 817 LINE",
"492 932 OFFCURVE",
"529 988 OFFCURVE",
"607 988 CURVE SMOOTH",
"674 988 OFFCURVE",
"705 944 OFFCURVE",
"705 851 CURVE SMOOTH",
"705 0 LINE"
);
},
{
closed = 1;
nodes = (
"195 0 LINE",
"195 877 LINE",
"176 1060 LINE",
"101 1060 LINE",
"101 0 LINE"
);
},
{
closed = 1;
nodes = (
"492 0 LINE",
"492 879 LINE",
"492 891 LINE SMOOTH",
"492 1017 OFFCURVE",
"442 1080 OFFCURVE",
"344 1080 CURVE SMOOTH",
"262 1080 OFFCURVE",
"213 1038 OFFCURVE",
"198 954 CURVE",
"149 954 LINE",
"195 817 LINE",
"195 932 OFFCURVE",
"234 988 OFFCURVE",
"312 988 CURVE SMOOTH",
"377 988 OFFCURVE",
"409 950 OFFCURVE",
"409 871 CURVE SMOOTH",
"409 0 LINE"
);
}
);
width = 900;
}
);
unicode = 006D;
}
{
glyphname = n;
layers = (
{
anchors = (
{
name = bottom;
position = "{600, 0}";
},
{
name = top;
position = "{590, 1060}";
}
);
layerId = m007;
paths = (
{
closed = 1;
nodes = (
"1008 0 LINE",
"1008 690 LINE SMOOTH",
"1008 938 OFFCURVE",
"867 1080 OFFCURVE",
"621 1080 CURVE SMOOTH",
"441 1080 OFFCURVE",
"333 1010 OFFCURVE",
"294 868 CURVE",
"222 868 LINE",
"286 600 LINE",
"286 860 OFFCURVE",
"402 988 OFFCURVE",
"630 988 CURVE SMOOTH",
"809 988 OFFCURVE",
"914 882 OFFCURVE",
"914 694 CURVE SMOOTH",
"914 0 LINE"
);
},
{
closed = 1;
nodes = (
"286 0 LINE",
"286 836 LINE",
"278 1060 LINE",
"192 1060 LINE",
"192 0 LINE"
);
}
);
width = 1200;
},
{
anchors = (
{
name = bottom;
position = "{600, 0}";
},
{
name = top;
position = "{590, 1060}";
}
);
layerId = m008;
paths = (
{
closed = 1;
nodes = (
"1032 0 LINE",
"1032 690 LINE SMOOTH",
"1032 938 OFFCURVE",
"904 1080 OFFCURVE",
"680 1080 CURVE SMOOTH",
"502 1080 OFFCURVE",
"412 1010 OFFCURVE",
"400 868 CURVE",
"318 868 LINE",
"380 596 LINE",
"380 793 OFFCURVE",
"464 890 OFFCURVE",
"630 890 CURVE SMOOTH",
"750 890 OFFCURVE",
"820 818 OFFCURVE",
"820 690 CURVE SMOOTH",
"820 0 LINE"
);
},
{
closed = 1;
nodes = (
"380 0 LINE",
"380 836 LINE",
"360 1060 LINE",
"168 1060 LINE",
"168 0 LINE"
);
}
);
width = 1200;
},
{
anchors = (
{
name = bottom;
position = "{600, 0}";
},
{
name = top;
position = "{590, 1060}";
}
);
layerId = m009;
paths = (
{
closed = 1;
nodes = (
"1049 0 LINE",
"1049 690 LINE SMOOTH",
"1049 938 OFFCURVE",
"921 1080 OFFCURVE",
"697 1080 CURVE SMOOTH",
"539 1080 OFFCURVE",
"468 1010 OFFCURVE",
"448 868 CURVE",
"360 868 LINE",
"422 529 LINE",
"422 726 OFFCURVE",
"491 823 OFFCURVE",
"626 823 CURVE SMOOTH",
"723 823 OFFCURVE",
"778 751 OFFCURVE",
"778 623 CURVE SMOOTH",
"778 0 LINE"
);
},
{
closed = 1;
nodes = (
"422 0 LINE",
"422 836 LINE",
"393 1060 LINE",
"151 1060 LINE",
"151 0 LINE"
);
}
);
width = 1200;
},
{
anchors = (
{
name = bottom;
position = "{450, 0}";
},
{
name = top;
position = "{443, 1060}";
}
);
layerId = "8A5928CE-31B2-4F56-BC21-FB6F481DC46A";
paths = (
{
closed = 1;
nodes = (
"775 0 LINE",
"775 761 LINE SMOOTH",
"775 970 OFFCURVE",
"691 1080 OFFCURVE",
"535 1080 CURVE SMOOTH",
"411 1080 OFFCURVE",
"344 1018 OFFCURVE",
"324 888 CURVE",
"256 888 LINE",
"309 606 LINE",
"309 803 OFFCURVE",
"364 900 OFFCURVE",
"473 900 CURVE SMOOTH",
"550 900 OFFCURVE",
"592 850 OFFCURVE",
"592 751 CURVE SMOOTH",
"592 0 LINE"
);
},
{
closed = 1;
nodes = (
"309 0 LINE",
"309 846 LINE",
"290 1060 LINE",
"126 1060 LINE",
"126 0 LINE"
);
}
);
width = 900;
},
{
anchors = (
{
name = bottom;
position = "{450, 0}";
},
{
name = top;
position = "{443, 1060}";
}
);
layerId = "A3FCBCC7-55DF-4604-8A77-DC78C4EF6076";
paths = (
{
closed = 1;
nodes = (
"800 0 LINE",
"800 761 LINE SMOOTH",
"800 970 OFFCURVE",
"714 1080 OFFCURVE",
"555 1080 CURVE SMOOTH",
"434 1080 OFFCURVE",
"374 1018 OFFCURVE",
"355 886 CURVE",
"292 886 LINE",
"336 614 LINE",
"336 767 OFFCURVE",
"381 842 OFFCURVE",
"468 842 CURVE SMOOTH",
"530 842 OFFCURVE",
"564 792 OFFCURVE",
"564 700 CURVE SMOOTH",
"564 0 LINE"
);
},
{
closed = 1;
nodes = (
"336 0 LINE",
"336 855 LINE",
"312 1060 LINE",
"101 1060 LINE",
"101 0 LINE"
);
}
);
width = 900;
},
{
anchors = (
{
name = bottom;
position = "{450, 0}";
},
{
name = top;
position = "{443, 1060}";
}
);
layerId = "4AED55CC-054D-4448-879E-1FE49A52CF83";
paths = (
{
closed = 1;
nodes = (
"753 0 LINE",
"753 766 LINE SMOOTH",
"753 968 OFFCURVE",
"656 1080 OFFCURVE",
"482 1080 CURVE SMOOTH",
"354 1080 OFFCURVE",
"278 1023 OFFCURVE",
"249 910 CURVE",
"190 910 LINE",
"241 661 LINE",
"241 886 OFFCURVE",
"315 988 OFFCURVE",
"469 988 CURVE SMOOTH",
"590 988 OFFCURVE",
"659 911 OFFCURVE",
"659 770 CURVE SMOOTH",
"659 0 LINE"
);
},
{
closed = 1;
nodes = (
"241 0 LINE",
"241 882 LINE",
"225 1060 LINE",
"147 1060 LINE",
"147 0 LINE"
);
}
);
width = 900;
}
);
unicode = 006E;
}
{
glyphname = asciitilde;
layers = (
{
layerId = m007;
paths = (
{
closed = 1;
nodes = (
"214 486 LINE",
"214 576 LINE SMOOTH",
"214 737 OFFCURVE",
"260 806 OFFCURVE",
"369 806 CURVE SMOOTH",
"431 806 OFFCURVE",
"485 774 OFFCURVE",
"594 664 CURVE SMOOTH",
"702 555 OFFCURVE",
"763 520 OFFCURVE",
"860 520 CURVE SMOOTH",
"1011 520 OFFCURVE",
"1076 619 OFFCURVE",
"1076 850 CURVE SMOOTH",
"1076 930 LINE",
"986 930 LINE",
"986 840 LINE SMOOTH",
"986 679 OFFCURVE",
"949 610 OFFCURVE",
"859 610 CURVE SMOOTH",
"801 610 OFFCURVE",
"748 641 OFFCURVE",
"635 747 CURVE SMOOTH",
"514 860 OFFCURVE",
"453 896 OFFCURVE",
"370 896 CURVE SMOOTH",
"198 896 OFFCURVE",
"124 797 OFFCURVE",
"124 566 CURVE SMOOTH",
"124 486 LINE"
);
}
);
width = 1200;
},
{
layerId = m008;
paths = (
{
closed = 1;
nodes = (
"302 486 LINE",
"302 576 LINE SMOOTH",
"302 659 OFFCURVE",
"334 695 OFFCURVE",
"409 695 CURVE SMOOTH",
"477 695 OFFCURVE",
"536 650 OFFCURVE",
"604 609 CURVE SMOOTH",
"680 563 OFFCURVE",
"765 520 OFFCURVE",
"860 520 CURVE SMOOTH",
"1028 520 OFFCURVE",
"1100 619 OFFCURVE",
"1100 850 CURVE SMOOTH",
"1100 930 LINE",
"898 930 LINE",
"898 840 LINE SMOOTH",
"898 757 OFFCURVE",
"873 721 OFFCURVE",
"813 721 CURVE SMOOTH",
"750 721 OFFCURVE",
"695 768 OFFCURVE",
"630 807 CURVE SMOOTH",
"553 853 OFFCURVE",
"467 896 OFFCURVE",
"370 896 CURVE SMOOTH",
"181 896 OFFCURVE",
"100 797 OFFCURVE",
"100 566 CURVE SMOOTH",
"100 486 LINE"
);
}
);
width = 1200;
},
{
layerId = m009;
paths = (
{
closed = 1;
nodes = (
"349 453 LINE",
"349 559 LINE SMOOTH",
"349 619 OFFCURVE",
"375 645 OFFCURVE",
"437 645 CURVE SMOOTH",
"495 645 OFFCURVE",
"548 613 OFFCURVE",
"604 576 CURVE SMOOTH",
"679 526 OFFCURVE",
"760 487 OFFCURVE",
"852 487 CURVE SMOOTH",
"1037 487 OFFCURVE",
"1117 586 OFFCURVE",
"1117 817 CURVE SMOOTH",
"1117 963 LINE",
"853 963 LINE",
"853 857 LINE SMOOTH",
"853 797 OFFCURVE",
"831 771 OFFCURVE",
"776 771 CURVE SMOOTH",
"726 771 OFFCURVE",
"682 806 OFFCURVE",
"629 841 CURVE SMOOTH",
"555 890 OFFCURVE",
"472 929 OFFCURVE",
"378 929 CURVE SMOOTH",
"172 929 OFFCURVE",
"83 830 OFFCURVE",
"83 599 CURVE SMOOTH",
"83 453 LINE"
);
}
);
width = 1200;
},
{
layerId = "8A5928CE-31B2-4F56-BC21-FB6F481DC46A";
paths = (
{
closed = 1;
nodes = (
"241 486 LINE",
"241 576 LINE SMOOTH",
"241 677 OFFCURVE",
"261 715 OFFCURVE",
"310 715 CURVE SMOOTH",
"351 715 OFFCURVE",
"389 681 OFFCURVE",
"440 625 CURVE SMOOTH",
"498 559 OFFCURVE",
"560 520 OFFCURVE",
"636 520 CURVE SMOOTH",
"772 520 OFFCURVE",
"830 619 OFFCURVE",
"830 850 CURVE SMOOTH",
"830 930 LINE",
"661 930 LINE",
"661 840 LINE SMOOTH",
"661 745 OFFCURVE",
"644 701 OFFCURVE",
"601 701 CURVE SMOOTH",
"557 701 OFFCURVE",
"521 745 OFFCURVE",
"476 792 CURVE SMOOTH",
"417 860 OFFCURVE",
"356 896 OFFCURVE",
"281 896 CURVE SMOOTH",
"134 896 OFFCURVE",
"70 797 OFFCURVE",
"70 566 CURVE SMOOTH",
"70 486 LINE"
);
}
);
width = 900;
},
{
layerId = "A3FCBCC7-55DF-4604-8A77-DC78C4EF6076";
paths = (
{
closed = 1;
nodes = (
"289 463 LINE",
"289 559 LINE SMOOTH",
"289 626 OFFCURVE",
"307 655 OFFCURVE",
"350 655 CURVE SMOOTH",
"388 655 OFFCURVE",
"425 623 OFFCURVE",
"468 584 CURVE SMOOTH",
"520 538 OFFCURVE",
"575 507 OFFCURVE",
"647 507 CURVE SMOOTH",
"787 507 OFFCURVE",
"847 600 OFFCURVE",
"847 817 CURVE SMOOTH",
"847 953 LINE",
"613 953 LINE",
"613 857 LINE SMOOTH",
"613 790 OFFCURVE",
"599 761 OFFCURVE",
"563 761 CURVE SMOOTH",
"527 761 OFFCURVE",
"500 795 OFFCURVE",
"458 833 CURVE SMOOTH",
"406 878 OFFCURVE",
"349 909 OFFCURVE",
"276 909 CURVE SMOOTH",
"120 909 OFFCURVE",
"53 816 OFFCURVE",
"53 599 CURVE SMOOTH",
"53 463 LINE"
);
}
);
width = 900;
},
{
layerId = "4AED55CC-054D-4448-879E-1FE49A52CF83";
paths = (
{
closed = 1;
nodes = (
"174 486 LINE",
"174 602 LINE SMOOTH",
"174 739 OFFCURVE",
"205 796 OFFCURVE",
"278 796 CURVE SMOOTH",
"325 796 OFFCURVE",
"359 765 OFFCURVE",
"432 672 CURVE SMOOTH",
"509 569 OFFCURVE",
"556 530 OFFCURVE",
"638 530 CURVE SMOOTH",
"764 530 OFFCURVE",
"816 617 OFFCURVE",
"816 825 CURVE SMOOTH",
"816 930 LINE",
"726 930 LINE",
"726 815 LINE SMOOTH",
"726 677 OFFCURVE",
"701 620 OFFCURVE",
"638 620 CURVE SMOOTH",
"596 620 OFFCURVE",
"562 650 OFFCURVE",
"491 734 CURVE SMOOTH",
"404 847 OFFCURVE",
"354 886 OFFCURVE",
"279 886 CURVE SMOOTH",
"142 886 OFFCURVE",
"84 800 OFFCURVE",
"84 592 CURVE SMOOTH",
"84 486 LINE"
);
}
);
width = 900;
}
);
unicode = 007E;
}
{
glyphname = bar;
layers = (
{
layerId = m007;
paths = (
{
closed = 1;
nodes = (
"647 -310 LINE",
"647 1730 LINE",
"553 1730 LINE",
"553 -310 LINE"
);
}
);
width = 1200;
},
{
layerId = m008;
paths = (
{
closed = 1;
nodes = (
"704 -310 LINE",
"704 1730 LINE",
"496 1730 LINE",
"496 -310 LINE"
);
}
);
width = 1200;
},
{
layerId = m009;
paths = (
{
closed = 1;
nodes = (
"732 -310 LINE",
"732 1730 LINE",
"468 1730 LINE",
"468 -310 LINE"
);
}
);
width = 1200;
},
{
layerId = "8A5928CE-31B2-4F56-BC21-FB6F481DC46A";
paths = (
{
closed = 1;
nodes = (
"542 -310 LINE",
"542 1730 LINE",
"359 1730 LINE",
"359 -310 LINE"
);
}
);
width = 900;
},
{
layerId = "A3FCBCC7-55DF-4604-8A77-DC78C4EF6076";
paths = (
{
closed = 1;
nodes = (
"567 -310 LINE",
"567 1730 LINE",
"333 1730 LINE",
"333 -310 LINE"
);
}
);
width = 900;
},
{
layerId = "4AED55CC-054D-4448-879E-1FE49A52CF83";
paths = (
{
closed = 1;
nodes = (
"497 -310 LINE",
"497 1730 LINE",
"403 1730 LINE",
"403 -310 LINE"
);
}
);
width = 900;
}
);
unicode = 007C;
}
{
glyphname = braceleft;
layers = (
{
layerId = m007;
paths = (
{
closed = 1;
nodes = (
"903 -214 OFFCURVE",
"944 -206 OFFCURVE",
"982 -194 CURVE",
"969 -112 LINE",
"927 -119 OFFCURVE",
"887 -124 OFFCURVE",
"854 -124 CURVE SMOOTH",
"708 -124 OFFCURVE",
"598 -21 OFFCURVE",
"630 156 CURVE SMOOTH",
"650 266 OFFCURVE",
"716 367 OFFCURVE",
"716 488 CURVE SMOOTH",
"716 618 OFFCURVE",
"587 699 OFFCURVE",
"368 702 CURVE",
"368 710 LINE",
"587 713 OFFCURVE",
"716 796 OFFCURVE",
"716 942 CURVE SMOOTH",
"716 1058 OFFCURVE",
"652 1161 OFFCURVE",
"630 1274 CURVE SMOOTH",
"598 1439 OFFCURVE",
"708 1536 OFFCURVE",
"854 1536 CURVE SMOOTH",
"887 1536 OFFCURVE",
"926 1531 OFFCURVE",
"968 1524 CURVE",
"982 1606 LINE",
"944 1618 OFFCURVE",
"903 1626 OFFCURVE",
"836 1626 CURVE SMOOTH",
"644 1626 OFFCURVE",
"494 1498 OFFCURVE",
"534 1274 CURVE SMOOTH",
"554 1164 OFFCURVE",
"616 1060 OFFCURVE",
"616 938 CURVE SMOOTH",
"616 832 OFFCURVE",
"495 772 OFFCURVE",
"290 772 CURVE",
"290 640 LINE",
"501 640 OFFCURVE",
"616 607 OFFCURVE",
"616 492 CURVE SMOOTH",
"616 375 OFFCURVE",
"553 267 OFFCURVE",
"534 156 CURVE SMOOTH",
"494 -77 OFFCURVE",
"644 -214 OFFCURVE",
"836 -214 CURVE SMOOTH"
);
}
);
width = 1200;
},
{
background = {
paths = (
{
closed = 1;
nodes = (
"903 -214 OFFCURVE",
"944 -206 OFFCURVE",
"982 -194 CURVE",
"969 -112 LINE",
"927 -119 OFFCURVE",
"887 -124 OFFCURVE",
"854 -124 CURVE SMOOTH",
"708 -124 OFFCURVE",
"590 -21 OFFCURVE",
"630 156 CURVE SMOOTH",
"654 264 OFFCURVE",
"716 367 OFFCURVE",
"716 488 CURVE SMOOTH",
"716 618 OFFCURVE",
"587 699 OFFCURVE",
"368 702 CURVE",
"368 710 LINE",
"587 713 OFFCURVE",
"716 796 OFFCURVE",
"716 942 CURVE SMOOTH",
"716 1058 OFFCURVE",
"657 1161 OFFCURVE",
"630 1274 CURVE SMOOTH",
"590 1439 OFFCURVE",
"708 1536 OFFCURVE",
"854 1536 CURVE SMOOTH",
"887 1536 OFFCURVE",
"926 1531 OFFCURVE",
"968 1524 CURVE",
"982 1606 LINE",
"944 1618 OFFCURVE",
"903 1626 OFFCURVE",
"836 1626 CURVE SMOOTH",
"644 1626 OFFCURVE",
"494 1498 OFFCURVE",
"534 1274 CURVE SMOOTH",
"554 1164 OFFCURVE",
"616 1060 OFFCURVE",
"616 938 CURVE SMOOTH",
"616 832 OFFCURVE",
"495 772 OFFCURVE",
"290 772 CURVE",
"290 640 LINE",
"501 640 OFFCURVE",
"616 607 OFFCURVE",
"616 492 CURVE SMOOTH",
"616 375 OFFCURVE",
"553 267 OFFCURVE",
"534 156 CURVE SMOOTH",
"494 -77 OFFCURVE",
"644 -214 OFFCURVE",
"836 -214 CURVE SMOOTH"
);
}
);
};
layerId = m008;
paths = (
{
closed = 1;
nodes = (
"894 -214 OFFCURVE",
"942 -206 OFFCURVE",
"986 -194 CURVE",
"962 -20 LINE",
"915 -26 OFFCURVE",
"871 -30 OFFCURVE",
"834 -30 CURVE SMOOTH",
"739 -30 OFFCURVE",
"667 38 OFFCURVE",
"688 156 CURVE SMOOTH",
"708 269 OFFCURVE",
"774 367 OFFCURVE",
"774 488 CURVE SMOOTH",
"774 610 OFFCURVE",
"662 686 OFFCURVE",
"472 689 CURVE",
"472 723 LINE",
"662 726 OFFCURVE",
"774 804 OFFCURVE",
"774 942 CURVE SMOOTH",
"774 1058 OFFCURVE",
"708 1156 OFFCURVE",
"688 1274 CURVE SMOOTH",
"670 1380 OFFCURVE",
"739 1442 OFFCURVE",
"834 1442 CURVE SMOOTH",
"871 1442 OFFCURVE",
"915 1438 OFFCURVE",
"962 1432 CURVE",
"986 1606 LINE",
"942 1618 OFFCURVE",
"894 1626 OFFCURVE",
"816 1626 CURVE SMOOTH",
"599 1626 OFFCURVE",
"434 1496 OFFCURVE",
"474 1273 CURVE SMOOTH",
"494 1160 OFFCURVE",
"556 1060 OFFCURVE",
"556 938 CURVE SMOOTH",
"556 840 OFFCURVE",
"352 785 OFFCURVE",
"246 785 CURVE",
"246 627 LINE",
"356 627 OFFCURVE",
"556 597 OFFCURVE",
"556 492 CURVE SMOOTH",
"556 375 OFFCURVE",
"494 269 OFFCURVE",
"474 156 CURVE SMOOTH",
"433 -75 OFFCURVE",
"599 -214 OFFCURVE",
"816 -214 CURVE SMOOTH"
);
}
);
width = 1200;
},
{
layerId = m009;
paths = (
{
closed = 1;
nodes = (
"902 -214 OFFCURVE",
"955 -206 OFFCURVE",
"1003 -194 CURVE",
"979 47 LINE",
"941 41 OFFCURVE",
"905 37 OFFCURVE",
"876 37 CURVE SMOOTH",
"795 37 OFFCURVE",
"726 103 OFFCURVE",
"751 227 CURVE SMOOTH",
"768 310 OFFCURVE",
"827 393 OFFCURVE",
"827 488 CURVE SMOOTH",
"827 608 OFFCURVE",
"715 682 OFFCURVE",
"525 685 CURVE",
"525 727 LINE",
"715 730 OFFCURVE",
"827 807 OFFCURVE",
"827 942 CURVE SMOOTH",
"827 1033 OFFCURVE",
"772 1119 OFFCURVE",
"751 1203 CURVE SMOOTH",
"723 1315 OFFCURVE",
"795 1375 OFFCURVE",
"876 1375 CURVE SMOOTH",
"905 1375 OFFCURVE",
"941 1371 OFFCURVE",
"979 1365 CURVE",
"1003 1606 LINE",
"955 1618 OFFCURVE",
"902 1626 OFFCURVE",
"816 1626 CURVE SMOOTH",
"599 1626 OFFCURVE",
"434 1499 OFFCURVE",
"474 1274 CURVE SMOOTH",
"491 1179 OFFCURVE",
"556 1090 OFFCURVE",
"556 985 CURVE SMOOTH",
"556 883 OFFCURVE",
"431 832 OFFCURVE",
"229 832 CURVE",
"229 580 LINE",
"432 580 OFFCURVE",
"556 538 OFFCURVE",
"556 445 CURVE SMOOTH",
"556 344 OFFCURVE",
"490 251 OFFCURVE",
"474 156 CURVE SMOOTH",
"434 -78 OFFCURVE",
"599 -214 OFFCURVE",
"816 -214 CURVE SMOOTH"
);
}
);
width = 1200;
},
{
layerId = "8A5928CE-31B2-4F56-BC21-FB6F481DC46A";
paths = (
{
closed = 1;
nodes = (
"682 -214 OFFCURVE",
"719 -206 OFFCURVE",
"753 -194 CURVE",
"735 -26 LINE",
"700 -33 OFFCURVE",
"666 -37 OFFCURVE",
"639 -37 CURVE SMOOTH",
"568 -37 OFFCURVE",
"517 19 OFFCURVE",
"535 116 CURVE SMOOTH",
"557 240 OFFCURVE",
"616 353 OFFCURVE",
"616 488 CURVE SMOOTH",
"616 614 OFFCURVE",
"514 693 OFFCURVE",
"346 696 CURVE",
"346 717 LINE",
"514 720 OFFCURVE",
"616 800 OFFCURVE",
"616 942 CURVE SMOOTH",
"616 1074 OFFCURVE",
"558 1190 OFFCURVE",
"535 1320 CURVE SMOOTH",
"520 1402 OFFCURVE",
"568 1449 OFFCURVE",
"639 1449 CURVE SMOOTH",
"666 1449 OFFCURVE",
"699 1445 OFFCURVE",
"734 1438 CURVE",
"753 1606 LINE",
"719 1618 OFFCURVE",
"682 1626 OFFCURVE",
"621 1626 CURVE SMOOTH",
"442 1626 OFFCURVE",
"313 1515 OFFCURVE",
"348 1319 CURVE SMOOTH",
"370 1194 OFFCURVE",
"425 1077 OFFCURVE",
"425 938 CURVE SMOOTH",
"425 843 OFFCURVE",
"291 789 OFFCURVE",
"183 789 CURVE",
"183 624 LINE",
"294 624 OFFCURVE",
"425 594 OFFCURVE",
"425 492 CURVE SMOOTH",
"425 361 OFFCURVE",
"369 241 OFFCURVE",
"348 116 CURVE SMOOTH",
"311 -92 OFFCURVE",
"442 -214 OFFCURVE",
"621 -214 CURVE SMOOTH"
);
}
);
width = 900;
},
{
layerId = "A3FCBCC7-55DF-4604-8A77-DC78C4EF6076";
paths = (
{
closed = 1;
nodes = (
"686 -214 OFFCURVE",
"725 -206 OFFCURVE",
"762 -194 CURVE",
"743 38 LINE",
"713 31 OFFCURVE",
"683 27 OFFCURVE",
"660 27 CURVE SMOOTH",
"603 27 OFFCURVE",
"557 82 OFFCURVE",
"576 182 CURVE SMOOTH",
"595 281 OFFCURVE",
"642 377 OFFCURVE",
"642 488 CURVE SMOOTH",
"642 612 OFFCURVE",
"550 688 OFFCURVE",
"398 691 CURVE",
"398 721 LINE",
"550 724 OFFCURVE",
"642 803 OFFCURVE",
"642 942 CURVE SMOOTH",
"642 1051 OFFCURVE",
"598 1151 OFFCURVE",
"576 1254 CURVE SMOOTH",
"556 1339 OFFCURVE",
"603 1385 OFFCURVE",
"660 1385 CURVE SMOOTH",
"683 1385 OFFCURVE",
"712 1381 OFFCURVE",
"743 1374 CURVE",
"762 1606 LINE",
"725 1618 OFFCURVE",
"686 1626 OFFCURVE",
"621 1626 CURVE SMOOTH",
"426 1626 OFFCURVE",
"289 1517 OFFCURVE",
"325 1320 CURVE SMOOTH",
"345 1208 OFFCURVE",
"402 1101 OFFCURVE",
"402 977 CURVE SMOOTH",
"402 878 OFFCURVE",
"316 825 OFFCURVE",
"175 825 CURVE",
"175 588 LINE",
"317 588 OFFCURVE",
"402 552 OFFCURVE",
"402 454 CURVE SMOOTH",
"402 336 OFFCURVE",
"343 227 OFFCURVE",
"325 116 CURVE SMOOTH",
"288 -94 OFFCURVE",
"426 -214 OFFCURVE",
"621 -214 CURVE SMOOTH"
);
}
);
width = 900;
},
{
layerId = "4AED55CC-054D-4448-879E-1FE49A52CF83";
paths = (
{
closed = 1;
nodes = (
"686 -214 OFFCURVE",
"720 -206 OFFCURVE",
"751 -194 CURVE",
"738 -112 LINE",
"706 -119 OFFCURVE",
"674 -124 OFFCURVE",
"649 -124 CURVE SMOOTH",
"530 -124 OFFCURVE",
"448 -37 OFFCURVE",
"475 116 CURVE SMOOTH",
"497 239 OFFCURVE",
"556 353 OFFCURVE",
"556 488 CURVE SMOOTH",
"556 618 OFFCURVE",
"454 699 OFFCURVE",
"284 702 CURVE",
"284 710 LINE",
"454 713 OFFCURVE",
"556 796 OFFCURVE",
"556 942 CURVE SMOOTH",
"556 1074 OFFCURVE",
"500 1192 OFFCURVE",
"475 1320 CURVE SMOOTH",
"448 1457 OFFCURVE",
"530 1536 OFFCURVE",
"649 1536 CURVE SMOOTH",
"674 1536 OFFCURVE",
"705 1531 OFFCURVE",
"737 1524 CURVE",
"751 1606 LINE",
"720 1618 OFFCURVE",
"686 1626 OFFCURVE",
"631 1626 CURVE SMOOTH",
"466 1626 OFFCURVE",
"344 1516 OFFCURVE",
"379 1320 CURVE SMOOTH",
"402 1196 OFFCURVE",
"456 1077 OFFCURVE",
"456 938 CURVE SMOOTH",
"456 832 OFFCURVE",
"363 772 OFFCURVE",
"206 772 CURVE",
"206 640 LINE",
"368 640 OFFCURVE",
"456 607 OFFCURVE",
"456 492 CURVE SMOOTH",
"456 361 OFFCURVE",
"400 240 OFFCURVE",
"379 116 CURVE SMOOTH",
"343 -93 OFFCURVE",
"466 -214 OFFCURVE",
"631 -214 CURVE SMOOTH"
);
}
);
width = 900;
}
);
unicode = 007B;
}
{
glyphname = euro;
production = Euro;
layers = (
{
layerId = m007;
paths = (
{
closed = 1;
nodes = (
"902 -20 OFFCURVE",
"1003 2 OFFCURVE",
"1100 48 CURVE",
"1075 137 LINE",
"988 92 OFFCURVE",
"902 70 OFFCURVE",
"812 70 CURVE SMOOTH",
"493 70 OFFCURVE",
"331 287 OFFCURVE",
"331 722 CURVE SMOOTH",
"331 1123 OFFCURVE",
"506 1350 OFFCURVE",
"776 1350 CURVE SMOOTH",
"892 1350 OFFCURVE",
"996 1293 OFFCURVE",
"1060 1194 CURVE",
"1125 1261 LINE",
"1068 1375 OFFCURVE",
"940 1440 OFFCURVE",
"774 1440 CURVE SMOOTH",
"431 1440 OFFCURVE",
"235 1174 OFFCURVE",
"235 712 CURVE SMOOTH",
"235 224 OFFCURVE",
"424 -20 OFFCURVE",
"798 -20 CURVE SMOOTH"
);
},
{
closed = 1;
nodes = (
"897 515 LINE",
"897 605 LINE",
"79 605 LINE",
"79 515 LINE"
);
},
{
closed = 1;
nodes = (
"897 805 LINE",
"897 895 LINE",
"79 895 LINE",
"79 805 LINE"
);
}
);
width = 1200;
},
{
layerId = m008;
paths = (
{
closed = 1;
nodes = (
"897 -20 OFFCURVE",
"1012 2 OFFCURVE",
"1124 48 CURVE",
"1078 224 LINE",
"991 184 OFFCURVE",
"903 164 OFFCURVE",
"812 164 CURVE SMOOTH",
"545 164 OFFCURVE",
"410 350 OFFCURVE",
"410 722 CURVE SMOOTH",
"410 1063 OFFCURVE",
"542 1256 OFFCURVE",
"746 1256 CURVE SMOOTH",
"842 1256 OFFCURVE",
"928 1197 OFFCURVE",
"981 1094 CURVE",
"1149 1221 LINE",
"1083 1360 OFFCURVE",
"936 1440 OFFCURVE",
"744 1440 CURVE SMOOTH",
"395 1440 OFFCURVE",
"196 1174 OFFCURVE",
"196 712 CURVE SMOOTH",
"196 224 OFFCURVE",
"391 -20 OFFCURVE",
"778 -20 CURVE SMOOTH"
);
},
{
closed = 1;
nodes = (
"897 491 LINE",
"897 629 LINE",
"79 629 LINE",
"79 491 LINE"
);
},
{
closed = 1;
nodes = (
"897 781 LINE",
"897 919 LINE",
"79 919 LINE",
"79 781 LINE"
);
}
);
width = 1200;
},
{
layerId = m009;
paths = (
{
closed = 1;
nodes = (
"886 -20 OFFCURVE",
"1007 2 OFFCURVE",
"1124 48 CURVE",
"1078 292 LINE",
"985 252 OFFCURVE",
"892 232 OFFCURVE",
"795 232 CURVE SMOOTH",
"570 232 OFFCURVE",
"457 395 OFFCURVE",
"457 722 CURVE SMOOTH",
"457 1020 OFFCURVE",
"568 1189 OFFCURVE",
"738 1189 CURVE SMOOTH",
"844 1189 OFFCURVE",
"939 1145 OFFCURVE",
"998 1068 CURVE",
"1149 1259 LINE",
"1074 1374 OFFCURVE",
"923 1440 OFFCURVE",
"736 1440 CURVE SMOOTH",
"382 1440 OFFCURVE",
"179 1174 OFFCURVE",
"179 712 CURVE SMOOTH",
"179 224 OFFCURVE",
"374 -20 OFFCURVE",
"761 -20 CURVE SMOOTH"
);
},
{
closed = 1;
nodes = (
"897 458 LINE",
"897 646 LINE",
"79 646 LINE",
"79 458 LINE"
);
},
{
closed = 1;
nodes = (
"897 764 LINE",
"897 952 LINE",
"79 952 LINE",
"79 764 LINE"
);
}
);
width = 1200;
},
{
layerId = "8A5928CE-31B2-4F56-BC21-FB6F481DC46A";
paths = (
{
closed = 1;
nodes = (
"672 -20 OFFCURVE",
"763 -1 OFFCURVE",
"852 38 CURVE",
"816 205 LINE",
"749 173 OFFCURVE",
"683 157 OFFCURVE",
"615 157 CURVE SMOOTH",
"418 157 OFFCURVE",
"321 340 OFFCURVE",
"321 722 CURVE SMOOTH",
"321 1081 OFFCURVE",
"409 1263 OFFCURVE",
"558 1263 CURVE SMOOTH",
"623 1263 OFFCURVE",
"680 1223 OFFCURVE",
"719 1147 CURVE",
"875 1262 LINE",
"820 1379 OFFCURVE",
"715 1440 OFFCURVE",
"569 1440 CURVE SMOOTH",
"283 1440 OFFCURVE",
"132 1193 OFFCURVE",
"132 712 CURVE SMOOTH",
"132 217 OFFCURVE",
"278 -20 OFFCURVE",
"578 -20 CURVE SMOOTH"
);
},
{
closed = 1;
nodes = (
"680 491 LINE",
"680 629 LINE",
"47 629 LINE",
"47 491 LINE"
);
},
{
closed = 1;
nodes = (
"680 781 LINE",
"680 919 LINE",
"47 919 LINE",
"47 781 LINE"
);
}
);
width = 900;
},
{
layerId = "A3FCBCC7-55DF-4604-8A77-DC78C4EF6076";
paths = (
{
closed = 1;
nodes = (
"671 -20 OFFCURVE",
"763 -3 OFFCURVE",
"851 33 CURVE",
"809 264 LINE",
"745 235 OFFCURVE",
"681 221 OFFCURVE",
"615 221 CURVE SMOOTH",
"448 221 OFFCURVE",
"362 391 OFFCURVE",
"362 722 CURVE SMOOTH",
"362 1024 OFFCURVE",
"439 1189 OFFCURVE",
"563 1189 CURVE SMOOTH",
"627 1189 OFFCURVE",
"683 1157 OFFCURVE",
"721 1098 CURVE",
"873 1266 LINE",
"813 1381 OFFCURVE",
"704 1440 OFFCURVE",
"559 1440 CURVE SMOOTH",
"275 1440 OFFCURVE",
"118 1182 OFFCURVE",
"118 712 CURVE SMOOTH",
"118 228 OFFCURVE",
"274 -20 OFFCURVE",
"578 -20 CURVE SMOOTH"
);
},
{
closed = 1;
nodes = (
"680 448 LINE",
"680 646 LINE",
"48 646 LINE",
"48 448 LINE"
);
},
{
closed = 1;
nodes = (
"680 764 LINE",
"680 962 LINE",
"48 962 LINE",
"48 764 LINE"
);
}
);
width = 900;
},
{
layerId = "4AED55CC-054D-4448-879E-1FE49A52CF83";
paths = (
{
closed = 1;
nodes = (
"679 -20 OFFCURVE",
"755 -4 OFFCURVE",
"829 28 CURVE",
"808 117 LINE",
"743 85 OFFCURVE",
"679 70 OFFCURVE",
"614 70 CURVE SMOOTH",
"378 70 OFFCURVE",
"257 291 OFFCURVE",
"257 722 CURVE SMOOTH",
"257 1129 OFFCURVE",
"378 1350 OFFCURVE",
"579 1350 CURVE SMOOTH",
"660 1350 OFFCURVE",
"726 1309 OFFCURVE",
"767 1232 CURVE",
"841 1283 LINE",
"794 1387 OFFCURVE",
"703 1440 OFFCURVE",
"578 1440 CURVE SMOOTH",
"309 1440 OFFCURVE",
"161 1182 OFFCURVE",
"161 712 CURVE SMOOTH",
"161 228 OFFCURVE",
"310 -20 OFFCURVE",
"601 -20 CURVE SMOOTH"
);
},
{
closed = 1;
nodes = (
"678 515 LINE",
"678 605 LINE",
"50 605 LINE",
"50 515 LINE"
);
},
{
closed = 1;
nodes = (
"678 805 LINE",
"678 895 LINE",
"50 895 LINE",
"50 805 LINE"
);
}
);
width = 900;
}
);
unicode = 20AC;
}
{
glyphname = exclam;
layers = (
{
components = (
{
name = period;
}
);
layerId = m007;
paths = (
{
closed = 1;
nodes = (
"644 356 LINE",
"650 1430 LINE",
"550 1430 LINE",
"552 356 LINE"
);
}
);
width = 1200;
},
{
components = (
{
name = period;
}
);
layerId = m008;
paths = (
{
closed = 1;
nodes = (
"684 456 LINE",
"704 1430 LINE",
"496 1430 LINE",
"512 456 LINE"
);
}
);
width = 1200;
},
{
components = (
{
alignment = -1;
name = period;
}
);
layerId = m009;
paths = (
{
closed = 1;
nodes = (
"717 556 LINE",
"754 1430 LINE",
"446 1430 LINE",
"479 556 LINE"
);
}
);
width = 1200;
},
{
components = (
{
alignment = -1;
name = period;
}
);
layerId = "8A5928CE-31B2-4F56-BC21-FB6F481DC46A";
paths = (
{
closed = 1;
nodes = (
"524 456 LINE",
"544 1430 LINE",
"356 1430 LINE",
"372 456 LINE"
);
}
);
width = 900;
},
{
components = (
{
alignment = -1;
name = period;
}
);
layerId = "A3FCBCC7-55DF-4604-8A77-DC78C4EF6076";
paths = (
{
closed = 1;
nodes = (
"557 556 LINE",
"594 1430 LINE",
"306 1430 LINE",
"339 556 LINE"
);
}
);
width = 900;
},
{
components = (
{
alignment = -1;
name = period;
}
);
layerId = "4AED55CC-054D-4448-879E-1FE49A52CF83";
paths = (
{
closed = 1;
nodes = (
"495 356 LINE",
"501 1430 LINE",
"400 1430 LINE",
"402 356 LINE"
);
}
);
width = 900;
}
);
unicode = 0021;
}
{
glyphname = dollar;
layers = (
{
components = (
{
name = S;
}
);
layerId = m007;
paths = (
{
closed = 1;
nodes = (
"660 -320 LINE",
"660 1740 LINE",
"566 1740 LINE",
"566 -320 LINE"
);
}
);
userData = {
com.schriftgestaltung.Glyphs.glyph.leftMetricsKey = "=S";
com.schriftgestaltung.Glyphs.glyph.rightMetricsKey = "=S";
};
width = 1200;
},
{
associatedMasterId = m007;
components = (
{
name = S;
}
);
layerId = "35569CB8-E4C6-4B27-BC4C-0E111EC7C62B";
name = "[600]";
paths = (
{
closed = 1;
nodes = (
"660 1393 LINE",
"660 1740 LINE",
"566 1740 LINE",
"566 1393 LINE"
);
},
{
closed = 1;
nodes = (
"660 -320 LINE",
"660 38 LINE",
"566 38 LINE",
"566 -320 LINE"
);
}
);
userData = {
com.schriftgestaltung.Glyphs.glyph.leftMetricsKey = "=S";
com.schriftgestaltung.Glyphs.glyph.rightMetricsKey = "=S";
};
width = 1200;
},
{
components = (
{
name = S;
}
);
layerId = m008;
paths = (
{
closed = 1;
nodes = (
"682 -320 LINE",
"682 1740 LINE",
"544 1740 LINE",
"544 -320 LINE"
);
}
);
userData = {
com.schriftgestaltung.Glyphs.glyph.leftMetricsKey = "=S";
com.schriftgestaltung.Glyphs.glyph.rightMetricsKey = "=S";
};
width = 1200;
},
{
associatedMasterId = m008;
components = (
{
name = S;
}
);
layerId = "9431FDC0-34ED-4F90-97DB-4F56408A0056";
name = "[600]";
paths = (
{
closed = 1;
nodes = (
"682 1336 LINE",
"682 1740 LINE",
"544 1740 LINE",
"544 1336 LINE"
);
},
{
closed = 1;
nodes = (
"682 -320 LINE",
"682 82 LINE",
"544 82 LINE",
"544 -320 LINE"
);
}
);
userData = {
com.schriftgestaltung.Glyphs.glyph.leftMetricsKey = "=S";
com.schriftgestaltung.Glyphs.glyph.rightMetricsKey = "=S";
};
width = 1200;
},
{
components = (
{
alignment = -1;
name = S;
}
);
layerId = m009;
paths = (
{
closed = 1;
nodes = (
"740 -320 LINE",
"740 1740 LINE",
"487 1740 LINE",
"487 -320 LINE"
);
}
);
userData = {
com.schriftgestaltung.Glyphs.glyph.leftMetricsKey = "=S";
com.schriftgestaltung.Glyphs.glyph.rightMetricsKey = "=S";
};
width = 1200;
},
{
associatedMasterId = m009;
components = (
{
alignment = -1;
name = S;
}
);
layerId = "A42F9FF7-7ACE-4966-879F-57F25E1420DB";
name = "[600]";
paths = (
{
closed = 1;
nodes = (
"740 1288 LINE",
"740 1740 LINE",
"487 1740 LINE",
"487 1288 LINE"
);
},
{
closed = 1;
nodes = (
"740 -320 LINE",
"740 131 LINE",
"487 131 LINE",
"487 -320 LINE"
);
}
);
userData = {
com.schriftgestaltung.Glyphs.glyph.leftMetricsKey = "=S";
com.schriftgestaltung.Glyphs.glyph.rightMetricsKey = "=S";
};
width = 1200;
},
{
components = (
{
alignment = -1;
name = S;
}
);
layerId = "8A5928CE-31B2-4F56-BC21-FB6F481DC46A";
paths = (
{
closed = 1;
nodes = (
"523 -320 LINE",
"523 1740 LINE",
"385 1740 LINE",
"385 -320 LINE"
);
}
);
userData = {
com.schriftgestaltung.Glyphs.glyph.leftMetricsKey = "=S";
com.schriftgestaltung.Glyphs.glyph.rightMetricsKey = "=S";
};
width = 900;
},
{
components = (
{
alignment = -1;
name = S;
}
);
layerId = "A3FCBCC7-55DF-4604-8A77-DC78C4EF6076";
name = "[600]";
paths = (
{
closed = 1;
nodes = (
"569 -320 LINE",
"569 1740 LINE",
"340 1740 LINE",
"340 -320 LINE"
);
}
);
userData = {
com.schriftgestaltung.Glyphs.glyph.leftMetricsKey = "=S";
com.schriftgestaltung.Glyphs.glyph.rightMetricsKey = "=S";
};
width = 900;
},
{
components = (
{
alignment = -1;
name = S;
}
);
layerId = "4AED55CC-054D-4448-879E-1FE49A52CF83";
paths = (
{
closed = 1;
nodes = (
"508 -320 LINE",
"508 1740 LINE",
"414 1740 LINE",
"414 -320 LINE"
);
}
);
userData = {
com.schriftgestaltung.Glyphs.glyph.leftMetricsKey = "=S";
com.schriftgestaltung.Glyphs.glyph.rightMetricsKey = "=S";
};
width = 900;
},
{
associatedMasterId = "A3FCBCC7-55DF-4604-8A77-DC78C4EF6076";
components = (
{
alignment = -1;
name = S;
}
);
layerId = "F0E3B1B2-F406-4CF3-8497-7C425F4EAF87";
name = "[600]";
paths = (
{
closed = 1;
nodes = (
"569 1296 LINE",
"569 1740 LINE",
"340 1740 LINE",
"340 1296 LINE"
);
},
{
closed = 1;
nodes = (
"569 -320 LINE",
"569 110 LINE",
"340 110 LINE",
"340 -320 LINE"
);
}
);
userData = {
com.schriftgestaltung.Glyphs.glyph.leftMetricsKey = "=S";
com.schriftgestaltung.Glyphs.glyph.rightMetricsKey = "=S";
};
width = 900;
},
{
associatedMasterId = "8A5928CE-31B2-4F56-BC21-FB6F481DC46A";
components = (
{
alignment = -1;
name = S;
}
);
layerId = "53B0FC60-C59E-46CE-BFCD-8122F9C1C71A";
name = "[600]";
paths = (
{
closed = 1;
nodes = (
"523 1364 LINE",
"523 1740 LINE",
"385 1740 LINE",
"385 1364 LINE"
);
},
{
closed = 1;
nodes = (
"523 -320 LINE",
"523 84 LINE",
"385 84 LINE",
"385 -320 LINE"
);
}
);
userData = {
com.schriftgestaltung.Glyphs.glyph.leftMetricsKey = "=S";
com.schriftgestaltung.Glyphs.glyph.rightMetricsKey = "=S";
};
width = 900;
},
{
associatedMasterId = "4AED55CC-054D-4448-879E-1FE49A52CF83";
components = (
{
alignment = -1;
name = S;
}
);
layerId = "C4141CDA-88F6-4F98-A41E-522AB36D39B1";
name = "[600]";
paths = (
{
closed = 1;
nodes = (
"508 1395 LINE",
"508 1740 LINE",
"414 1740 LINE",
"414 1395 LINE"
);
},
{
closed = 1;
nodes = (
"508 -320 LINE",
"508 29 LINE",
"414 29 LINE",
"414 -320 LINE"
);
}
);
userData = {
com.schriftgestaltung.Glyphs.glyph.leftMetricsKey = "=S";
com.schriftgestaltung.Glyphs.glyph.rightMetricsKey = "=S";
};
width = 900;
}
);
leftMetricsKey = "=S";
rightMetricsKey = "=S";
unicode = 0024;
}
{
glyphname = percent;
layers = (
{
layerId = m007;
paths = (
{
closed = 1;
nodes = (
"1074 1036 LINE",
"1024 1106 LINE",
"136 376 LINE",
"186 306 LINE"
);
},
{
closed = 1;
nodes = (
"580 793 OFFCURVE",
"704 921 OFFCURVE",
"704 1115 CURVE SMOOTH",
"704 1310 OFFCURVE",
"580 1439 OFFCURVE",
"392 1439 CURVE SMOOTH",
"203 1439 OFFCURVE",
"78 1310 OFFCURVE",
"78 1115 CURVE SMOOTH",
"78 921 OFFCURVE",
"203 793 OFFCURVE",
"392 793 CURVE SMOOTH"
);
},
{
closed = 1;
nodes = (
"258 883 OFFCURVE",
"170 975 OFFCURVE",
"170 1115 CURVE SMOOTH",
"170 1256 OFFCURVE",
"258 1349 OFFCURVE",
"392 1349 CURVE SMOOTH",
"525 1349 OFFCURVE",
"612 1256 OFFCURVE",
"612 1115 CURVE SMOOTH",
"612 975 OFFCURVE",
"525 883 OFFCURVE",
"392 883 CURVE SMOOTH"
);
},
{
closed = 1;
nodes = (
"1018 -20 OFFCURVE",
"1142 108 OFFCURVE",
"1142 302 CURVE SMOOTH",
"1142 497 OFFCURVE",
"1018 626 OFFCURVE",
"830 626 CURVE SMOOTH",
"641 626 OFFCURVE",
"516 497 OFFCURVE",
"516 302 CURVE SMOOTH",
"516 108 OFFCURVE",
"641 -20 OFFCURVE",
"830 -20 CURVE SMOOTH"
);
},
{
closed = 1;
nodes = (
"696 70 OFFCURVE",
"608 162 OFFCURVE",
"608 302 CURVE SMOOTH",
"608 443 OFFCURVE",
"696 536 OFFCURVE",
"830 536 CURVE SMOOTH",
"963 536 OFFCURVE",
"1050 443 OFFCURVE",
"1050 302 CURVE SMOOTH",
"1050 162 OFFCURVE",
"963 70 OFFCURVE",
"830 70 CURVE SMOOTH"
);
}
);
width = 1200;
},
{
layerId = m008;
paths = (
{
closed = 1;
nodes = (
"1116 976 LINE",
"1024 1106 LINE",
"94 442 LINE",
"186 306 LINE"
);
},
{
closed = 1;
nodes = (
"556 794 OFFCURVE",
"680 922 OFFCURVE",
"680 1116 CURVE SMOOTH",
"680 1316 OFFCURVE",
"556 1440 OFFCURVE",
"368 1440 CURVE SMOOTH",
"178 1440 OFFCURVE",
"54 1312 OFFCURVE",
"54 1116 CURVE SMOOTH",
"54 922 OFFCURVE",
"178 794 OFFCURVE",
"368 794 CURVE SMOOTH"
);
},
{
closed = 1;
nodes = (
"287 957 OFFCURVE",
"235 1021 OFFCURVE",
"235 1116 CURVE SMOOTH",
"235 1215 OFFCURVE",
"287 1279 OFFCURVE",
"368 1279 CURVE SMOOTH",
"447 1279 OFFCURVE",
"499 1215 OFFCURVE",
"499 1116 CURVE SMOOTH",
"499 1021 OFFCURVE",
"447 957 OFFCURVE",
"368 957 CURVE SMOOTH"
);
},
{
closed = 1;
nodes = (
"1042 -20 OFFCURVE",
"1166 108 OFFCURVE",
"1166 302 CURVE SMOOTH",
"1166 498 OFFCURVE",
"1042 626 OFFCURVE",
"854 626 CURVE SMOOTH",
"664 626 OFFCURVE",
"540 498 OFFCURVE",
"540 302 CURVE SMOOTH",
"540 108 OFFCURVE",
"664 -20 OFFCURVE",
"854 -20 CURVE SMOOTH"
);
},
{
closed = 1;
nodes = (
"773 143 OFFCURVE",
"721 207 OFFCURVE",
"721 302 CURVE SMOOTH",
"721 399 OFFCURVE",
"773 463 OFFCURVE",
"854 463 CURVE SMOOTH",
"933 463 OFFCURVE",
"985 399 OFFCURVE",
"985 302 CURVE SMOOTH",
"985 207 OFFCURVE",
"933 143 OFFCURVE",
"854 143 CURVE SMOOTH"
);
}
);
width = 1200;
},
{
layerId = m009;
paths = (
{
closed = 1;
nodes = (
"1135 951 LINE",
"1018 1106 LINE",
"63 467 LINE",
"180 306 LINE"
);
},
{
closed = 1;
nodes = (
"547 794 OFFCURVE",
"674 922 OFFCURVE",
"674 1116 CURVE SMOOTH",
"674 1313 OFFCURVE",
"547 1440 OFFCURVE",
"354 1440 CURVE SMOOTH",
"159 1440 OFFCURVE",
"32 1312 OFFCURVE",
"32 1116 CURVE SMOOTH",
"32 922 OFFCURVE",
"159 794 OFFCURVE",
"354 794 CURVE SMOOTH"
);
},
{
closed = 1;
nodes = (
"293 1007 OFFCURVE",
"254 1051 OFFCURVE",
"254 1116 CURVE SMOOTH",
"254 1183 OFFCURVE",
"293 1227 OFFCURVE",
"354 1227 CURVE SMOOTH",
"413 1227 OFFCURVE",
"452 1183 OFFCURVE",
"452 1116 CURVE SMOOTH",
"452 1051 OFFCURVE",
"413 1007 OFFCURVE",
"354 1007 CURVE SMOOTH"
);
},
{
closed = 1;
nodes = (
"1053 -20 OFFCURVE",
"1180 108 OFFCURVE",
"1180 302 CURVE SMOOTH",
"1180 498 OFFCURVE",
"1053 626 OFFCURVE",
"860 626 CURVE SMOOTH",
"665 626 OFFCURVE",
"538 498 OFFCURVE",
"538 302 CURVE SMOOTH",
"538 108 OFFCURVE",
"665 -20 OFFCURVE",
"860 -20 CURVE SMOOTH"
);
},
{
closed = 1;
nodes = (
"799 193 OFFCURVE",
"760 237 OFFCURVE",
"760 302 CURVE SMOOTH",
"760 369 OFFCURVE",
"799 413 OFFCURVE",
"860 413 CURVE SMOOTH",
"919 413 OFFCURVE",
"958 369 OFFCURVE",
"958 302 CURVE SMOOTH",
"958 237 OFFCURVE",
"919 193 OFFCURVE",
"860 193 CURVE SMOOTH"
);
}
);
width = 1200;
},
{
layerId = "8A5928CE-31B2-4F56-BC21-FB6F481DC46A";
paths = (
{
closed = 1;
nodes = (
"857 901 LINE",
"765 1031 LINE",
"48 515 LINE",
"139 379 LINE"
);
},
{
closed = 1;
nodes = (
"459 825 OFFCURVE",
"556 939 OFFCURVE",
"556 1132 CURVE SMOOTH",
"556 1328 OFFCURVE",
"459 1440 OFFCURVE",
"297 1440 CURVE SMOOTH",
"135 1440 OFFCURVE",
"37 1326 OFFCURVE",
"37 1132 CURVE SMOOTH",
"37 939 OFFCURVE",
"135 825 OFFCURVE",
"297 825 CURVE SMOOTH"
);
},
{
closed = 1;
nodes = (
"236 982 OFFCURVE",
"199 1038 OFFCURVE",
"199 1132 CURVE SMOOTH",
"199 1228 OFFCURVE",
"236 1285 OFFCURVE",
"297 1285 CURVE SMOOTH",
"358 1285 OFFCURVE",
"395 1228 OFFCURVE",
"395 1132 CURVE SMOOTH",
"395 1038 OFFCURVE",
"358 982 OFFCURVE",
"297 982 CURVE SMOOTH"
);
},
{
closed = 1;
nodes = (
"776 -20 OFFCURVE",
"873 95 OFFCURVE",
"873 288 CURVE SMOOTH",
"873 482 OFFCURVE",
"776 596 OFFCURVE",
"614 596 CURVE SMOOTH",
"452 596 OFFCURVE",
"354 482 OFFCURVE",
"354 288 CURVE SMOOTH",
"354 95 OFFCURVE",
"452 -20 OFFCURVE",
"614 -19 CURVE SMOOTH"
);
},
{
closed = 1;
nodes = (
"553 137 OFFCURVE",
"516 194 OFFCURVE",
"516 288 CURVE SMOOTH",
"516 383 OFFCURVE",
"553 439 OFFCURVE",
"614 439 CURVE SMOOTH",
"675 439 OFFCURVE",
"712 383 OFFCURVE",
"712 288 CURVE SMOOTH",
"712 194 OFFCURVE",
"675 137 OFFCURVE",
"614 137 CURVE SMOOTH"
);
}
);
width = 900;
},
{
layerId = "A3FCBCC7-55DF-4604-8A77-DC78C4EF6076";
paths = (
{
closed = 1;
nodes = (
"862 814 LINE",
"773 998 LINE",
"37 607 LINE",
"125 417 LINE"
);
},
{
closed = 1;
nodes = (
"479 825 OFFCURVE",
"588 943 OFFCURVE",
"588 1132 CURVE SMOOTH",
"588 1323 OFFCURVE",
"479 1440 OFFCURVE",
"305 1440 CURVE SMOOTH",
"130 1440 OFFCURVE",
"21 1322 OFFCURVE",
"21 1132 CURVE SMOOTH",
"21 943 OFFCURVE",
"130 825 OFFCURVE",
"305 825 CURVE SMOOTH"
);
},
{
closed = 1;
nodes = (
"258 1027 OFFCURVE",
"228 1068 OFFCURVE",
"228 1132 CURVE SMOOTH",
"228 1198 OFFCURVE",
"258 1239 OFFCURVE",
"305 1239 CURVE SMOOTH",
"352 1239 OFFCURVE",
"381 1198 OFFCURVE",
"381 1132 CURVE SMOOTH",
"381 1068 OFFCURVE",
"352 1027 OFFCURVE",
"305 1027 CURVE SMOOTH"
);
},
{
closed = 1;
nodes = (
"776 -20 OFFCURVE",
"885 98 OFFCURVE",
"885 287 CURVE SMOOTH",
"885 477 OFFCURVE",
"776 595 OFFCURVE",
"602 595 CURVE SMOOTH",
"427 595 OFFCURVE",
"318 477 OFFCURVE",
"318 287 CURVE SMOOTH",
"318 98 OFFCURVE",
"427 -20 OFFCURVE",
"602 -20 CURVE SMOOTH"
);
},
{
closed = 1;
nodes = (
"555 182 OFFCURVE",
"525 223 OFFCURVE",
"525 287 CURVE SMOOTH",
"525 353 OFFCURVE",
"555 394 OFFCURVE",
"602 394 CURVE SMOOTH",
"649 394 OFFCURVE",
"678 353 OFFCURVE",
"678 287 CURVE SMOOTH",
"678 223 OFFCURVE",
"649 182 OFFCURVE",
"602 182 CURVE SMOOTH"
);
}
);
width = 900;
},
{
layerId = "4AED55CC-054D-4448-879E-1FE49A52CF83";
paths = (
{
closed = 1;
nodes = (
"824 946 LINE",
"774 1016 LINE",
"86 471 LINE",
"136 401 LINE"
);
},
{
closed = 1;
nodes = (
"448 794 OFFCURVE",
"540 913 OFFCURVE",
"540 1116 CURVE SMOOTH",
"540 1320 OFFCURVE",
"448 1440 OFFCURVE",
"298 1440 CURVE SMOOTH",
"148 1440 OFFCURVE",
"56 1320 OFFCURVE",
"56 1116 CURVE SMOOTH",
"56 913 OFFCURVE",
"148 794 OFFCURVE",
"298 794 CURVE SMOOTH"
);
},
{
closed = 1;
nodes = (
"205 884 OFFCURVE",
"148 970 OFFCURVE",
"148 1116 CURVE SMOOTH",
"148 1263 OFFCURVE",
"205 1350 OFFCURVE",
"298 1350 CURVE SMOOTH",
"391 1350 OFFCURVE",
"448 1263 OFFCURVE",
"448 1116 CURVE SMOOTH",
"448 970 OFFCURVE",
"391 884 OFFCURVE",
"298 884 CURVE SMOOTH"
);
},
{
closed = 1;
nodes = (
"768 -20 OFFCURVE",
"860 99 OFFCURVE",
"860 302 CURVE SMOOTH",
"860 506 OFFCURVE",
"768 626 OFFCURVE",
"618 626 CURVE SMOOTH",
"468 626 OFFCURVE",
"376 506 OFFCURVE",
"376 302 CURVE SMOOTH",
"376 99 OFFCURVE",
"468 -20 OFFCURVE",
"618 -20 CURVE SMOOTH"
);
},
{
closed = 1;
nodes = (
"525 70 OFFCURVE",
"468 156 OFFCURVE",
"468 302 CURVE SMOOTH",
"468 450 OFFCURVE",
"525 536 OFFCURVE",
"618 536 CURVE SMOOTH",
"711 536 OFFCURVE",
"768 450 OFFCURVE",
"768 302 CURVE SMOOTH",
"768 156 OFFCURVE",
"711 70 OFFCURVE",
"618 70 CURVE SMOOTH"
);
}
);
width = 900;
}
);
unicode = 0025;
}
{
glyphname = ampersand;
layers = (
{
layerId = m007;
paths = (
{
closed = 1;
nodes = (
"1200 0 LINE",
"450 750 LINE SMOOTH",
"366 834 OFFCURVE",
"312 936 OFFCURVE",
"312 1040 CURVE SMOOTH",
"312 1237 OFFCURVE",
"423 1350 OFFCURVE",
"614 1350 CURVE",
"610 1440 LINE",
"360 1440 OFFCURVE",
"216 1295 OFFCURVE",
"216 1042 CURVE SMOOTH",
"216 917 OFFCURVE",
"270 801 OFFCURVE",
"355 716 CURVE SMOOTH",
"375 696 LINE",
"395 676 LINE",
"860 209 LINE",
"882 187 LINE",
"1067 0 LINE"
);
},
{
closed = 1;
nodes = (
"671 -20 OFFCURVE",
"832 64 OFFCURVE",
"935 222 CURVE",
"863 281 LINE",
"780 144 OFFCURVE",
"652 70 OFFCURVE",
"486 70 CURVE SMOOTH",
"289 70 OFFCURVE",
"176 173 OFFCURVE",
"176 354 CURVE SMOOTH",
"176 515 OFFCURVE",
"289 632 OFFCURVE",
"486 676 CURVE",
"436 738 LINE",
"210 702 OFFCURVE",
"80 558 OFFCURVE",
"80 344 CURVE SMOOTH",
"80 113 OFFCURVE",
"219 -20 OFFCURVE",
"462 -20 CURVE SMOOTH"
);
},
{
closed = 1;
nodes = (
"1022 354 OFFCURVE",
"1068 538 OFFCURVE",
"1068 766 CURVE",
"972 766 LINE",
"972 562 OFFCURVE",
"934 398 OFFCURVE",
"863 281 CURVE",
"935 222 LINE"
);
},
{
closed = 1;
nodes = (
"966 1122 LINE",
"966 1324 OFFCURVE",
"836 1440 OFFCURVE",
"610 1440 CURVE",
"614 1350 LINE",
"776 1350 OFFCURVE",
"870 1267 OFFCURVE",
"870 1122 CURVE"
);
}
);
width = 1200;
},
{
background = {
paths = (
{
closed = 1;
nodes = (
"1224 0 LINE",
"566 750 LINE SMOOTH",
"476 852 OFFCURVE",
"422 942 OFFCURVE",
"422 1040 CURVE SMOOTH",
"422 1178 OFFCURVE",
"492 1256 OFFCURVE",
"614 1256 CURVE",
"610 1440 LINE",
"350 1440 OFFCURVE",
"202 1296 OFFCURVE",
"202 1042 CURVE SMOOTH",
"202 900 OFFCURVE",
"272 757 OFFCURVE",
"446 566 CURVE SMOOTH",
"962 0 LINE"
);
},
{
closed = 1;
nodes = (
"668 -20 OFFCURVE",
"828 56 OFFCURVE",
"936 197 CURVE",
"799 332 LINE",
"728 222 OFFCURVE",
"622 164 OFFCURVE",
"486 164 CURVE SMOOTH",
"348 164 OFFCURVE",
"258 240 OFFCURVE",
"258 354 CURVE SMOOTH",
"258 484 OFFCURVE",
"362 580 OFFCURVE",
"546 616 CURVE",
"436 738 LINE",
"194 702 OFFCURVE",
"56 558 OFFCURVE",
"56 344 CURVE SMOOTH",
"56 124 OFFCURVE",
"218 -20 OFFCURVE",
"462 -20 CURVE SMOOTH"
);
},
{
closed = 1;
nodes = (
"1038 330 OFFCURVE",
"1092 523 OFFCURVE",
"1092 766 CURVE",
"900 766 LINE",
"900 580 OFFCURVE",
"865 434 OFFCURVE",
"799 332 CURVE",
"936 197 LINE"
);
},
{
closed = 1;
nodes = (
"990 1122 LINE",
"990 1324 OFFCURVE",
"851 1440 OFFCURVE",
"610 1440 CURVE",
"614 1256 LINE",
"717 1256 OFFCURVE",
"776 1208 OFFCURVE",
"776 1122 CURVE"
);
}
);
};
layerId = m008;
paths = (
{
closed = 1;
nodes = (
"1224 0 LINE",
"566 750 LINE SMOOTH",
"476 852 OFFCURVE",
"422 942 OFFCURVE",
"422 1040 CURVE SMOOTH",
"422 1178 OFFCURVE",
"492 1256 OFFCURVE",
"614 1256 CURVE",
"610 1440 LINE",
"350 1440 OFFCURVE",
"202 1296 OFFCURVE",
"202 1042 CURVE SMOOTH",
"202 924 OFFCURVE",
"240 795 OFFCURVE",
"375 647 CURVE SMOOTH",
"392 629 LINE",
"410 609 LINE",
"786 194 LINE",
"811 167 LINE",
"962 0 LINE"
);
},
{
closed = 1;
nodes = (
"668 -20 OFFCURVE",
"828 56 OFFCURVE",
"936 197 CURVE",
"799 332 LINE",
"728 222 OFFCURVE",
"622 164 OFFCURVE",
"486 164 CURVE SMOOTH",
"348 164 OFFCURVE",
"258 240 OFFCURVE",
"258 354 CURVE SMOOTH",
"258 484 OFFCURVE",
"362 580 OFFCURVE",
"546 616 CURVE",
"436 738 LINE",
"194 702 OFFCURVE",
"56 558 OFFCURVE",
"56 344 CURVE SMOOTH",
"56 124 OFFCURVE",
"218 -20 OFFCURVE",
"462 -20 CURVE SMOOTH"
);
},
{
closed = 1;
nodes = (
"1038 330 OFFCURVE",
"1092 523 OFFCURVE",
"1092 766 CURVE",
"900 766 LINE",
"900 580 OFFCURVE",
"865 434 OFFCURVE",
"799 332 CURVE",
"936 197 LINE"
);
},
{
closed = 1;
nodes = (
"990 1122 LINE",
"990 1324 OFFCURVE",
"851 1440 OFFCURVE",
"610 1440 CURVE",
"614 1256 LINE",
"717 1256 OFFCURVE",
"776 1208 OFFCURVE",
"776 1122 CURVE"
);
}
);
width = 1200;
},
{
layerId = m009;
paths = (
{
closed = 1;
nodes = (
"1241 0 LINE",
"583 792 LINE SMOOTH",
"514 875 OFFCURVE",
"480 950 OFFCURVE",
"480 1040 CURVE SMOOTH",
"480 1142 OFFCURVE",
"522 1189 OFFCURVE",
"614 1189 CURVE",
"627 1440 LINE",
"333 1440 OFFCURVE",
"202 1317 OFFCURVE",
"202 1042 CURVE SMOOTH",
"202 904 OFFCURVE",
"263 777 OFFCURVE",
"404 608 CURVE SMOOTH",
"426 582 LINE",
"437 569 LINE",
"728 220 LINE",
"748 196 LINE",
"912 0 LINE"
);
},
{
closed = 1;
nodes = (
"665 -20 OFFCURVE",
"825 50 OFFCURVE",
"935 180 CURVE",
"752 384 LINE",
"693 284 OFFCURVE",
"602 231 OFFCURVE",
"486 231 CURVE SMOOTH",
"383 231 OFFCURVE",
"316 293 OFFCURVE",
"316 387 CURVE SMOOTH",
"316 476 OFFCURVE",
"400 542 OFFCURVE",
"546 566 CURVE",
"436 771 LINE",
"183 732 OFFCURVE",
"39 576 OFFCURVE",
"39 344 CURVE SMOOTH",
"39 124 OFFCURVE",
"208 -20 OFFCURVE",
"462 -20 CURVE SMOOTH"
);
},
{
closed = 1;
nodes = (
"1048 314 OFFCURVE",
"1109 513 OFFCURVE",
"1109 766 CURVE",
"835 766 LINE",
"835 604 OFFCURVE",
"806 475 OFFCURVE",
"752 384 CURVE",
"935 180 LINE"
);
},
{
closed = 1;
nodes = (
"1007 1072 LINE",
"1007 1306 OFFCURVE",
"868 1440 OFFCURVE",
"627 1440 CURVE",
"614 1189 LINE",
"680 1189 OFFCURVE",
"718 1147 OFFCURVE",
"718 1072 CURVE"
);
}
);
width = 1200;
},
{
layerId = "8A5928CE-31B2-4F56-BC21-FB6F481DC46A";
paths = (
{
closed = 1;
nodes = (
"912 0 LINE",
"420 837 LINE SMOOTH",
"360 929 OFFCURVE",
"320 1014 OFFCURVE",
"320 1106 CURVE SMOOTH",
"320 1206 OFFCURVE",
"370 1263 OFFCURVE",
"456 1263 CURVE",
"453 1440 LINE",
"249 1440 OFFCURVE",
"132 1315 OFFCURVE",
"132 1098 CURVE SMOOTH",
"132 989 OFFCURVE",
"165 882 OFFCURVE",
"248 768 CURVE SMOOTH",
"296 650 LINE",
"317 608 LINE",
"579 197 LINE",
"600 160 LINE",
"702 0 LINE"
);
},
{
closed = 1;
nodes = (
"495 -20 OFFCURVE",
"605 45 OFFCURVE",
"675 167 CURVE",
"598 346 LINE",
"548 222 OFFCURVE",
"469 157 OFFCURVE",
"366 157 CURVE SMOOTH",
"271 157 OFFCURVE",
"213 220 OFFCURVE",
"213 324 CURVE SMOOTH",
"213 448 OFFCURVE",
"297 560 OFFCURVE",
"437 631 CURVE",
"343 748 LINE",
"148 681 OFFCURVE",
"30 519 OFFCURVE",
"30 314 CURVE SMOOTH",
"30 104 OFFCURVE",
"150 -20 OFFCURVE",
"348 -20 CURVE SMOOTH"
);
},
{
closed = 1;
nodes = (
"785 400 OFFCURVE",
"831 583 OFFCURVE",
"831 821 CURVE",
"661 821 LINE",
"661 653 OFFCURVE",
"638 521 OFFCURVE",
"593 426 CURVE",
"695 277 LINE"
);
},
{
closed = 1;
nodes = (
"761 1122 LINE",
"761 1323 OFFCURVE",
"648 1440 OFFCURVE",
"453 1440 CURVE",
"456 1263 LINE",
"531 1263 OFFCURVE",
"575 1212 OFFCURVE",
"575 1122 CURVE"
);
}
);
width = 900;
},
{
layerId = "A3FCBCC7-55DF-4604-8A77-DC78C4EF6076";
paths = (
{
closed = 1;
nodes = (
"921 0 LINE",
"433 893 LINE SMOOTH",
"389 964 OFFCURVE",
"366 1023 OFFCURVE",
"366 1096 CURVE SMOOTH",
"366 1168 OFFCURVE",
"394 1205 OFFCURVE",
"451 1205 CURVE",
"462 1440 LINE",
"234 1440 OFFCURVE",
"122 1325 OFFCURVE",
"122 1098 CURVE SMOOTH",
"122 981 OFFCURVE",
"160 885 OFFCURVE",
"242 765 CURVE SMOOTH",
"308 578 LINE",
"324 586 LINE",
"533 226 LINE",
"539 168 LINE",
"643 0 LINE"
);
},
{
closed = 1;
nodes = (
"466 -20 OFFCURVE",
"574 52 OFFCURVE",
"644 189 CURVE",
"560 372 LINE",
"521 273 OFFCURVE",
"460 221 OFFCURVE",
"381 221 CURVE SMOOTH",
"311 221 OFFCURVE",
"267 270 OFFCURVE",
"267 350 CURVE SMOOTH",
"267 442 OFFCURVE",
"327 526 OFFCURVE",
"427 581 CURVE",
"333 740 LINE",
"138 676 OFFCURVE",
"21 517 OFFCURVE",
"21 314 CURVE SMOOTH",
"21 104 OFFCURVE",
"137 -20 OFFCURVE",
"323 -20 CURVE SMOOTH"
);
},
{
closed = 1;
nodes = (
"803 394 OFFCURVE",
"855 599 OFFCURVE",
"855 866 CURVE",
"615 866 LINE",
"625 696 OFFCURVE",
"614 560 OFFCURVE",
"585 462 CURVE",
"705 259 LINE"
);
},
{
closed = 1;
nodes = (
"778 1097 LINE",
"778 1314 OFFCURVE",
"662 1440 OFFCURVE",
"462 1440 CURVE",
"451 1205 LINE",
"501 1205 OFFCURVE",
"531 1165 OFFCURVE",
"531 1097 CURVE"
);
}
);
width = 900;
},
{
layerId = "4AED55CC-054D-4448-879E-1FE49A52CF83";
paths = (
{
closed = 1;
nodes = (
"900 0 LINE",
"358 761 LINE SMOOTH",
"290 863 OFFCURVE",
"240 975 OFFCURVE",
"240 1091 CURVE SMOOTH",
"240 1261 OFFCURVE",
"316 1350 OFFCURVE",
"456 1350 CURVE",
"453 1440 LINE",
"251 1440 OFFCURVE",
"144 1321 OFFCURVE",
"144 1093 CURVE SMOOTH",
"144 955 OFFCURVE",
"197 831 OFFCURVE",
"265 731 CURVE SMOOTH",
"302 659 LINE",
"318 637 LINE",
"633 219 LINE",
"653 187 LINE",
"785 0 LINE"
);
},
{
closed = 1;
nodes = (
"500 -20 OFFCURVE",
"623 61 OFFCURVE",
"702 217 CURVE",
"636 304 LINE",
"576 151 OFFCURVE",
"479 70 OFFCURVE",
"351 70 CURVE SMOOTH",
"214 70 OFFCURVE",
"138 152 OFFCURVE",
"138 299 CURVE SMOOTH",
"138 458 OFFCURVE",
"238 580 OFFCURVE",
"402 641 CURVE",
"358 703 LINE",
"162 651 OFFCURVE",
"42 502 OFFCURVE",
"42 289 CURVE SMOOTH",
"42 90 OFFCURVE",
"147 -20 OFFCURVE",
"338 -20 CURVE SMOOTH"
);
},
{
closed = 1;
nodes = (
"769 348 OFFCURVE",
"804 533 OFFCURVE",
"804 766 CURVE",
"709 766 LINE",
"709 574 OFFCURVE",
"684 419 OFFCURVE",
"636 304 CURVE",
"702 217 LINE"
);
},
{
closed = 1;
nodes = (
"739 1122 LINE",
"739 1332 OFFCURVE",
"640 1440 OFFCURVE",
"453 1440 CURVE",
"456 1350 LINE",
"577 1350 OFFCURVE",
"643 1273 OFFCURVE",
"643 1122 CURVE"
);
}
);
width = 900;
}
);
unicode = 0026;
}
{
glyphname = quotesingle;
layers = (
{
layerId = m007;
paths = (
{
closed = 1;
nodes = (
"647 780 LINE",
"652 1420 LINE",
"548 1420 LINE",
"553 780 LINE"
);
}
);
width = 1200;
},
{
layerId = m008;
paths = (
{
closed = 1;
nodes = (
"696 780 LINE",
"716 1420 LINE",
"484 1420 LINE",
"504 780 LINE"
);
}
);
width = 1200;
},
{
layerId = m009;
paths = (
{
closed = 1;
nodes = (
"721 780 LINE",
"758 1420 LINE",
"442 1420 LINE",
"479 780 LINE"
);
}
);
width = 1200;
},
{
layerId = "8A5928CE-31B2-4F56-BC21-FB6F481DC46A";
paths = (
{
closed = 1;
nodes = (
"531 780 LINE",
"546 1420 LINE",
"354 1420 LINE",
"369 780 LINE"
);
}
);
width = 900;
},
{
layerId = "A3FCBCC7-55DF-4604-8A77-DC78C4EF6076";
paths = (
{
closed = 1;
nodes = (
"551 780 LINE",
"588 1420 LINE",
"312 1420 LINE",
"349 780 LINE"
);
}
);
width = 900;
},
{
layerId = "4AED55CC-054D-4448-879E-1FE49A52CF83";
paths = (
{
closed = 1;
nodes = (
"497 780 LINE",
"502 1420 LINE",
"398 1420 LINE",
"403 780 LINE"
);
}
);
width = 900;
}
);
unicode = 0027;
}
{
glyphname = parenleft;
layers = (
{
layerId = m007;
paths = (
{
closed = 1;
nodes = (
"974 -200 LINE",
"974 -110 LINE",
"946 -110 LINE SMOOTH",
"588 -110 OFFCURVE",
"386 192 OFFCURVE",
"386 716 CURVE SMOOTH",
"386 1232 OFFCURVE",
"588 1530 OFFCURVE",
"946 1530 CURVE SMOOTH",
"974 1530 LINE",
"974 1620 LINE",
"946 1620 LINE SMOOTH",
"529 1620 OFFCURVE",
"290 1291 OFFCURVE",
"290 716 CURVE SMOOTH",
"290 133 OFFCURVE",
"529 -200 OFFCURVE",
"946 -200 CURVE SMOOTH"
);
}
);
width = 1200;
},
{
guideLines = (
{
angle = 90;
position = "{998, 812}";
}
);
layerId = m008;
paths = (
{
closed = 1;
nodes = (
"998 -200 LINE",
"998 -20 LINE",
"970 -20 LINE SMOOTH",
"654 -20 OFFCURVE",
"476 249 OFFCURVE",
"476 716 CURVE SMOOTH",
"476 1175 OFFCURVE",
"654 1440 OFFCURVE",
"970 1440 CURVE SMOOTH",
"998 1440 LINE",
"998 1620 LINE",
"950 1620 LINE SMOOTH",
"516 1620 OFFCURVE",
"266 1291 OFFCURVE",
"266 716 CURVE SMOOTH",
"266 133 OFFCURVE",
"516 -200 OFFCURVE",
"950 -200 CURVE SMOOTH"
);
}
);
width = 1200;
},
{
layerId = m009;
paths = (
{
closed = 1;
nodes = (
"1014 -200 LINE",
"1014 51 LINE",
"970 51 LINE SMOOTH",
"686 51 OFFCURVE",
"526 294 OFFCURVE",
"526 716 CURVE SMOOTH",
"526 1130 OFFCURVE",
"686 1369 OFFCURVE",
"970 1369 CURVE SMOOTH",
"1014 1369 LINE",
"1014 1620 LINE",
"970 1620 LINE SMOOTH",
"512 1620 OFFCURVE",
"249 1291 OFFCURVE",
"249 716 CURVE SMOOTH",
"249 133 OFFCURVE",
"512 -200 OFFCURVE",
"970 -200 CURVE SMOOTH"
);
}
);
width = 1200;
},
{
layerId = "8A5928CE-31B2-4F56-BC21-FB6F481DC46A";
paths = (
{
closed = 1;
nodes = (
"769 -200 LINE",
"769 -25 LINE",
"746 -25 LINE SMOOTH",
"504 -25 OFFCURVE",
"386 205 OFFCURVE",
"386 713 CURVE SMOOTH",
"386 1218 OFFCURVE",
"504 1445 OFFCURVE",
"746 1445 CURVE SMOOTH",
"769 1445 LINE",
"769 1620 LINE",
"736 1620 LINE SMOOTH",
"374 1620 OFFCURVE",
"199 1339 OFFCURVE",
"199 714 CURVE SMOOTH",
"199 84 OFFCURVE",
"374 -200 OFFCURVE",
"736 -200 CURVE SMOOTH"
);
}
);
width = 900;
},
{
layerId = "A3FCBCC7-55DF-4604-8A77-DC78C4EF6076";
paths = (
{
closed = 1;
nodes = (
"777 -200 LINE",
"777 35 LINE",
"746 35 LINE SMOOTH",
"530 35 OFFCURVE",
"421 255 OFFCURVE",
"421 713 CURVE SMOOTH",
"421 1167 OFFCURVE",
"530 1385 OFFCURVE",
"746 1385 CURVE SMOOTH",
"777 1385 LINE",
"777 1620 LINE",
"746 1620 LINE SMOOTH",
"370 1620 OFFCURVE",
"180 1326 OFFCURVE",
"180 714 CURVE SMOOTH",
"180 97 OFFCURVE",
"370 -200 OFFCURVE",
"746 -200 CURVE SMOOTH"
);
}
);
width = 900;
},
{
layerId = "4AED55CC-054D-4448-879E-1FE49A52CF83";
paths = (
{
closed = 1;
nodes = (
"752 -200 LINE",
"752 -110 LINE",
"724 -110 LINE SMOOTH",
"461 -110 OFFCURVE",
"317 182 OFFCURVE",
"317 713 CURVE SMOOTH",
"317 1241 OFFCURVE",
"461 1530 OFFCURVE",
"724 1530 CURVE SMOOTH",
"752 1530 LINE",
"752 1620 LINE",
"724 1620 LINE SMOOTH",
"400 1620 OFFCURVE",
"221 1300 OFFCURVE",
"221 714 CURVE SMOOTH",
"221 123 OFFCURVE",
"400 -200 OFFCURVE",
"724 -200 CURVE SMOOTH"
);
}
);
width = 900;
}
);
unicode = 0028;
}
{
glyphname = parenright;
layers = (
{
layerId = m007;
paths = (
{
closed = 1;
nodes = (
"254 -200 LINE SMOOTH",
"671 -200 OFFCURVE",
"910 133 OFFCURVE",
"910 716 CURVE SMOOTH",
"910 1291 OFFCURVE",
"671 1620 OFFCURVE",
"254 1620 CURVE SMOOTH",
"226 1620 LINE",
"226 1530 LINE",
"254 1530 LINE SMOOTH",
"612 1530 OFFCURVE",
"814 1232 OFFCURVE",
"814 716 CURVE SMOOTH",
"814 192 OFFCURVE",
"612 -110 OFFCURVE",
"254 -110 CURVE SMOOTH",
"226 -110 LINE",
"226 -200 LINE"
);
}
);
width = 1200;
},
{
guideLines = (
{
angle = 90;
position = "{202, 812}";
}
);
layerId = m008;
paths = (
{
closed = 1;
nodes = (
"250 -200 LINE SMOOTH",
"684 -200 OFFCURVE",
"934 133 OFFCURVE",
"934 716 CURVE SMOOTH",
"934 1291 OFFCURVE",
"684 1620 OFFCURVE",
"250 1620 CURVE SMOOTH",
"202 1620 LINE",
"202 1440 LINE",
"230 1440 LINE SMOOTH",
"546 1440 OFFCURVE",
"724 1175 OFFCURVE",
"724 716 CURVE SMOOTH",
"724 249 OFFCURVE",
"546 -20 OFFCURVE",
"230 -20 CURVE SMOOTH",
"202 -20 LINE",
"202 -200 LINE"
);
}
);
width = 1200;
},
{
layerId = m009;
paths = (
{
closed = 1;
nodes = (
"229 -200 LINE SMOOTH",
"687 -200 OFFCURVE",
"950 133 OFFCURVE",
"950 716 CURVE SMOOTH",
"950 1291 OFFCURVE",
"687 1620 OFFCURVE",
"229 1620 CURVE SMOOTH",
"186 1620 LINE",
"186 1369 LINE",
"229 1369 LINE SMOOTH",
"514 1369 OFFCURVE",
"673 1130 OFFCURVE",
"673 716 CURVE SMOOTH",
"673 294 OFFCURVE",
"514 51 OFFCURVE",
"229 51 CURVE SMOOTH",
"186 51 LINE",
"186 -200 LINE"
);
}
);
width = 1200;
},
{
layerId = "8A5928CE-31B2-4F56-BC21-FB6F481DC46A";
paths = (
{
closed = 1;
nodes = (
"164 -200 LINE SMOOTH",
"526 -200 OFFCURVE",
"702 84 OFFCURVE",
"702 714 CURVE SMOOTH",
"702 1339 OFFCURVE",
"526 1620 OFFCURVE",
"164 1620 CURVE SMOOTH",
"131 1620 LINE",
"131 1445 LINE",
"154 1445 LINE SMOOTH",
"396 1445 OFFCURVE",
"515 1218 OFFCURVE",
"515 713 CURVE SMOOTH",
"515 205 OFFCURVE",
"396 -25 OFFCURVE",
"154 -25 CURVE SMOOTH",
"131 -25 LINE",
"131 -200 LINE"
);
}
);
width = 900;
},
{
layerId = "A3FCBCC7-55DF-4604-8A77-DC78C4EF6076";
paths = (
{
closed = 1;
nodes = (
"154 -200 LINE SMOOTH",
"530 -200 OFFCURVE",
"720 97 OFFCURVE",
"720 714 CURVE SMOOTH",
"720 1326 OFFCURVE",
"530 1620 OFFCURVE",
"154 1620 CURVE SMOOTH",
"123 1620 LINE",
"123 1385 LINE",
"154 1385 LINE SMOOTH",
"370 1385 OFFCURVE",
"479 1167 OFFCURVE",
"479 713 CURVE SMOOTH",
"479 255 OFFCURVE",
"370 35 OFFCURVE",
"154 35 CURVE SMOOTH",
"123 35 LINE",
"123 -200 LINE"
);
}
);
width = 900;
},
{
layerId = "4AED55CC-054D-4448-879E-1FE49A52CF83";
paths = (
{
closed = 1;
nodes = (
"176 -200 LINE SMOOTH",
"500 -200 OFFCURVE",
"680 123 OFFCURVE",
"680 714 CURVE SMOOTH",
"680 1300 OFFCURVE",
"500 1620 OFFCURVE",
"176 1620 CURVE SMOOTH",
"148 1620 LINE",
"148 1530 LINE",
"176 1530 LINE SMOOTH",
"439 1530 OFFCURVE",
"584 1241 OFFCURVE",
"584 713 CURVE SMOOTH",
"584 182 OFFCURVE",
"439 -110 OFFCURVE",
"176 -110 CURVE SMOOTH",
"148 -110 LINE",
"148 -200 LINE"
);
}
);
width = 900;
}
);
unicode = 0029;
}
{
glyphname = zero;
layers = (
{
layerId = m007;
paths = (
{
closed = 1;
nodes = (
"906 -20 OFFCURVE",
"1060 218 OFFCURVE",
"1060 700 CURVE SMOOTH",
"1060 1194 OFFCURVE",
"906 1440 OFFCURVE",
"600 1440 CURVE SMOOTH",
"294 1440 OFFCURVE",
"140 1194 OFFCURVE",
"140 700 CURVE SMOOTH",
"140 218 OFFCURVE",
"294 -20 OFFCURVE",
"600 -20 CURVE SMOOTH"
);
},
{
closed = 1;
nodes = (
"660 601 OFFCURVE",
"700 640 OFFCURVE",
"700 700 CURVE SMOOTH",
"700 760 OFFCURVE",
"660 800 OFFCURVE",
"600 800 CURVE SMOOTH",
"540 800 OFFCURVE",
"500 760 OFFCURVE",
"500 700 CURVE SMOOTH",
"500 640 OFFCURVE",
"540 601 OFFCURVE",
"600 601 CURVE SMOOTH"
);
},
{
closed = 1;
nodes = (
"358 70 OFFCURVE",
"236 279 OFFCURVE",
"236 700 CURVE SMOOTH",
"236 1135 OFFCURVE",
"358 1350 OFFCURVE",
"600 1350 CURVE SMOOTH",
"842 1350 OFFCURVE",
"964 1135 OFFCURVE",
"964 700 CURVE SMOOTH",
"964 279 OFFCURVE",
"842 70 OFFCURVE",
"600 70 CURVE SMOOTH"
);
}
);
width = 1200;
},
{
layerId = m008;
paths = (
{
closed = 1;
nodes = (
"922 -20 OFFCURVE",
"1084 218 OFFCURVE",
"1084 700 CURVE SMOOTH",
"1084 1194 OFFCURVE",
"922 1440 OFFCURVE",
"600 1440 CURVE SMOOTH",
"278 1440 OFFCURVE",
"116 1194 OFFCURVE",
"116 700 CURVE SMOOTH",
"116 218 OFFCURVE",
"278 -20 OFFCURVE",
"600 -20 CURVE SMOOTH"
);
},
{
closed = 1;
nodes = (
"690 550 OFFCURVE",
"750 610 OFFCURVE",
"750 700 CURVE SMOOTH",
"750 790 OFFCURVE",
"690 850 OFFCURVE",
"600 850 CURVE SMOOTH",
"510 850 OFFCURVE",
"450 790 OFFCURVE",
"450 700 CURVE SMOOTH",
"450 610 OFFCURVE",
"510 550 OFFCURVE",
"600 550 CURVE SMOOTH"
);
},
{
closed = 1;
nodes = (
"420 164 OFFCURVE",
"330 342 OFFCURVE",
"330 700 CURVE SMOOTH",
"330 1072 OFFCURVE",
"420 1256 OFFCURVE",
"600 1256 CURVE SMOOTH",
"780 1256 OFFCURVE",
"870 1072 OFFCURVE",
"870 700 CURVE SMOOTH",
"870 342 OFFCURVE",
"780 164 OFFCURVE",
"600 164 CURVE SMOOTH"
);
}
);
width = 1200;
},
{
layerId = m009;
paths = (
{
closed = 1;
nodes = (
"933 -20 OFFCURVE",
"1101 218 OFFCURVE",
"1101 700 CURVE SMOOTH",
"1101 1194 OFFCURVE",
"933 1440 OFFCURVE",
"600 1440 CURVE SMOOTH",
"267 1440 OFFCURVE",
"99 1194 OFFCURVE",
"99 700 CURVE SMOOTH",
"99 218 OFFCURVE",
"267 -20 OFFCURVE",
"600 -20 CURVE SMOOTH"
);
},
{
closed = 1;
nodes = (
"678 517 OFFCURVE",
"732 589 OFFCURVE",
"732 700 CURVE SMOOTH",
"732 811 OFFCURVE",
"678 883 OFFCURVE",
"598 883 CURVE SMOOTH",
"518 883 OFFCURVE",
"465 811 OFFCURVE",
"465 700 CURVE SMOOTH",
"465 589 OFFCURVE",
"518 517 OFFCURVE",
"598 517 CURVE SMOOTH"
);
},
{
closed = 1;
nodes = (
"446 232 OFFCURVE",
"368 388 OFFCURVE",
"368 700 CURVE SMOOTH",
"368 1026 OFFCURVE",
"446 1188 OFFCURVE",
"600 1188 CURVE SMOOTH",
"753 1188 OFFCURVE",
"828 1026 OFFCURVE",
"828 700 CURVE SMOOTH",
"828 388 OFFCURVE",
"753 232 OFFCURVE",
"600 232 CURVE SMOOTH"
);
}
);
width = 1200;
},
{
layerId = "8A5928CE-31B2-4F56-BC21-FB6F481DC46A";
paths = (
{
closed = 1;
nodes = (
"709 -20 OFFCURVE",
"824 192 OFFCURVE",
"824 700 CURVE SMOOTH",
"824 1222 OFFCURVE",
"709 1440 OFFCURVE",
"450 1440 CURVE SMOOTH",
"191 1440 OFFCURVE",
"76 1222 OFFCURVE",
"76 700 CURVE SMOOTH",
"76 192 OFFCURVE",
"191 -20 OFFCURVE",
"450 -20 CURVE SMOOTH"
);
},
{
closed = 1;
nodes = (
"522 550 OFFCURVE",
"570 610 OFFCURVE",
"570 700 CURVE SMOOTH",
"570 790 OFFCURVE",
"522 850 OFFCURVE",
"450 850 CURVE SMOOTH",
"378 850 OFFCURVE",
"331 790 OFFCURVE",
"331 700 CURVE SMOOTH",
"331 611 OFFCURVE",
"378 550 OFFCURVE",
"450 550 CURVE SMOOTH"
);
},
{
closed = 1;
nodes = (
"317 157 OFFCURVE",
"257 317 OFFCURVE",
"257 700 CURVE SMOOTH",
"257 1098 OFFCURVE",
"317 1263 OFFCURVE",
"450 1263 CURVE SMOOTH",
"583 1263 OFFCURVE",
"643 1098 OFFCURVE",
"643 700 CURVE SMOOTH",
"643 317 OFFCURVE",
"583 157 OFFCURVE",
"450 157 CURVE SMOOTH"
);
}
);
width = 900;
},
{
layerId = "A3FCBCC7-55DF-4604-8A77-DC78C4EF6076";
paths = (
{
closed = 1;
nodes = (
"711 -20 OFFCURVE",
"838 212 OFFCURVE",
"838 700 CURVE SMOOTH",
"838 1201 OFFCURVE",
"711 1440 OFFCURVE",
"450 1440 CURVE SMOOTH",
"190 1440 OFFCURVE",
"63 1201 OFFCURVE",
"63 700 CURVE SMOOTH",
"63 212 OFFCURVE",
"190 -20 OFFCURVE",
"450 -20 CURVE SMOOTH"
);
},
{
closed = 1;
nodes = (
"516 503 OFFCURVE",
"556 572 OFFCURVE",
"556 700 CURVE SMOOTH",
"556 828 OFFCURVE",
"516 897 OFFCURVE",
"449 897 CURVE SMOOTH",
"382 897 OFFCURVE",
"343 828 OFFCURVE",
"343 700 CURVE SMOOTH",
"343 572 OFFCURVE",
"382 503 OFFCURVE",
"449 503 CURVE SMOOTH"
);
},
{
closed = 1;
nodes = (
"337 217 OFFCURVE",
"281 373 OFFCURVE",
"281 700 CURVE SMOOTH",
"281 1042 OFFCURVE",
"337 1204 OFFCURVE",
"450 1204 CURVE SMOOTH",
"563 1204 OFFCURVE",
"617 1042 OFFCURVE",
"617 700 CURVE SMOOTH",
"617 373 OFFCURVE",
"563 217 OFFCURVE",
"450 217 CURVE SMOOTH"
);
}
);
width = 900;
},
{
layerId = "4AED55CC-054D-4448-879E-1FE49A52CF83";
paths = (
{
closed = 1;
nodes = (
"689 -20 OFFCURVE",
"795 192 OFFCURVE",
"795 700 CURVE SMOOTH",
"795 1222 OFFCURVE",
"689 1440 OFFCURVE",
"450 1440 CURVE SMOOTH",
"212 1440 OFFCURVE",
"105 1222 OFFCURVE",
"105 700 CURVE SMOOTH",
"105 192 OFFCURVE",
"212 -20 OFFCURVE",
"450 -20 CURVE SMOOTH"
);
},
{
closed = 1;
nodes = (
"503 601 OFFCURVE",
"539 640 OFFCURVE",
"539 700 CURVE SMOOTH",
"539 760 OFFCURVE",
"503 800 OFFCURVE",
"450 800 CURVE SMOOTH",
"397 800 OFFCURVE",
"362 760 OFFCURVE",
"362 700 CURVE SMOOTH",
"362 640 OFFCURVE",
"397 601 OFFCURVE",
"450 601 CURVE SMOOTH"
);
},
{
closed = 1;
nodes = (
"279 70 OFFCURVE",
"200 256 OFFCURVE",
"200 700 CURVE SMOOTH",
"200 1159 OFFCURVE",
"279 1350 OFFCURVE",
"450 1350 CURVE SMOOTH",
"622 1350 OFFCURVE",
"700 1159 OFFCURVE",
"700 700 CURVE SMOOTH",
"700 256 OFFCURVE",
"622 70 OFFCURVE",
"450 70 CURVE SMOOTH"
);
}
);
width = 900;
}
);
unicode = 0030;
}
{
glyphname = one;
layers = (
{
layerId = m007;
paths = (
{
closed = 1;
nodes = (
"677 0 LINE",
"677 1420 LINE",
"583 1420 LINE",
"583 0 LINE"
);
},
{
closed = 1;
nodes = (
"603 0 LINE",
"603 90 LINE",
"194 90 LINE",
"194 0 LINE"
);
},
{
closed = 1;
nodes = (
"1028 0 LINE",
"1028 90 LINE",
"655 90 LINE",
"655 0 LINE"
);
},
{
closed = 1;
nodes = (
"583 1324 LINE",
"583 1420 LINE",
"214 1300 LINE",
"214 1208 LINE"
);
}
);
width = 1200;
},
{
layerId = m008;
paths = (
{
closed = 1;
nodes = (
"734 0 LINE",
"734 1420 LINE",
"526 1420 LINE",
"526 0 LINE"
);
},
{
closed = 1;
nodes = (
"546 0 LINE",
"546 190 LINE",
"170 190 LINE",
"170 0 LINE"
);
},
{
closed = 1;
nodes = (
"1052 0 LINE",
"1052 190 LINE",
"714 190 LINE",
"714 0 LINE"
);
},
{
closed = 1;
nodes = (
"526 1214 LINE",
"526 1420 LINE",
"190 1300 LINE",
"190 1098 LINE"
);
}
);
width = 1200;
},
{
layerId = m009;
paths = (
{
closed = 1;
nodes = (
"762 0 LINE",
"762 1420 LINE",
"498 1420 LINE",
"498 0 LINE"
);
},
{
closed = 1;
nodes = (
"518 0 LINE",
"518 234 LINE",
"153 234 LINE",
"153 0 LINE"
);
},
{
closed = 1;
nodes = (
"1069 0 LINE",
"1069 234 LINE",
"742 234 LINE",
"742 0 LINE"
);
},
{
closed = 1;
nodes = (
"498 1164 LINE",
"498 1420 LINE",
"173 1300 LINE",
"173 1048 LINE"
);
}
);
width = 1200;
},
{
layerId = "8A5928CE-31B2-4F56-BC21-FB6F481DC46A";
paths = (
{
closed = 1;
nodes = (
"570 0 LINE",
"570 1420 LINE",
"387 1420 LINE",
"387 0 LINE"
);
},
{
closed = 1;
nodes = (
"401 0 LINE",
"401 180 LINE",
"127 180 LINE",
"127 0 LINE"
);
},
{
closed = 1;
nodes = (
"789 0 LINE",
"789 180 LINE",
"556 180 LINE",
"556 0 LINE"
);
},
{
closed = 1;
nodes = (
"387 1224 LINE",
"387 1420 LINE",
"141 1300 LINE",
"141 1108 LINE"
);
}
);
width = 900;
},
{
layerId = "A3FCBCC7-55DF-4604-8A77-DC78C4EF6076";
paths = (
{
closed = 1;
nodes = (
"592 0 LINE",
"592 1420 LINE",
"357 1420 LINE",
"357 0 LINE"
);
},
{
closed = 1;
nodes = (
"372 0 LINE",
"372 227 LINE",
"115 227 LINE",
"115 0 LINE"
);
},
{
closed = 1;
nodes = (
"796 0 LINE",
"796 227 LINE",
"578 227 LINE",
"578 0 LINE"
);
},
{
closed = 1;
nodes = (
"357 1159 LINE",
"357 1420 LINE",
"130 1300 LINE",
"130 1043 LINE"
);
}
);
width = 900;
},
{
layerId = "4AED55CC-054D-4448-879E-1FE49A52CF83";
paths = (
{
closed = 1;
nodes = (
"529 0 LINE",
"529 1420 LINE",
"435 1420 LINE",
"435 0 LINE"
);
},
{
closed = 1;
nodes = (
"449 0 LINE",
"449 90 LINE",
"151 90 LINE",
"151 0 LINE"
);
},
{
closed = 1;
nodes = (
"765 0 LINE",
"765 90 LINE",
"514 90 LINE",
"514 0 LINE"
);
},
{
closed = 1;
nodes = (
"435 1319 LINE",
"435 1420 LINE",
"165 1300 LINE",
"165 1203 LINE"
);
}
);
width = 900;
}
);
unicode = 0031;
}
{
glyphname = two;
layers = (
{
layerId = m007;
paths = (
{
closed = 1;
nodes = (
"276 0 LINE",
"276 100 LINE",
"744 354 OFFCURVE",
"992 654 OFFCURVE",
"992 1002 CURVE SMOOTH",
"992 1280 OFFCURVE",
"838 1440 OFFCURVE",
"568 1440 CURVE SMOOTH",
"371 1440 OFFCURVE",
"236 1371 OFFCURVE",
"130 1261 CURVE",
"188 1204 LINE",
"298 1302 OFFCURVE",
"423 1350 OFFCURVE",
"564 1350 CURVE SMOOTH",
"775 1350 OFFCURVE",
"896 1223 OFFCURVE",
"896 1002 CURVE SMOOTH",
"896 688 OFFCURVE",
"657 399 OFFCURVE",
"176 133 CURVE",
"176 0 LINE"
);
},
{
closed = 1;
nodes = (
"1052 0 LINE",
"1052 90 LINE",
"236 90 LINE",
"236 0 LINE"
);
}
);
width = 1200;
},
{
layerId = m008;
paths = (
{
closed = 1;
nodes = (
"464 0 LINE",
"464 220 LINE",
"836 463 OFFCURVE",
"1016 725 OFFCURVE",
"1016 1012 CURVE SMOOTH",
"1016 1298 OFFCURVE",
"868 1440 OFFCURVE",
"568 1440 CURVE SMOOTH",
"382 1440 OFFCURVE",
"198 1353 OFFCURVE",
"106 1221 CURVE",
"244 1084 LINE",
"328 1188 OFFCURVE",
"456 1256 OFFCURVE",
"564 1256 CURVE SMOOTH",
"726 1256 OFFCURVE",
"806 1175 OFFCURVE",
"806 1012 CURVE SMOOTH",
"806 733 OFFCURVE",
"591 470 OFFCURVE",
"152 228 CURVE",
"152 0 LINE"
);
},
{
closed = 1;
nodes = (
"1076 0 LINE",
"1076 190 LINE",
"212 190 LINE",
"212 0 LINE"
);
}
);
width = 1200;
},
{
layerId = m009;
paths = (
{
closed = 1;
nodes = (
"556 0 LINE",
"556 272 LINE",
"877 499 OFFCURVE",
"1033 744 OFFCURVE",
"1033 1012 CURVE SMOOTH",
"1033 1298 OFFCURVE",
"879 1440 OFFCURVE",
"568 1440 CURVE SMOOTH",
"369 1440 OFFCURVE",
"171 1343 OFFCURVE",
"73 1196 CURVE",
"227 1017 LINE",
"316 1121 OFFCURVE",
"450 1189 OFFCURVE",
"564 1189 CURVE SMOOTH",
"693 1189 OFFCURVE",
"756 1124 OFFCURVE",
"756 995 CURVE SMOOTH",
"756 738 OFFCURVE",
"552 495 OFFCURVE",
"135 272 CURVE",
"135 0 LINE"
);
},
{
closed = 1;
nodes = (
"1093 0 LINE",
"1093 234 LINE",
"195 234 LINE",
"195 0 LINE"
);
}
);
width = 1200;
},
{
layerId = "8A5928CE-31B2-4F56-BC21-FB6F481DC46A";
paths = (
{
closed = 1;
nodes = (
"356 0 LINE",
"356 200 LINE",
"621 516 OFFCURVE",
"775 813 OFFCURVE",
"775 1078 CURVE SMOOTH",
"775 1323 OFFCURVE",
"666 1440 OFFCURVE",
"439 1440 CURVE SMOOTH",
"291 1440 OFFCURVE",
"159 1369 OFFCURVE",
"81 1242 CURVE",
"212 1134 LINE",
"269 1216 OFFCURVE",
"349 1263 OFFCURVE",
"424 1263 CURVE SMOOTH",
"535 1263 OFFCURVE",
"588 1203 OFFCURVE",
"588 1078 CURVE SMOOTH",
"588 833 OFFCURVE",
"432 541 OFFCURVE",
"120 221 CURVE",
"120 0 LINE"
);
},
{
closed = 1;
nodes = (
"807 0 LINE",
"807 180 LINE",
"164 180 LINE",
"164 0 LINE"
);
}
);
width = 900;
},
{
layerId = "A3FCBCC7-55DF-4604-8A77-DC78C4EF6076";
paths = (
{
closed = 1;
nodes = (
"412 0 LINE",
"412 252 LINE",
"657 539 OFFCURVE",
"794 810 OFFCURVE",
"794 1053 CURVE SMOOTH",
"794 1315 OFFCURVE",
"679 1440 OFFCURVE",
"439 1440 CURVE SMOOTH",
"278 1440 OFFCURVE",
"134 1369 OFFCURVE",
"49 1244 CURVE",
"188 1070 LINE",
"249 1152 OFFCURVE",
"334 1199 OFFCURVE",
"414 1199 CURVE SMOOTH",
"507 1199 OFFCURVE",
"550 1147 OFFCURVE",
"550 1039 CURVE SMOOTH",
"550 815 OFFCURVE",
"399 547 OFFCURVE",
"96 253 CURVE",
"96 0 LINE"
);
},
{
closed = 1;
nodes = (
"825 0 LINE",
"825 228 LINE",
"140 228 LINE",
"140 0 LINE"
);
}
);
width = 900;
},
{
layerId = "4AED55CC-054D-4448-879E-1FE49A52CF83";
paths = (
{
closed = 1;
nodes = (
"224 0 LINE",
"224 100 LINE",
"569 428 OFFCURVE",
"751 748 OFFCURVE",
"751 1048 CURVE SMOOTH",
"751 1306 OFFCURVE",
"639 1440 OFFCURVE",
"429 1440 CURVE SMOOTH",
"286 1440 OFFCURVE",
"186 1386 OFFCURVE",
"108 1287 CURVE",
"169 1235 LINE",
"244 1313 OFFCURVE",
"328 1350 OFFCURVE",
"426 1350 CURVE SMOOTH",
"575 1350 OFFCURVE",
"655 1246 OFFCURVE",
"655 1048 CURVE SMOOTH",
"655 782 OFFCURVE",
"479 473 OFFCURVE",
"132 133 CURVE",
"132 0 LINE"
);
},
{
closed = 1;
nodes = (
"790 0 LINE",
"790 90 LINE",
"176 90 LINE",
"176 0 LINE"
);
}
);
width = 900;
}
);
unicode = 0032;
}
{
glyphname = three;
layers = (
{
layerId = m007;
paths = (
{
closed = 1;
nodes = (
"836 -20 OFFCURVE",
"1020 119 OFFCURVE",
"1020 360 CURVE SMOOTH",
"1020 565 OFFCURVE",
"853 716 OFFCURVE",
"592 744 CURVE SMOOTH",
"359 769 LINE",
"373 681 LINE",
"412 681 LINE SMOOTH",
"721 681 OFFCURVE",
"924 554 OFFCURVE",
"924 360 CURVE SMOOTH",
"924 176 OFFCURVE",
"770 70 OFFCURVE",
"506 70 CURVE SMOOTH",
"355 70 OFFCURVE",
"264 96 OFFCURVE",
"186 115 CURVE",
"174 28 LINE",
"268 -1 OFFCURVE",
"377 -20 OFFCURVE",
"514 -20 CURVE SMOOTH"
);
},
{
closed = 1;
nodes = (
"598 690 LINE",
"598 750 LINE",
"834 799 OFFCURVE",
"990 937 OFFCURVE",
"990 1122 CURVE SMOOTH",
"990 1324 OFFCURVE",
"855 1440 OFFCURVE",
"618 1440 CURVE SMOOTH",
"409 1440 OFFCURVE",
"269 1388 OFFCURVE",
"149 1266 CURVE",
"217 1199 LINE",
"345 1305 OFFCURVE",
"462 1350 OFFCURVE",
"606 1350 CURVE SMOOTH",
"789 1350 OFFCURVE",
"894 1267 OFFCURVE",
"894 1122 CURVE SMOOTH",
"894 953 OFFCURVE",
"682 813 OFFCURVE",
"359 769 CURVE",
"373 681 LINE"
);
}
);
width = 1200;
},
{
layerId = m008;
paths = (
{
closed = 1;
nodes = (
"851 -20 OFFCURVE",
"1044 126 OFFCURVE",
"1044 380 CURVE SMOOTH",
"1044 604 OFFCURVE",
"888 738 OFFCURVE",
"662 756 CURVE SMOOTH",
"356 780 LINE",
"380 650 LINE",
"412 650 LINE SMOOTH",
"681 650 OFFCURVE",
"834 560 OFFCURVE",
"834 400 CURVE SMOOTH",
"834 250 OFFCURVE",
"714 164 OFFCURVE",
"506 164 CURVE SMOOTH",
"350 164 OFFCURVE",
"256 196 OFFCURVE",
"175 219 CURVE",
"150 28 LINE",
"244 -1 OFFCURVE",
"367 -20 OFFCURVE",
"514 -20 CURVE SMOOTH"
);
},
{
closed = 1;
nodes = (
"718 650 LINE",
"718 770 LINE",
"894 817 OFFCURVE",
"1014 951 OFFCURVE",
"1014 1122 CURVE SMOOTH",
"1014 1326 OFFCURVE",
"867 1440 OFFCURVE",
"608 1440 CURVE SMOOTH",
"409 1440 OFFCURVE",
"248 1380 OFFCURVE",
"125 1241 CURVE",
"263 1104 LINE",
"364 1205 OFFCURVE",
"484 1256 OFFCURVE",
"586 1256 CURVE SMOOTH",
"726 1256 OFFCURVE",
"804 1188 OFFCURVE",
"804 1072 CURVE SMOOTH",
"804 927 OFFCURVE",
"671 822 OFFCURVE",
"356 780 CURVE",
"380 650 LINE"
);
}
);
width = 1200;
},
{
layerId = m009;
paths = (
{
closed = 1;
nodes = (
"862 -20 OFFCURVE",
"1061 126 OFFCURVE",
"1061 380 CURVE SMOOTH",
"1061 594 OFFCURVE",
"891 720 OFFCURVE",
"645 723 CURVE",
"356 830 LINE",
"380 600 LINE",
"412 600 LINE SMOOTH",
"648 600 OFFCURVE",
"783 531 OFFCURVE",
"783 408 CURVE SMOOTH",
"783 296 OFFCURVE",
"682 232 OFFCURVE",
"506 232 CURVE SMOOTH",
"343 232 OFFCURVE",
"244 264 OFFCURVE",
"158 287 CURVE",
"133 28 LINE",
"232 -1 OFFCURVE",
"360 -20 OFFCURVE",
"514 -20 CURVE SMOOTH"
);
},
{
closed = 1;
nodes = (
"701 650 LINE",
"701 753 LINE",
"897 803 OFFCURVE",
"1031 943 OFFCURVE",
"1031 1122 CURVE SMOOTH",
"1031 1326 OFFCURVE",
"878 1440 OFFCURVE",
"608 1440 CURVE SMOOTH",
"402 1440 OFFCURVE",
"236 1388 OFFCURVE",
"108 1266 CURVE",
"246 1062 LINE",
"361 1146 OFFCURVE",
"497 1189 OFFCURVE",
"604 1189 CURVE SMOOTH",
"703 1189 OFFCURVE",
"753 1146 OFFCURVE",
"753 1072 CURVE SMOOTH",
"753 952 OFFCURVE",
"636 865 OFFCURVE",
"356 830 CURVE",
"380 600 LINE"
);
}
);
width = 1200;
},
{
layerId = "8A5928CE-31B2-4F56-BC21-FB6F481DC46A";
paths = (
{
closed = 1;
nodes = (
"637 -20 OFFCURVE",
"787 127 OFFCURVE",
"787 380 CURVE SMOOTH",
"787 585 OFFCURVE",
"668 725 OFFCURVE",
"492 745 CURVE SMOOTH",
"260 780 LINE",
"277 651 LINE",
"305 651 LINE SMOOTH",
"491 651 OFFCURVE",
"600 552 OFFCURVE",
"600 390 CURVE SMOOTH",
"600 242 OFFCURVE",
"515 157 OFFCURVE",
"368 157 CURVE SMOOTH",
"256 157 OFFCURVE",
"190 180 OFFCURVE",
"131 197 CURVE",
"115 18 LINE",
"184 -5 OFFCURVE",
"271 -20 OFFCURVE",
"374 -20 CURVE SMOOTH"
);
},
{
closed = 1;
nodes = (
"524 665 LINE",
"524 758 LINE",
"668 812 OFFCURVE",
"765 940 OFFCURVE",
"765 1122 CURVE SMOOTH",
"765 1325 OFFCURVE",
"647 1440 OFFCURVE",
"440 1440 CURVE SMOOTH",
"298 1440 OFFCURVE",
"185 1402 OFFCURVE",
"97 1309 CURVE",
"193 1170 LINE",
"262 1233 OFFCURVE",
"340 1263 OFFCURVE",
"410 1263 CURVE SMOOTH",
"518 1263 OFFCURVE",
"578 1202 OFFCURVE",
"578 1097 CURVE SMOOTH",
"578 937 OFFCURVE",
"479 817 OFFCURVE",
"260 780 CURVE",
"277 651 LINE"
);
}
);
width = 900;
},
{
layerId = "A3FCBCC7-55DF-4604-8A77-DC78C4EF6076";
paths = (
{
closed = 1;
nodes = (
"644 -20 OFFCURVE",
"798 127 OFFCURVE",
"798 380 CURVE SMOOTH",
"798 580 OFFCURVE",
"671 715 OFFCURVE",
"484 728 CURVE SMOOTH",
"245 828 LINE",
"262 603 LINE",
"295 603 LINE SMOOTH",
"459 603 OFFCURVE",
"554 526 OFFCURVE",
"554 399 CURVE SMOOTH",
"554 286 OFFCURVE",
"481 221 OFFCURVE",
"353 221 CURVE SMOOTH",
"243 221 OFFCURVE",
"177 244 OFFCURVE",
"118 261 CURVE",
"101 18 LINE",
"174 -5 OFFCURVE",
"265 -20 OFFCURVE",
"374 -20 CURVE SMOOTH"
);
},
{
closed = 1;
nodes = (
"516 665 LINE",
"516 749 LINE",
"672 805 OFFCURVE",
"777 936 OFFCURVE",
"777 1122 CURVE SMOOTH",
"777 1325 OFFCURVE",
"655 1440 OFFCURVE",
"440 1440 CURVE SMOOTH",
"292 1440 OFFCURVE",
"175 1406 OFFCURVE",
"83 1322 CURVE",
"180 1119 LINE",
"252 1174 OFFCURVE",
"335 1200 OFFCURVE",
"404 1200 CURVE SMOOTH",
"488 1200 OFFCURVE",
"533 1153 OFFCURVE",
"533 1072 CURVE SMOOTH",
"533 949 OFFCURVE",
"443 858 OFFCURVE",
"245 828 CURVE",
"262 603 LINE"
);
}
);
width = 900;
},
{
layerId = "4AED55CC-054D-4448-879E-1FE49A52CF83";
paths = (
{
closed = 1;
nodes = (
"629 -20 OFFCURVE",
"775 123 OFFCURVE",
"775 370 CURVE SMOOTH",
"775 568 OFFCURVE",
"648 718 OFFCURVE",
"452 744 CURVE SMOOTH",
"277 769 LINE",
"288 681 LINE",
"315 681 LINE SMOOTH",
"536 681 OFFCURVE",
"679 558 OFFCURVE",
"679 370 CURVE SMOOTH",
"679 180 OFFCURVE",
"564 70 OFFCURVE",
"368 70 CURVE SMOOTH",
"259 70 OFFCURVE",
"194 90 OFFCURVE",
"137 105 CURVE",
"127 18 LINE",
"196 -5 OFFCURVE",
"276 -20 OFFCURVE",
"374 -20 CURVE SMOOTH"
);
},
{
closed = 1;
nodes = (
"459 690 LINE",
"459 753 LINE",
"636 807 OFFCURVE",
"753 936 OFFCURVE",
"753 1122 CURVE SMOOTH",
"753 1324 OFFCURVE",
"641 1440 OFFCURVE",
"445 1440 CURVE SMOOTH",
"298 1440 OFFCURVE",
"195 1400 OFFCURVE",
"109 1302 CURVE",
"170 1237 LINE",
"257 1317 OFFCURVE",
"339 1350 OFFCURVE",
"435 1350 CURVE SMOOTH",
"576 1350 OFFCURVE",
"657 1267 OFFCURVE",
"657 1122 CURVE SMOOTH",
"657 953 OFFCURVE",
"511 813 OFFCURVE",
"277 769 CURVE",
"288 681 LINE"
);
}
);
width = 900;
}
);
unicode = 0033;
}
{
glyphname = four;
layers = (
{
layerId = m007;
paths = (
{
closed = 1;
nodes = (
"190 326 LINE",
"368 1340 LINE",
"274 1340 LINE",
"98 326 LINE"
);
},
{
closed = 1;
nodes = (
"834 326 LINE",
"834 416 LINE",
"176 416 LINE",
"96 326 LINE"
);
},
{
closed = 1;
nodes = (
"1096 326 LINE",
"1096 416 LINE",
"888 416 LINE",
"888 326 LINE"
);
},
{
closed = 1;
nodes = (
"908 0 LINE",
"908 1420 LINE",
"814 1420 LINE",
"814 0 LINE"
);
}
);
width = 1200;
},
{
layerId = m008;
paths = (
{
closed = 1;
nodes = (
"288 318 LINE",
"490 1340 LINE",
"274 1340 LINE",
"74 318 LINE"
);
},
{
closed = 1;
nodes = (
"798 318 LINE",
"798 504 LINE",
"214 504 LINE",
"74 318 LINE"
);
},
{
closed = 1;
nodes = (
"1120 318 LINE",
"1120 504 LINE",
"966 504 LINE",
"966 318 LINE"
);
},
{
closed = 1;
nodes = (
"986 0 LINE",
"986 1420 LINE",
"778 1420 LINE",
"778 0 LINE"
);
}
);
width = 1200;
},
{
layerId = m009;
paths = (
{
closed = 1;
nodes = (
"324 286 LINE",
"501 1340 LINE",
"232 1340 LINE",
"57 286 LINE"
);
},
{
closed = 1;
nodes = (
"757 286 LINE",
"757 527 LINE",
"214 527 LINE",
"57 286 LINE"
);
},
{
closed = 1;
nodes = (
"1137 286 LINE",
"1137 527 LINE",
"980 527 LINE",
"980 286 LINE"
);
},
{
closed = 1;
nodes = (
"1000 0 LINE",
"1000 1420 LINE",
"737 1420 LINE",
"737 0 LINE"
);
}
);
width = 1200;
},
{
layerId = "8A5928CE-31B2-4F56-BC21-FB6F481DC46A";
paths = (
{
closed = 1;
nodes = (
"242 318 LINE",
"374 1340 LINE",
"185 1340 LINE",
"55 318 LINE"
);
},
{
closed = 1;
nodes = (
"584 318 LINE",
"584 496 LINE",
"170 496 LINE",
"55 318 LINE"
);
},
{
closed = 1;
nodes = (
"851 318 LINE",
"851 496 LINE",
"737 496 LINE",
"737 318 LINE"
);
},
{
closed = 1;
nodes = (
"752 0 LINE",
"752 1420 LINE",
"569 1420 LINE",
"569 0 LINE"
);
}
);
width = 900;
},
{
layerId = "A3FCBCC7-55DF-4604-8A77-DC78C4EF6076";
paths = (
{
closed = 1;
nodes = (
"281 286 LINE",
"391 1340 LINE",
"152 1340 LINE",
"43 286 LINE"
);
},
{
closed = 1;
nodes = (
"552 286 LINE",
"552 517 LINE",
"160 517 LINE",
"43 286 LINE"
);
},
{
closed = 1;
nodes = (
"868 286 LINE",
"868 517 LINE",
"755 517 LINE",
"755 286 LINE"
);
},
{
closed = 1;
nodes = (
"770 0 LINE",
"770 1420 LINE",
"536 1420 LINE",
"536 0 LINE"
);
}
);
width = 900;
},
{
layerId = "4AED55CC-054D-4448-879E-1FE49A52CF83";
paths = (
{
closed = 1;
nodes = (
"156 326 LINE",
"293 1340 LINE",
"199 1340 LINE",
"64 326 LINE"
);
},
{
closed = 1;
nodes = (
"612 326 LINE",
"612 416 LINE",
"128 416 LINE",
"62 326 LINE"
);
},
{
closed = 1;
nodes = (
"832 326 LINE",
"832 416 LINE",
"675 416 LINE",
"675 326 LINE"
);
},
{
closed = 1;
nodes = (
"690 0 LINE",
"690 1420 LINE",
"596 1420 LINE",
"596 0 LINE"
);
}
);
width = 900;
}
);
unicode = 0034;
}
{
glyphname = five;
layers = (
{
layerId = m007;
paths = (
{
closed = 1;
nodes = (
"903 -20 OFFCURVE",
"1069 154 OFFCURVE",
"1069 458 CURVE SMOOTH",
"1069 736 OFFCURVE",
"924 896 OFFCURVE",
"672 896 CURVE SMOOTH",
"543 896 OFFCURVE",
"417 863 OFFCURVE",
"288 740 CURVE",
"259 740 LINE",
"334 680 LINE",
"436 764 OFFCURVE",
"544 806 OFFCURVE",
"662 806 CURVE SMOOTH",
"859 806 OFFCURVE",
"973 679 OFFCURVE",
"973 458 CURVE SMOOTH",
"973 211 OFFCURVE",
"842 70 OFFCURVE",
"616 70 CURVE SMOOTH",
"384 70 OFFCURVE",
"253 191 OFFCURVE",
"253 398 CURVE",
"157 398 LINE",
"157 132 OFFCURVE",
"323 -20 OFFCURVE",
"614 -20 CURVE SMOOTH"
);
},
{
closed = 1;
nodes = (
"334 680 LINE",
"337 754 LINE",
"357 1420 LINE",
"263 1420 LINE",
"246 680 LINE"
);
},
{
closed = 1;
nodes = (
"979 1330 LINE",
"979 1420 LINE",
"316 1420 LINE",
"334 1330 LINE"
);
}
);
width = 1200;
},
{
layerId = m008;
paths = (
{
closed = 1;
nodes = (
"919 -20 OFFCURVE",
"1094 154 OFFCURVE",
"1094 458 CURVE SMOOTH",
"1094 756 OFFCURVE",
"937 926 OFFCURVE",
"662 926 CURVE SMOOTH",
"557 926 OFFCURVE",
"453 910 OFFCURVE",
"348 850 CURVE",
"314 850 LINE",
"330 680 LINE",
"411 724 OFFCURVE",
"498 746 OFFCURVE",
"592 746 CURVE SMOOTH",
"778 746 OFFCURVE",
"884 641 OFFCURVE",
"884 458 CURVE SMOOTH",
"884 271 OFFCURVE",
"787 164 OFFCURVE",
"616 164 CURVE SMOOTH",
"443 164 OFFCURVE",
"346 250 OFFCURVE",
"346 398 CURVE",
"132 398 LINE",
"132 132 OFFCURVE",
"307 -20 OFFCURVE",
"614 -20 CURVE SMOOTH"
);
},
{
closed = 1;
nodes = (
"330 680 LINE",
"432 804 LINE",
"452 1420 LINE",
"238 1420 LINE",
"218 680 LINE"
);
},
{
closed = 1;
nodes = (
"1004 1234 LINE",
"1004 1420 LINE",
"316 1420 LINE",
"334 1234 LINE"
);
}
);
width = 1200;
},
{
layerId = m009;
paths = (
{
closed = 1;
nodes = (
"909 -20 OFFCURVE",
"1111 171 OFFCURVE",
"1111 466 CURVE SMOOTH",
"1111 746 OFFCURVE",
"948 926 OFFCURVE",
"695 926 CURVE SMOOTH",
"605 926 OFFCURVE",
"503 905 OFFCURVE",
"431 867 CURVE",
"407 867 LINE",
"380 618 LINE",
"451 656 OFFCURVE",
"527 675 OFFCURVE",
"609 675 CURVE SMOOTH",
"746 675 OFFCURVE",
"833 594 OFFCURVE",
"833 466 CURVE SMOOTH",
"833 324 OFFCURVE",
"745 232 OFFCURVE",
"608 232 CURVE SMOOTH",
"470 232 OFFCURVE",
"393 305 OFFCURVE",
"393 431 CURVE",
"115 431 LINE",
"115 145 OFFCURVE",
"290 -20 OFFCURVE",
"597 -20 CURVE SMOOTH"
);
},
{
closed = 1;
nodes = (
"380 618 LINE",
"452 804 LINE",
"486 1420 LINE",
"221 1420 LINE",
"201 618 LINE"
);
},
{
closed = 1;
nodes = (
"1021 1177 LINE",
"1021 1420 LINE",
"316 1420 LINE",
"334 1177 LINE"
);
}
);
width = 1200;
},
{
layerId = "8A5928CE-31B2-4F56-BC21-FB6F481DC46A";
paths = (
{
closed = 1;
nodes = (
"697 -20 OFFCURVE",
"821 136 OFFCURVE",
"821 458 CURVE SMOOTH",
"821 774 OFFCURVE",
"717 926 OFFCURVE",
"516 926 CURVE SMOOTH",
"445 926 OFFCURVE",
"368 908 OFFCURVE",
"302 835 CURVE",
"272 835 LINE",
"263 680 LINE",
"312 729 OFFCURVE",
"368 751 OFFCURVE",
"433 751 CURVE SMOOTH",
"565 751 OFFCURVE",
"634 656 OFFCURVE",
"634 458 CURVE SMOOTH",
"634 255 OFFCURVE",
"574 157 OFFCURVE",
"459 157 CURVE SMOOTH",
"347 157 OFFCURVE",
"288 236 OFFCURVE",
"288 398 CURVE",
"99 398 LINE",
"99 116 OFFCURVE",
"219 -20 OFFCURVE",
"455 -20 CURVE SMOOTH"
);
},
{
closed = 1;
nodes = (
"263 680 LINE",
"337 804 LINE",
"356 1420 LINE",
"172 1420 LINE",
"157 680 LINE"
);
},
{
closed = 1;
nodes = (
"755 1242 LINE",
"755 1420 LINE",
"237 1420 LINE",
"250 1242 LINE"
);
}
);
width = 900;
},
{
layerId = "A3FCBCC7-55DF-4604-8A77-DC78C4EF6076";
paths = (
{
closed = 1;
nodes = (
"698 -20 OFFCURVE",
"838 145 OFFCURVE",
"838 466 CURVE SMOOTH",
"838 771 OFFCURVE",
"732 926 OFFCURVE",
"545 926 CURVE SMOOTH",
"482 926 OFFCURVE",
"408 898 OFFCURVE",
"362 847 CURVE",
"331 847 LINE",
"308 618 LINE",
"350 661 OFFCURVE",
"403 675 OFFCURVE",
"453 675 CURVE SMOOTH",
"545 675 OFFCURVE",
"596 608 OFFCURVE",
"596 466 CURVE SMOOTH",
"596 304 OFFCURVE",
"544 221 OFFCURVE",
"455 221 CURVE SMOOTH",
"369 221 OFFCURVE",
"323 289 OFFCURVE",
"323 431 CURVE",
"82 431 LINE",
"82 127 OFFCURVE",
"204 -20 OFFCURVE",
"445 -20 CURVE SMOOTH"
);
},
{
closed = 1;
nodes = (
"308 618 LINE",
"363 804 LINE",
"391 1420 LINE",
"161 1420 LINE",
"140 618 LINE"
);
},
{
closed = 1;
nodes = (
"771 1189 LINE",
"771 1420 LINE",
"238 1420 LINE",
"252 1189 LINE"
);
}
);
width = 900;
},
{
layerId = "4AED55CC-054D-4448-879E-1FE49A52CF83";
paths = (
{
closed = 1;
nodes = (
"686 -20 OFFCURVE",
"806 142 OFFCURVE",
"806 458 CURVE SMOOTH",
"806 747 OFFCURVE",
"700 896 OFFCURVE",
"502 896 CURVE SMOOTH",
"412 896 OFFCURVE",
"311 867 OFFCURVE",
"231 750 CURVE",
"209 750 LINE",
"253 680 LINE",
"327 766 OFFCURVE",
"405 806 OFFCURVE",
"488 806 CURVE SMOOTH",
"632 806 OFFCURVE",
"710 688 OFFCURVE",
"710 458 CURVE SMOOTH",
"710 202 OFFCURVE",
"622 70 OFFCURVE",
"462 70 CURVE SMOOTH",
"294 70 OFFCURVE",
"205 182 OFFCURVE",
"205 398 CURVE",
"109 398 LINE",
"109 122 OFFCURVE",
"230 -20 OFFCURVE",
"460 -20 CURVE SMOOTH"
);
},
{
closed = 1;
nodes = (
"253 680 LINE",
"265 754 LINE",
"280 1420 LINE",
"186 1420 LINE",
"174 680 LINE"
);
},
{
closed = 1;
nodes = (
"740 1330 LINE",
"740 1420 LINE",
"228 1420 LINE",
"241 1330 LINE"
);
}
);
width = 900;
}
);
unicode = 0035;
}
{
glyphname = eight;
layers = (
{
layerId = m007;
paths = (
{
closed = 1;
nodes = (
"893 -20 OFFCURVE",
"1060 123 OFFCURVE",
"1060 370 CURVE SMOOTH",
"1060 626 OFFCURVE",
"893 772 OFFCURVE",
"600 772 CURVE SMOOTH",
"307 772 OFFCURVE",
"140 626 OFFCURVE",
"140 370 CURVE SMOOTH",
"140 123 OFFCURVE",
"307 -20 OFFCURVE",
"600 -20 CURVE SMOOTH"
);
},
{
closed = 1;
nodes = (
"369 70 OFFCURVE",
"236 183 OFFCURVE",
"236 380 CURVE SMOOTH",
"236 585 OFFCURVE",
"369 705 OFFCURVE",
"600 705 CURVE SMOOTH",
"831 705 OFFCURVE",
"964 585 OFFCURVE",
"964 380 CURVE SMOOTH",
"964 183 OFFCURVE",
"831 70 OFFCURVE",
"600 70 CURVE SMOOTH"
);
},
{
closed = 1;
nodes = (
"768 726 LINE",
"768 788 LINE",
"434 788 LINE",
"434 726 LINE"
);
},
{
closed = 1;
nodes = (
"395 795 OFFCURVE",
"276 893 OFFCURVE",
"276 1060 CURVE SMOOTH",
"276 1245 OFFCURVE",
"395 1350 OFFCURVE",
"600 1350 CURVE SMOOTH",
"805 1350 OFFCURVE",
"924 1245 OFFCURVE",
"924 1060 CURVE SMOOTH",
"924 893 OFFCURVE",
"805 795 OFFCURVE",
"600 795 CURVE SMOOTH"
);
},
{
closed = 1;
nodes = (
"867 738 OFFCURVE",
"1020 870 OFFCURVE",
"1020 1100 CURVE SMOOTH",
"1020 1315 OFFCURVE",
"867 1440 OFFCURVE",
"600 1440 CURVE SMOOTH",
"333 1440 OFFCURVE",
"180 1315 OFFCURVE",
"180 1100 CURVE SMOOTH",
"180 870 OFFCURVE",
"333 738 OFFCURVE",
"600 738 CURVE SMOOTH"
);
}
);
width = 1200;
},
{
layerId = m008;
paths = (
{
closed = 1;
nodes = (
"908 -20 OFFCURVE",
"1084 130 OFFCURVE",
"1084 390 CURVE SMOOTH",
"1084 628 OFFCURVE",
"908 764 OFFCURVE",
"600 764 CURVE SMOOTH",
"292 764 OFFCURVE",
"116 628 OFFCURVE",
"116 390 CURVE SMOOTH",
"116 130 OFFCURVE",
"292 -20 OFFCURVE",
"600 -20 CURVE SMOOTH"
);
},
{
closed = 1;
nodes = (
"425 164 OFFCURVE",
"326 250 OFFCURVE",
"326 400 CURVE SMOOTH",
"326 560 OFFCURVE",
"425 654 OFFCURVE",
"600 654 CURVE SMOOTH",
"775 654 OFFCURVE",
"874 560 OFFCURVE",
"874 400 CURVE SMOOTH",
"874 250 OFFCURVE",
"775 164 OFFCURVE",
"600 164 CURVE SMOOTH"
);
},
{
closed = 1;
nodes = (
"768 706 LINE",
"768 808 LINE",
"434 808 LINE",
"434 706 LINE"
);
},
{
closed = 1;
nodes = (
"451 846 OFFCURVE",
"366 918 OFFCURVE",
"366 1040 CURVE SMOOTH",
"366 1178 OFFCURVE",
"451 1256 OFFCURVE",
"600 1256 CURVE SMOOTH",
"749 1256 OFFCURVE",
"834 1178 OFFCURVE",
"834 1040 CURVE SMOOTH",
"834 918 OFFCURVE",
"749 846 OFFCURVE",
"600 846 CURVE SMOOTH"
);
},
{
closed = 1;
nodes = (
"882 746 OFFCURVE",
"1044 868 OFFCURVE",
"1044 1080 CURVE SMOOTH",
"1044 1308 OFFCURVE",
"882 1440 OFFCURVE",
"600 1440 CURVE SMOOTH",
"318 1440 OFFCURVE",
"156 1308 OFFCURVE",
"156 1080 CURVE SMOOTH",
"156 868 OFFCURVE",
"318 746 OFFCURVE",
"600 746 CURVE SMOOTH"
);
}
);
width = 1200;
},
{
layerId = m009;
paths = (
{
closed = 1;
nodes = (
"919 -20 OFFCURVE",
"1101 130 OFFCURVE",
"1101 390 CURVE SMOOTH",
"1101 628 OFFCURVE",
"919 764 OFFCURVE",
"600 764 CURVE SMOOTH",
"281 764 OFFCURVE",
"99 628 OFFCURVE",
"99 390 CURVE SMOOTH",
"99 130 OFFCURVE",
"281 -20 OFFCURVE",
"600 -20 CURVE SMOOTH"
);
},
{
closed = 1;
nodes = (
"458 232 OFFCURVE",
"377 303 OFFCURVE",
"377 429 CURVE SMOOTH",
"377 553 OFFCURVE",
"458 625 OFFCURVE",
"600 625 CURVE SMOOTH",
"742 625 OFFCURVE",
"823 553 OFFCURVE",
"823 429 CURVE SMOOTH",
"823 303 OFFCURVE",
"742 232 OFFCURVE",
"600 232 CURVE SMOOTH"
);
},
{
closed = 1;
nodes = (
"768 706 LINE",
"768 808 LINE",
"434 808 LINE",
"434 706 LINE"
);
},
{
closed = 1;
nodes = (
"484 875 OFFCURVE",
"417 931 OFFCURVE",
"417 1028 CURVE SMOOTH",
"417 1131 OFFCURVE",
"484 1189 OFFCURVE",
"600 1189 CURVE SMOOTH",
"716 1189 OFFCURVE",
"783 1131 OFFCURVE",
"783 1028 CURVE SMOOTH",
"783 931 OFFCURVE",
"716 875 OFFCURVE",
"600 875 CURVE SMOOTH"
);
},
{
closed = 1;
nodes = (
"893 746 OFFCURVE",
"1061 868 OFFCURVE",
"1061 1080 CURVE SMOOTH",
"1061 1308 OFFCURVE",
"893 1440 OFFCURVE",
"600 1440 CURVE SMOOTH",
"307 1440 OFFCURVE",
"139 1308 OFFCURVE",
"139 1080 CURVE SMOOTH",
"139 868 OFFCURVE",
"307 746 OFFCURVE",
"600 746 CURVE SMOOTH"
);
}
);
width = 1200;
},
{
layerId = "8A5928CE-31B2-4F56-BC21-FB6F481DC46A";
paths = (
{
closed = 1;
nodes = (
"695 -20 OFFCURVE",
"824 120 OFFCURVE",
"824 390 CURVE SMOOTH",
"824 628 OFFCURVE",
"688 764 OFFCURVE",
"450 764 CURVE SMOOTH",
"212 764 OFFCURVE",
"76 628 OFFCURVE",
"76 390 CURVE SMOOTH",
"76 120 OFFCURVE",
"206 -20 OFFCURVE",
"450 -20 CURVE SMOOTH"
);
},
{
closed = 1;
nodes = (
"328 157 OFFCURVE",
"263 239 OFFCURVE",
"263 400 CURVE SMOOTH",
"263 560 OFFCURVE",
"331 654 OFFCURVE",
"450 654 CURVE SMOOTH",
"570 654 OFFCURVE",
"637 560 OFFCURVE",
"637 400 CURVE SMOOTH",
"637 239 OFFCURVE",
"572 157 OFFCURVE",
"450 157 CURVE SMOOTH"
);
},
{
closed = 1;
nodes = (
"574 706 LINE",
"574 808 LINE",
"328 808 LINE",
"328 706 LINE"
);
},
{
closed = 1;
nodes = (
"350 846 OFFCURVE",
"293 919 OFFCURVE",
"293 1040 CURVE SMOOTH",
"293 1188 OFFCURVE",
"348 1263 OFFCURVE",
"450 1263 CURVE SMOOTH",
"553 1263 OFFCURVE",
"608 1188 OFFCURVE",
"608 1040 CURVE SMOOTH",
"608 919 OFFCURVE",
"551 846 OFFCURVE",
"450 846 CURVE SMOOTH"
);
},
{
closed = 1;
nodes = (
"669 746 OFFCURVE",
"795 868 OFFCURVE",
"795 1080 CURVE SMOOTH",
"795 1318 OFFCURVE",
"675 1440 OFFCURVE",
"450 1440 CURVE SMOOTH",
"225 1440 OFFCURVE",
"106 1318 OFFCURVE",
"106 1080 CURVE SMOOTH",
"106 868 OFFCURVE",
"231 746 OFFCURVE",
"450 746 CURVE SMOOTH"
);
}
);
width = 900;
},
{
layerId = "A3FCBCC7-55DF-4604-8A77-DC78C4EF6076";
paths = (
{
closed = 1;
nodes = (
"698 -20 OFFCURVE",
"836 126 OFFCURVE",
"836 390 CURVE SMOOTH",
"836 628 OFFCURVE",
"696 764 OFFCURVE",
"450 764 CURVE SMOOTH",
"205 764 OFFCURVE",
"65 628 OFFCURVE",
"65 390 CURVE SMOOTH",
"65 126 OFFCURVE",
"202 -20 OFFCURVE",
"450 -20 CURVE SMOOTH"
);
},
{
closed = 1;
nodes = (
"358 221 OFFCURVE",
"306 293 OFFCURVE",
"306 424 CURVE SMOOTH",
"306 557 OFFCURVE",
"358 635 OFFCURVE",
"450 635 CURVE SMOOTH",
"542 635 OFFCURVE",
"594 557 OFFCURVE",
"594 424 CURVE SMOOTH",
"594 293 OFFCURVE",
"543 221 OFFCURVE",
"450 221 CURVE SMOOTH"
);
},
{
closed = 1;
nodes = (
"576 706 LINE",
"576 808 LINE",
"326 808 LINE",
"326 706 LINE"
);
},
{
closed = 1;
nodes = (
"378 865 OFFCURVE",
"336 927 OFFCURVE",
"336 1033 CURVE SMOOTH",
"336 1142 OFFCURVE",
"377 1200 OFFCURVE",
"450 1200 CURVE SMOOTH",
"523 1200 OFFCURVE",
"564 1142 OFFCURVE",
"564 1033 CURVE SMOOTH",
"564 927 OFFCURVE",
"523 865 OFFCURVE",
"450 865 CURVE SMOOTH"
);
},
{
closed = 1;
nodes = (
"676 746 OFFCURVE",
"806 868 OFFCURVE",
"806 1080 CURVE SMOOTH",
"806 1313 OFFCURVE",
"679 1440 OFFCURVE",
"450 1440 CURVE SMOOTH",
"222 1440 OFFCURVE",
"95 1313 OFFCURVE",
"95 1080 CURVE SMOOTH",
"95 868 OFFCURVE",
"224 746 OFFCURVE",
"450 746 CURVE SMOOTH"
);
}
);
width = 900;
},
{
layerId = "4AED55CC-054D-4448-879E-1FE49A52CF83";
paths = (
{
closed = 1;
nodes = (
"676 -20 OFFCURVE",
"800 119 OFFCURVE",
"800 370 CURVE SMOOTH",
"800 625 OFFCURVE",
"672 772 OFFCURVE",
"450 772 CURVE SMOOTH",
"228 772 OFFCURVE",
"100 625 OFFCURVE",
"100 370 CURVE SMOOTH",
"100 119 OFFCURVE",
"225 -20 OFFCURVE",
"450 -20 CURVE SMOOTH"
);
},
{
closed = 1;
nodes = (
"287 70 OFFCURVE",
"196 180 OFFCURVE",
"196 380 CURVE SMOOTH",
"196 585 OFFCURVE",
"289 705 OFFCURVE",
"450 705 CURVE SMOOTH",
"611 705 OFFCURVE",
"704 585 OFFCURVE",
"704 380 CURVE SMOOTH",
"704 180 OFFCURVE",
"613 70 OFFCURVE",
"450 70 CURVE SMOOTH"
);
},
{
closed = 1;
nodes = (
"574 726 LINE",
"574 788 LINE",
"328 788 LINE",
"328 726 LINE"
);
},
{
closed = 1;
nodes = (
"308 795 OFFCURVE",
"226 893 OFFCURVE",
"226 1060 CURVE SMOOTH",
"226 1248 OFFCURVE",
"307 1350 OFFCURVE",
"450 1350 CURVE SMOOTH",
"594 1350 OFFCURVE",
"675 1248 OFFCURVE",
"675 1060 CURVE SMOOTH",
"675 893 OFFCURVE",
"592 795 OFFCURVE",
"450 795 CURVE SMOOTH"
);
},
{
closed = 1;
nodes = (
"653 738 OFFCURVE",
"771 871 OFFCURVE",
"771 1100 CURVE SMOOTH",
"771 1319 OFFCURVE",
"656 1440 OFFCURVE",
"450 1440 CURVE SMOOTH",
"244 1440 OFFCURVE",
"130 1319 OFFCURVE",
"130 1100 CURVE SMOOTH",
"130 871 OFFCURVE",
"247 738 OFFCURVE",
"450 738 CURVE SMOOTH"
);
}
);
width = 900;
}
);
unicode = 0038;
}
{
glyphname = nine;
layers = (
{
layerId = m007;
paths = (
{
closed = 1;
nodes = (
"773 506 OFFCURVE",
"912 590 OFFCURVE",
"956 738 CURVE",
"1020 738 LINE",
"1058 930 LINE",
"1058 1256 OFFCURVE",
"902 1426 OFFCURVE",
"602 1426 CURVE SMOOTH",
"298 1426 OFFCURVE",
"140 1264 OFFCURVE",
"140 956 CURVE SMOOTH",
"140 670 OFFCURVE",
"300 506 OFFCURVE",
"584 506 CURVE SMOOTH"
);
},
{
closed = 1;
nodes = (
"802 6 OFFCURVE",
"1058 272 OFFCURVE",
"1058 782 CURVE SMOOTH",
"1058 930 LINE",
"965 873 LINE",
"964 740 LINE",
"964 312 OFFCURVE",
"733 91 OFFCURVE",
"261 70 CURVE",
"270 -20 LINE"
);
},
{
closed = 1;
nodes = (
"360 596 OFFCURVE",
"236 726 OFFCURVE",
"236 956 CURVE SMOOTH",
"236 1205 OFFCURVE",
"358 1336 OFFCURVE",
"590 1336 CURVE SMOOTH",
"823 1336 OFFCURVE",
"962 1199 OFFCURVE",
"962 966 CURVE SMOOTH",
"962 730 OFFCURVE",
"825 596 OFFCURVE",
"584 596 CURVE SMOOTH"
);
}
);
width = 1200;
},
{
layerId = m008;
paths = (
{
closed = 1;
nodes = (
"676 506 OFFCURVE",
"802 590 OFFCURVE",
"842 738 CURVE",
"916 738 LINE",
"1082 920 LINE",
"1082 1267 OFFCURVE",
"931 1426 OFFCURVE",
"602 1426 CURVE SMOOTH",
"297 1426 OFFCURVE",
"116 1248 OFFCURVE",
"116 946 CURVE SMOOTH",
"116 666 OFFCURVE",
"256 506 OFFCURVE",
"504 506 CURVE SMOOTH"
);
},
{
closed = 1;
nodes = (
"810 8 OFFCURVE",
"1082 290 OFFCURVE",
"1082 832 CURVE SMOOTH",
"1082 920 LINE",
"860 854 LINE",
"860 740 LINE SMOOTH",
"860 376 OFFCURVE",
"652 188 OFFCURVE",
"226 170 CURVE",
"246 -20 LINE"
);
},
{
closed = 1;
nodes = (
"416 690 OFFCURVE",
"326 782 OFFCURVE",
"326 946 CURVE SMOOTH",
"326 1132 OFFCURVE",
"426 1242 OFFCURVE",
"595 1242 CURVE SMOOTH",
"767 1242 OFFCURVE",
"868 1139 OFFCURVE",
"868 966 CURVE SMOOTH",
"868 790 OFFCURVE",
"764 690 OFFCURVE",
"579 690 CURVE SMOOTH"
);
}
);
width = 1200;
},
{
layerId = m009;
paths = (
{
closed = 1;
nodes = (
"643 506 OFFCURVE",
"756 590 OFFCURVE",
"792 738 CURVE",
"874 738 LINE",
"1099 920 LINE",
"1099 1238 OFFCURVE",
"914 1426 OFFCURVE",
"600 1426 CURVE SMOOTH",
"280 1426 OFFCURVE",
"99 1254 OFFCURVE",
"99 958 CURVE SMOOTH",
"99 670 OFFCURVE",
"239 506 OFFCURVE",
"487 506 CURVE SMOOTH"
);
},
{
closed = 1;
nodes = (
"816 8 OFFCURVE",
"1099 287 OFFCURVE",
"1099 825 CURVE SMOOTH",
"1099 920 LINE",
"818 822 LINE",
"818 740 LINE",
"818 416 OFFCURVE",
"619 249 OFFCURVE",
"209 232 CURVE",
"229 -20 LINE"
);
},
{
closed = 1;
nodes = (
"455 757 OFFCURVE",
"378 829 OFFCURVE",
"378 958 CURVE SMOOTH",
"378 1096 OFFCURVE",
"458 1174 OFFCURVE",
"598 1174 CURVE SMOOTH",
"738 1174 OFFCURVE",
"820 1099 OFFCURVE",
"820 971 CURVE SMOOTH",
"820 835 OFFCURVE",
"738 757 OFFCURVE",
"594 757 CURVE SMOOTH"
);
}
);
width = 1200;
},
{
layerId = "8A5928CE-31B2-4F56-BC21-FB6F481DC46A";
paths = (
{
closed = 1;
nodes = (
"488 506 OFFCURVE",
"577 579 OFFCURVE",
"605 713 CURVE",
"661 713 LINE",
"814 920 LINE",
"814 1267 OFFCURVE",
"692 1426 OFFCURVE",
"452 1426 CURVE SMOOTH",
"223 1426 OFFCURVE",
"88 1248 OFFCURVE",
"88 946 CURVE SMOOTH",
"88 667 OFFCURVE",
"189 506 OFFCURVE",
"368 506 CURVE SMOOTH"
);
},
{
closed = 1;
nodes = (
"617 9 OFFCURVE",
"814 272 OFFCURVE",
"814 832 CURVE SMOOTH",
"814 920 LINE",
"620 854 LINE",
"620 715 LINE SMOOTH",
"620 361 OFFCURVE",
"472 178 OFFCURVE",
"168 160 CURVE",
"183 -20 LINE"
);
},
{
closed = 1;
nodes = (
"334 683 OFFCURVE",
"275 777 OFFCURVE",
"275 946 CURVE SMOOTH",
"275 1137 OFFCURVE",
"340 1249 OFFCURVE",
"449 1249 CURVE SMOOTH",
"560 1249 OFFCURVE",
"625 1143 OFFCURVE",
"625 966 CURVE SMOOTH",
"625 785 OFFCURVE",
"558 683 OFFCURVE",
"440 683 CURVE SMOOTH"
);
}
);
width = 900;
},
{
layerId = "A3FCBCC7-55DF-4604-8A77-DC78C4EF6076";
paths = (
{
closed = 1;
nodes = (
"460 506 OFFCURVE",
"542 588 OFFCURVE",
"568 728 CURVE",
"632 728 LINE",
"835 920 LINE",
"835 1238 OFFCURVE",
"690 1426 OFFCURVE",
"450 1426 CURVE SMOOTH",
"206 1426 OFFCURVE",
"65 1254 OFFCURVE",
"65 958 CURVE SMOOTH",
"65 670 OFFCURVE",
"166 506 OFFCURVE",
"346 506 CURVE SMOOTH"
);
},
{
closed = 1;
nodes = (
"615 8 OFFCURVE",
"835 287 OFFCURVE",
"835 825 CURVE SMOOTH",
"835 920 LINE",
"590 822 LINE",
"590 730 LINE",
"590 407 OFFCURVE",
"445 240 OFFCURVE",
"145 223 CURVE",
"162 -20 LINE"
);
},
{
closed = 1;
nodes = (
"359 747 OFFCURVE",
"309 823 OFFCURVE",
"309 958 CURVE SMOOTH",
"309 1103 OFFCURVE",
"361 1185 OFFCURVE",
"450 1185 CURVE SMOOTH",
"539 1185 OFFCURVE",
"590 1106 OFFCURVE",
"590 971 CURVE SMOOTH",
"590 829 OFFCURVE",
"538 747 OFFCURVE",
"448 747 CURVE SMOOTH"
);
}
);
width = 900;
},
{
layerId = "4AED55CC-054D-4448-879E-1FE49A52CF83";
paths = (
{
closed = 1;
nodes = (
"561 507 OFFCURVE",
"658 583 OFFCURVE",
"689 719 CURVE",
"751 719 LINE",
"794 931 LINE",
"794 1264 OFFCURVE",
"680 1427 OFFCURVE",
"452 1427 CURVE SMOOTH",
"221 1427 OFFCURVE",
"106 1272 OFFCURVE",
"106 957 CURVE SMOOTH",
"106 659 OFFCURVE",
"218 507 OFFCURVE",
"430 507 CURVE SMOOTH"
);
},
{
closed = 1;
nodes = (
"620 9 OFFCURVE",
"794 233 OFFCURVE",
"794 783 CURVE SMOOTH",
"794 931 LINE",
"698 874 LINE",
"698 741 LINE",
"698 280 OFFCURVE",
"548 93 OFFCURVE",
"193 71 CURVE",
"201 -19 LINE"
);
},
{
closed = 1;
nodes = (
"283 597 OFFCURVE",
"202 718 OFFCURVE",
"202 957 CURVE SMOOTH",
"202 1212 OFFCURVE",
"283 1337 OFFCURVE",
"444 1337 CURVE SMOOTH",
"607 1337 OFFCURVE",
"697 1210 OFFCURVE",
"697 967 CURVE SMOOTH",
"697 731 OFFCURVE",
"603 597 OFFCURVE",
"438 597 CURVE SMOOTH"
);
}
);
width = 900;
}
);
unicode = 0039;
}
{
color = 0;
export = 0;
glyphname = at;
layers = (
{
layerId = m007;
paths = (
{
closed = 1;
nodes = (
"792 -203 OFFCURVE",
"850 -196 OFFCURVE",
"907 -178 CURVE",
"907 -88 LINE",
"855 -106 OFFCURVE",
"796 -113 OFFCURVE",
"710 -113 CURVE SMOOTH",
"373 -113 OFFCURVE",
"228 99 OFFCURVE",
"228 598 CURVE SMOOTH",
"228 1101 OFFCURVE",
"361 1349 OFFCURVE",
"630 1349 CURVE SMOOTH",
"842 1349 OFFCURVE",
"954 1196 OFFCURVE",
"954 887 CURVE SMOOTH",
"954 769 OFFCURVE",
"954 667 OFFCURVE",
"954 524 CURVE",
"1048 524 LINE",
"1048 669 OFFCURVE",
"1048 773 OFFCURVE",
"1048 893 CURVE SMOOTH",
"1048 1258 OFFCURVE",
"908 1439 OFFCURVE",
"630 1439 CURVE SMOOTH",
"297 1439 OFFCURVE",
"132 1160 OFFCURVE",
"132 598 CURVE SMOOTH",
"132 36 OFFCURVE",
"305 -203 OFFCURVE",
"710 -203 CURVE SMOOTH"
);
},
{
closed = 1;
nodes = (
"831 148 OFFCURVE",
"925 228 OFFCURVE",
"942 370 CURVE",
"961 370 LINE",
"961 897 LINE",
"942 897 LINE",
"919 1020 OFFCURVE",
"824 1089 OFFCURVE",
"713 1089 CURVE SMOOTH",
"510 1089 OFFCURVE",
"396 935 OFFCURVE",
"396 619 CURVE SMOOTH",
"396 320 OFFCURVE",
"510 148 OFFCURVE",
"711 148 CURVE SMOOTH"
);
},
{
closed = 1;
nodes = (
"568 238 OFFCURVE",
"492 376 OFFCURVE",
"492 620 CURVE SMOOTH",
"492 884 OFFCURVE",
"572 999 OFFCURVE",
"713 999 CURVE SMOOTH",
"868 999 OFFCURVE",
"954 884 OFFCURVE",
"954 620 CURVE SMOOTH",
"954 376 OFFCURVE",
"862 238 OFFCURVE",
"713 238 CURVE SMOOTH"
);
},
{
closed = 1;
nodes = (
"1048 168 LINE",
"1048 769 LINE",
"954 769 LINE",
"954 168 LINE"
);
}
);
width = 1200;
},
{
layerId = m008;
paths = (
{
closed = 1;
nodes = (
"792 -243 OFFCURVE",
"850 -236 OFFCURVE",
"907 -218 CURVE",
"907 -38 LINE",
"855 -56 OFFCURVE",
"796 -63 OFFCURVE",
"710 -63 CURVE SMOOTH",
"406 -63 OFFCURVE",
"276 134 OFFCURVE",
"276 598 CURVE SMOOTH",
"276 1040 OFFCURVE",
"390 1259 OFFCURVE",
"620 1259 CURVE SMOOTH",
"804 1259 OFFCURVE",
"900 1135 OFFCURVE",
"900 887 CURVE SMOOTH",
"900 769 OFFCURVE",
"900 667 OFFCURVE",
"900 524 CURVE",
"1072 524 LINE",
"1072 669 OFFCURVE",
"1072 773 OFFCURVE",
"1072 893 CURVE SMOOTH",
"1072 1258 OFFCURVE",
"921 1439 OFFCURVE",
"620 1439 CURVE SMOOTH",
"278 1439 OFFCURVE",
"108 1160 OFFCURVE",
"108 598 CURVE SMOOTH",
"108 8 OFFCURVE",
"288 -243 OFFCURVE",
"710 -243 CURVE SMOOTH"
);
},
{
closed = 1;
nodes = (
"786 148 OFFCURVE",
"864 232 OFFCURVE",
"888 380 CURVE",
"962 380 LINE",
"962 857 LINE",
"888 857 LINE",
"858 1005 OFFCURVE",
"780 1089 OFFCURVE",
"678 1089 CURVE SMOOTH",
"498 1089 OFFCURVE",
"396 935 OFFCURVE",
"396 619 CURVE SMOOTH",
"396 320 OFFCURVE",
"498 148 OFFCURVE",
"676 148 CURVE SMOOTH"
);
},
{
closed = 1;
nodes = (
"634 338 OFFCURVE",
"576 440 OFFCURVE",
"576 619 CURVE SMOOTH",
"576 814 OFFCURVE",
"638 899 OFFCURVE",
"748 899 CURVE SMOOTH",
"846 899 OFFCURVE",
"900 799 OFFCURVE",
"900 570 CURVE SMOOTH",
"900 422 OFFCURVE",
"840 338 OFFCURVE",
"734 338 CURVE SMOOTH"
);
},
{
closed = 1;
nodes = (
"1072 168 LINE",
"1072 769 LINE",
"900 769 LINE",
"900 168 LINE"
);
}
);
width = 1200;
},
{
layerId = m009;
paths = (
{
closed = 1;
nodes = (
"809 -285 OFFCURVE",
"867 -278 OFFCURVE",
"924 -260 CURVE",
"924 -21 LINE",
"872 -39 OFFCURVE",
"813 -46 OFFCURVE",
"727 -46 CURVE SMOOTH",
"447 -46 OFFCURVE",
"328 146 OFFCURVE",
"328 598 CURVE SMOOTH",
"328 1002 OFFCURVE",
"424 1202 OFFCURVE",
"620 1202 CURVE SMOOTH",
"772 1202 OFFCURVE",
"850 1090 OFFCURVE",
"850 862 CURVE SMOOTH",
"850 744 OFFCURVE",
"850 642 OFFCURVE",
"850 499 CURVE",
"1089 499 LINE",
"1089 644 OFFCURVE",
"1089 748 OFFCURVE",
"1089 868 CURVE SMOOTH",
"1089 1250 OFFCURVE",
"932 1439 OFFCURVE",
"620 1439 CURVE SMOOTH",
"267 1439 OFFCURVE",
"91 1160 OFFCURVE",
"91 598 CURVE SMOOTH",
"91 -21 OFFCURVE",
"281 -285 OFFCURVE",
"727 -285 CURVE SMOOTH"
);
},
{
closed = 1;
nodes = (
"739 123 OFFCURVE",
"808 207 OFFCURVE",
"830 355 CURVE",
"912 355 LINE",
"912 832 LINE",
"830 832 LINE",
"803 980 OFFCURVE",
"734 1064 OFFCURVE",
"645 1064 CURVE SMOOTH",
"519 1064 OFFCURVE",
"448 910 OFFCURVE",
"448 594 CURVE SMOOTH",
"448 295 OFFCURVE",
"519 123 OFFCURVE",
"643 123 CURVE SMOOTH"
);
},
{
closed = 1;
nodes = (
"673 346 OFFCURVE",
"643 436 OFFCURVE",
"643 594 CURVE SMOOTH",
"643 766 OFFCURVE",
"678 841 OFFCURVE",
"740 841 CURVE SMOOTH",
"811 841 OFFCURVE",
"850 763 OFFCURVE",
"850 586 CURVE SMOOTH",
"850 433 OFFCURVE",
"805 346 OFFCURVE",
"726 346 CURVE SMOOTH"
);
},
{
closed = 1;
nodes = (
"1089 143 LINE",
"1089 744 LINE",
"850 744 LINE",
"850 143 LINE"
);
}
);
width = 1200;
},
{
layerId = "8A5928CE-31B2-4F56-BC21-FB6F481DC46A";
paths = (
{
closed = 1;
nodes = (
"609 -243 OFFCURVE",
"656 -236 OFFCURVE",
"702 -218 CURVE",
"702 -38 LINE",
"660 -56 OFFCURVE",
"612 -63 OFFCURVE",
"543 -63 CURVE SMOOTH",
"296 -63 OFFCURVE",
"191 134 OFFCURVE",
"191 598 CURVE SMOOTH",
"191 1040 OFFCURVE",
"283 1259 OFFCURVE",
"470 1259 CURVE SMOOTH",
"619 1259 OFFCURVE",
"697 1135 OFFCURVE",
"697 887 CURVE SMOOTH",
"697 769 OFFCURVE",
"697 667 OFFCURVE",
"697 524 CURVE",
"836 524 LINE",
"836 669 OFFCURVE",
"836 773 OFFCURVE",
"836 893 CURVE SMOOTH",
"836 1258 OFFCURVE",
"714 1439 OFFCURVE",
"470 1439 CURVE SMOOTH",
"192 1439 OFFCURVE",
"54 1160 OFFCURVE",
"54 598 CURVE SMOOTH",
"54 8 OFFCURVE",
"200 -243 OFFCURVE",
"543 -243 CURVE SMOOTH"
);
},
{
closed = 1;
nodes = (
"604 148 OFFCURVE",
"667 232 OFFCURVE",
"687 380 CURVE",
"747 380 LINE",
"747 857 LINE",
"687 857 LINE",
"663 1005 OFFCURVE",
"599 1089 OFFCURVE",
"517 1089 CURVE SMOOTH",
"371 1089 OFFCURVE",
"288 935 OFFCURVE",
"288 619 CURVE SMOOTH",
"288 320 OFFCURVE",
"371 148 OFFCURVE",
"515 148 CURVE SMOOTH"
);
},
{
closed = 1;
nodes = (
"481 338 OFFCURVE",
"434 440 OFFCURVE",
"434 619 CURVE SMOOTH",
"434 814 OFFCURVE",
"484 899 OFFCURVE",
"573 899 CURVE SMOOTH",
"653 899 OFFCURVE",
"697 799 OFFCURVE",
"697 570 CURVE SMOOTH",
"697 422 OFFCURVE",
"648 338 OFFCURVE",
"562 338 CURVE SMOOTH"
);
},
{
closed = 1;
nodes = (
"836 168 LINE",
"836 769 LINE",
"697 769 LINE",
"697 168 LINE"
);
}
);
width = 900;
},
{
background = {
paths = (
{
closed = 1;
nodes = (
"694 -285 OFFCURVE",
"752 -278 OFFCURVE",
"809 -260 CURVE",
"809 -21 LINE",
"757 -39 OFFCURVE",
"698 -46 OFFCURVE",
"612 -46 CURVE SMOOTH",
"332 -46 OFFCURVE",
"213 146 OFFCURVE",
"213 598 CURVE SMOOTH",
"213 1002 OFFCURVE",
"309 1202 OFFCURVE",
"505 1202 CURVE SMOOTH",
"590 1202 OFFCURVE",
"634 1090 OFFCURVE",
"634 862 CURVE SMOOTH",
"634 744 OFFCURVE",
"634 642 OFFCURVE",
"634 499 CURVE",
"873 499 LINE",
"873 644 OFFCURVE",
"873 748 OFFCURVE",
"873 868 CURVE SMOOTH",
"873 1250 OFFCURVE",
"750 1439 OFFCURVE",
"505 1439 CURVE SMOOTH",
"152 1439 OFFCURVE",
"-24 1160 OFFCURVE",
"-24 598 CURVE SMOOTH",
"-24 -21 OFFCURVE",
"166 -285 OFFCURVE",
"612 -285 CURVE SMOOTH"
);
},
{
closed = 1;
nodes = (
"552 123 OFFCURVE",
"599 189 OFFCURVE",
"614 305 CURVE",
"696 305 LINE",
"696 883 LINE",
"614 883 LINE",
"596 998 OFFCURVE",
"549 1064 OFFCURVE",
"490 1064 CURVE SMOOTH",
"389 1064 OFFCURVE",
"333 910 OFFCURVE",
"333 594 CURVE SMOOTH",
"333 295 OFFCURVE",
"389 123 OFFCURVE",
"488 123 CURVE SMOOTH"
);
},
{
closed = 1;
nodes = (
"551 346 OFFCURVE",
"528 436 OFFCURVE",
"528 594 CURVE SMOOTH",
"528 766 OFFCURVE",
"557 841 OFFCURVE",
"591 841 CURVE SMOOTH",
"623 841 OFFCURVE",
"634 763 OFFCURVE",
"634 586 CURVE SMOOTH",
"634 433 OFFCURVE",
"618 346 OFFCURVE",
"591 346 CURVE SMOOTH"
);
},
{
closed = 1;
nodes = (
"873 143 LINE",
"873 744 LINE",
"634 744 LINE",
"634 143 LINE"
);
}
);
};
layerId = "A3FCBCC7-55DF-4604-8A77-DC78C4EF6076";
paths = (
{
closed = 1;
nodes = (
"679 -285 OFFCURVE",
"719 -278 OFFCURVE",
"759 -260 CURVE",
"759 -21 LINE",
"722 -39 OFFCURVE",
"682 -46 OFFCURVE",
"622 -46 CURVE SMOOTH",
"366 -46 OFFCURVE",
"257 146 OFFCURVE",
"257 598 CURVE SMOOTH",
"257 1002 OFFCURVE",
"332 1202 OFFCURVE",
"485 1202 CURVE SMOOTH",
"583 1202 OFFCURVE",
"634 1090 OFFCURVE",
"634 862 CURVE SMOOTH",
"634 744 OFFCURVE",
"634 642 OFFCURVE",
"634 499 CURVE",
"873 499 LINE",
"873 644 OFFCURVE",
"873 748 OFFCURVE",
"873 868 CURVE SMOOTH",
"873 1250 OFFCURVE",
"743 1439 OFFCURVE",
"485 1439 CURVE SMOOTH",
"175 1439 OFFCURVE",
"20 1160 OFFCURVE",
"20 598 CURVE SMOOTH",
"20 -21 OFFCURVE",
"200 -285 OFFCURVE",
"622 -285 CURVE SMOOTH"
);
},
{
closed = 1;
nodes = (
"552 123 OFFCURVE",
"599 189 OFFCURVE",
"614 305 CURVE",
"696 305 LINE",
"696 883 LINE",
"614 883 LINE",
"596 998 OFFCURVE",
"549 1064 OFFCURVE",
"490 1064 CURVE SMOOTH",
"389 1064 OFFCURVE",
"333 910 OFFCURVE",
"333 594 CURVE SMOOTH",
"333 295 OFFCURVE",
"389 123 OFFCURVE",
"488 123 CURVE SMOOTH"
);
},
{
closed = 1;
nodes = (
"551 346 OFFCURVE",
"528 436 OFFCURVE",
"528 594 CURVE SMOOTH",
"528 766 OFFCURVE",
"557 841 OFFCURVE",
"591 841 CURVE SMOOTH",
"623 841 OFFCURVE",
"634 763 OFFCURVE",
"634 586 CURVE SMOOTH",
"634 433 OFFCURVE",
"618 346 OFFCURVE",
"591 346 CURVE SMOOTH"
);
},
{
closed = 1;
nodes = (
"873 143 LINE",
"873 744 LINE",
"634 744 LINE",
"634 143 LINE"
);
}
);
width = 900;
},
{
layerId = "4AED55CC-054D-4448-879E-1FE49A52CF83";
paths = (
{
closed = 1;
nodes = (
"612 -203 OFFCURVE",
"657 -194 OFFCURVE",
"708 -178 CURVE",
"708 -88 LINE",
"663 -102 OFFCURVE",
"616 -113 OFFCURVE",
"545 -113 CURVE",
"266 -113 OFFCURVE",
"146 99 OFFCURVE",
"146 598 CURVE SMOOTH",
"146 1101 OFFCURVE",
"256 1349 OFFCURVE",
"478 1349 CURVE",
"654 1349 OFFCURVE",
"747 1196 OFFCURVE",
"747 887 CURVE",
"747 768 OFFCURVE",
"747 656 OFFCURVE",
"747 524 CURVE",
"824 524 LINE",
"824 658 OFFCURVE",
"824 772 OFFCURVE",
"824 893 CURVE",
"824 1258 OFFCURVE",
"708 1439 OFFCURVE",
"478 1439 CURVE",
"203 1439 OFFCURVE",
"66 1160 OFFCURVE",
"66 598 CURVE SMOOTH",
"66 36 OFFCURVE",
"209 -203 OFFCURVE",
"545 -203 CURVE"
);
},
{
closed = 1;
nodes = (
"645 148 OFFCURVE",
"734 246 OFFCURVE",
"743 364 CURVE SMOOTH",
"752 370 LINE",
"752 897 LINE",
"743 908 LINE SMOOTH",
"731 1011 OFFCURVE",
"639 1089 OFFCURVE",
"547 1089 CURVE",
"379 1089 OFFCURVE",
"285 935 OFFCURVE",
"285 619 CURVE SMOOTH",
"285 320 OFFCURVE",
"379 148 OFFCURVE",
"545 148 CURVE"
);
},
{
closed = 1;
nodes = (
"427 238 OFFCURVE",
"364 376 OFFCURVE",
"364 620 CURVE SMOOTH",
"364 884 OFFCURVE",
"430 999 OFFCURVE",
"547 999 CURVE",
"675 999 OFFCURVE",
"747 884 OFFCURVE",
"747 620 CURVE",
"747 376 OFFCURVE",
"670 238 OFFCURVE",
"547 238 CURVE"
);
},
{
closed = 1;
nodes = (
"824 168 LINE",
"824 769 LINE",
"747 769 LINE",
"747 168 LINE"
);
}
);
width = 900;
}
);
unicode = 0040;
}
{
glyphname = A;
layers = (
{
anchors = (
{
name = bottom;
position = "{600, 0}";
},
{
name = ogonek;
position = "{1080, 10}";
},
{
name = top;
position = "{600, 1420}";
}
);
layerId = m007;
paths = (
{
closed = 1;
nodes = (
"169 0 LINE",
"595 1333 LINE",
"605 1333 LINE",
"1031 0 LINE",
"1131 0 LINE",
"669 1420 LINE",
"531 1420 LINE",
"69 0 LINE"
);
},
{
closed = 1;
nodes = (
"955 396 LINE",
"955 486 LINE",
"235 486 LINE",
"235 396 LINE"
);
}
);
width = 1200;
},
{
anchors = (
{
name = bottom;
position = "{600, 0}";
},
{
name = ogonek;
position = "{1080, 10}";
},
{
name = top;
position = "{600, 1420}";
}
);
layerId = m008;
paths = (
{
closed = 1;
nodes = (
"255 0 LINE",
"591 1248 LINE",
"609 1248 LINE",
"945 0 LINE",
"1155 0 LINE",
"745 1420 LINE",
"455 1420 LINE",
"45 0 LINE"
);
},
{
closed = 1;
nodes = (
"955 346 LINE",
"955 536 LINE",
"235 536 LINE",
"235 346 LINE"
);
}
);
width = 1200;
},
{
anchors = (
{
name = bottom;
position = "{600, 0}";
},
{
name = ogonek;
position = "{1080, 10}";
},
{
name = top;
position = "{600, 1420}";
}
);
layerId = m009;
paths = (
{
closed = 1;
nodes = (
"313 0 LINE",
"591 1073 LINE",
"609 1073 LINE",
"887 0 LINE",
"1172 0 LINE",
"762 1420 LINE",
"438 1420 LINE",
"28 0 LINE"
);
},
{
closed = 1;
nodes = (
"955 269 LINE",
"955 513 LINE",
"235 513 LINE",
"235 269 LINE"
);
}
);
width = 1200;
},
{
anchors = (
{
name = bottom;
position = "{450, 0}";
},
{
name = ogonek;
position = "{821, 10}";
},
{
name = top;
position = "{450, 1420}";
}
);
layerId = "8A5928CE-31B2-4F56-BC21-FB6F481DC46A";
paths = (
{
closed = 1;
nodes = (
"222 0 LINE",
"438 1248 LINE",
"462 1248 LINE",
"678 0 LINE",
"865 0 LINE",
"592 1420 LINE",
"309 1420 LINE",
"35 0 LINE"
);
},
{
closed = 1;
nodes = (
"724 321 LINE",
"724 496 LINE",
"169 496 LINE",
"169 321 LINE"
);
}
);
width = 900;
},
{
anchors = (
{
name = bottom;
position = "{450, 0}";
},
{
name = ogonek;
position = "{825, 10}";
},
{
name = top;
position = "{450, 1420}";
}
);
layerId = "A3FCBCC7-55DF-4604-8A77-DC78C4EF6076";
paths = (
{
closed = 1;
nodes = (
"271 0 LINE",
"438 1137 LINE",
"463 1137 LINE",
"630 0 LINE",
"877 0 LINE",
"620 1420 LINE",
"281 1420 LINE",
"23 0 LINE"
);
},
{
closed = 1;
nodes = (
"727 234 LINE",
"727 466 LINE",
"166 466 LINE",
"166 234 LINE"
);
}
);
width = 900;
},
{
anchors = (
{
name = bottom;
position = "{450, 0}";
},
{
name = ogonek;
position = "{820, 10}";
},
{
name = top;
position = "{450, 1420}";
}
);
layerId = "4AED55CC-054D-4448-879E-1FE49A52CF83";
paths = (
{
closed = 1;
nodes = (
"146 0 LINE",
"446 1323 LINE",
"454 1323 LINE",
"754 0 LINE",
"851 0 LINE",
"515 1420 LINE",
"385 1420 LINE",
"49 0 LINE"
);
},
{
closed = 1;
nodes = (
"724 396 LINE",
"724 486 LINE",
"169 486 LINE",
"169 396 LINE"
);
}
);
width = 900;
}
);
unicode = 0041;
}
